<?xml version="1.0" encoding="utf-8"?><svg xmlns="http://www.w3.org/2000/svg" xmlns:xlink="http://www.w3.org/1999/xlink"><symbol viewBox="0 0 24 24" id="cube_scan_icon_137714" xmlns="http://www.w3.org/2000/svg"><path d="M17 22v-2h3v-3h2v3.5c0 .39-.16.74-.46 1.04-.3.3-.65.46-1.04.46H17M7 22H3.5c-.39 0-.74-.16-1.04-.46-.3-.3-.46-.65-.46-1.04V17h2v3h3v2M17 2h3.5c.39 0 .74.16 1.04.46.3.3.46.65.46 1.04V7h-2V4h-3V2M7 2v2H4v3H2V3.5c0-.39.16-.74.46-1.04.3-.3.65-.46 1.04-.46H7m6 15.25 4-2.3v-4.59l-4 2.3v4.59m-1-6.33 4-2.29-4-2.35-4 2.35 4 2.29m-5 4.03 4 2.3v-4.59l-4-2.3v4.59m11.23-7.36c.5.32.77.75.77 1.32v6.32c0 .57-.27 1-.77 1.32l-5.48 3.18c-.5.32-1 .32-1.5 0l-5.48-3.18c-.5-.32-.77-.75-.77-1.32V8.91c0-.57.27-1 .77-1.32l5.48-3.18c.25-.13.5-.19.75-.19s.5.06.75.19l5.48 3.18Z"/></symbol><symbol viewBox="0 0 24 24" id="d_cube_scan_icon_241348" xmlns="http://www.w3.org/2000/svg"><path d="M2 9V7c0-3 2-5 5-5h10c3 0 5 2 5 5v2M2 15v2c0 3 2 5 5 5h10c3 0 5-2 5-5v-2"/><g opacity=".4" stroke-width="1.5" stroke-linecap="round" stroke-linejoin="round"><path d="m6.7 9.26 5.3 3.07 5.26-3.05M12 17.77v-5.45"/><path d="m10.76 6.29-3.2 1.78c-.72.4-1.32 1.41-1.32 2.24v3.39c0 .83.59 1.84 1.32 2.24l3.2 1.78c.68.38 1.8.38 2.49 0l3.2-1.78c.72-.4 1.32-1.41 1.32-2.24v-3.39c0-.83-.59-1.84-1.32-2.24l-3.2-1.78c-.69-.39-1.81-.39-2.49 0Z"/></g></symbol></svg>