<?xml version="1.0" standalone="no"?>
<!DOCTYPE svg PUBLIC "-//W3C//DTD SVG 20010904//EN"
 "http://www.w3.org/TR/2001/REC-SVG-20010904/DTD/svg10.dtd">
<svg version="1.0" xmlns="http://www.w3.org/2000/svg"
 width="1280.000000pt" height="1040.000000pt" viewBox="0 0 1280.000000 1040.000000"
 preserveAspectRatio="xMidYMid meet">
<metadata>
Created by potrace 1.15, written by Peter Selinger 2001-2017
</metadata>
<g transform="translate(0.000000,1040.000000) scale(0.100000,-0.100000)"
fill="#000000" stroke="none">
<path d="M8115 10391 c-3 -5 -4 -41 -3 -79 4 -83 -8 -102 -62 -102 -45 0 -95
20 -166 65 -75 48 -135 77 -142 70 -16 -16 171 -152 260 -189 48 -21 87 1 146
81 l47 65 5 -76 c7 -96 40 -147 119 -188 49 -26 62 -28 162 -28 104 0 109 -1
109 -21 0 -32 -66 -124 -133 -185 -64 -57 -80 -70 -277 -216 -121 -90 -213
-179 -192 -186 7 -2 47 23 90 56 42 32 119 87 171 121 129 85 214 155 272 226
64 79 86 127 101 226 l13 82 53 -96 c72 -130 82 -137 196 -137 50 0 97 -4 105
-9 38 -24 -57 -135 -193 -225 -45 -29 -126 -83 -181 -119 -55 -36 -113 -79
-129 -96 -97 -102 203 74 382 224 129 107 188 185 179 232 -2 14 3 33 13 45
17 21 17 21 27 2 6 -10 14 -48 17 -83 8 -73 22 -105 61 -141 25 -23 33 -25
121 -23 65 2 94 -1 94 -9 0 -41 -113 -133 -271 -219 -133 -73 -219 -129 -219
-144 0 -20 47 -4 158 56 230 123 382 261 382 349 0 25 27 80 39 80 16 0 21
-30 21 -114 0 -118 10 -139 82 -178 83 -44 89 -60 41 -104 -44 -40 -146 -94
-178 -94 -29 0 -70 -14 -190 -66 -138 -59 -185 -69 -244 -49 -69 22 -314 62
-501 80 -91 8 -311 20 -490 25 -420 11 -490 22 -490 77 0 29 38 120 130 308
122 250 134 287 135 392 0 79 -1 84 -59 197 -56 112 -66 123 -100 110 -27 -10
-18 -37 35 -107 42 -54 53 -76 57 -116 3 -40 1 -52 -17 -70 -37 -37 -106 -22
-153 32 -25 30 -28 31 -43 15 -19 -17 -19 -24 -15 -223 2 -111 -1 -131 -35
-260 -30 -116 -36 -151 -31 -202 6 -71 6 -71 -73 -52 -24 5 -135 13 -246 17
-239 9 -242 10 -287 110 -89 196 -243 357 -385 402 -163 51 -746 120 -1013
120 -51 0 -119 -8 -169 -20 -46 -11 -167 -36 -270 -56 -102 -19 -212 -42 -244
-50 -173 -45 -317 -116 -448 -222 -109 -88 -160 -116 -201 -106 l-31 6 24 -33
c65 -91 -13 -189 -150 -189 -79 0 -154 -17 -186 -41 -40 -32 -32 -46 33 -59
148 -28 158 -37 147 -150 -9 -95 -32 -166 -76 -239 -23 -38 -39 -77 -39 -96 0
-17 -7 -40 -15 -51 -14 -19 -15 -19 -57 5 -126 69 -118 66 -223 66 -120 0
-165 -17 -165 -64 0 -36 -23 -56 -95 -81 -111 -38 -315 -162 -315 -192 0 -14
84 -6 234 23 123 24 220 27 376 12 105 -9 143 -22 205 -68 42 -32 72 -39 104
-25 53 21 66 100 31 178 -18 41 -38 58 -59 50 -5 -1 4 -30 20 -64 24 -50 28
-66 20 -87 -15 -39 -64 -36 -145 8 -35 20 -97 43 -137 51 -108 23 -285 21
-389 -5 -45 -12 -87 -21 -93 -21 -21 0 28 41 80 67 49 23 67 26 166 27 l112 1
-3 61 c-2 50 1 64 18 79 31 28 95 15 188 -39 90 -53 111 -55 220 -26 153 41
342 36 644 -15 79 -13 194 -27 256 -31 62 -4 115 -11 118 -15 9 -15 -44 -41
-163 -80 -64 -21 -154 -57 -200 -80 -85 -42 -173 -110 -173 -134 0 -33 38 -37
271 -30 267 9 261 10 514 -85 194 -73 302 -106 312 -97 10 11 -38 76 -131 177
-48 52 -94 112 -104 132 -21 45 -39 52 -187 73 -124 17 -142 27 -105 57 23 19
34 20 170 15 80 -3 296 -24 480 -47 436 -53 517 -53 716 -6 178 42 273 58 499
86 214 27 382 63 460 100 167 80 385 309 385 406 0 59 24 69 183 73 401 9 961
-74 1470 -219 684 -195 1138 -426 1664 -847 428 -341 760 -726 1079 -1248 356
-585 554 -1149 620 -1767 12 -119 15 -212 11 -418 -8 -387 -48 -630 -158 -960
-124 -374 -248 -605 -482 -895 -398 -496 -761 -716 -1577 -956 -257 -75 -302
-101 -491 -276 -396 -364 -759 -765 -1072 -1184 -141 -190 -243 -300 -300
-328 -58 -28 -128 -27 -193 3 -90 42 -124 132 -99 266 8 41 21 113 30 160 22
120 15 163 -69 393 -48 130 -47 164 8 313 25 66 50 141 57 167 11 45 10 50
-12 74 -34 36 -117 91 -242 158 -172 94 -199 123 -247 270 -38 116 -61 132
-342 239 -127 49 -204 100 -259 172 -56 73 -98 97 -229 128 -115 27 -145 45
-177 102 -37 67 -95 272 -97 342 -1 58 2 66 27 87 43 38 90 47 272 52 320 10
866 -62 1305 -172 236 -59 334 -70 625 -70 201 1 287 5 380 19 273 42 515 122
643 213 189 134 421 412 537 642 135 270 162 573 73 836 -33 97 -113 243 -185
340 -119 159 -368 388 -521 480 -39 23 -67 47 -74 64 -7 19 -5 66 7 171 42
357 26 695 -42 880 -91 251 -466 529 -798 591 -87 16 -1026 24 -1216 10 -83
-6 -159 -16 -169 -21 -27 -14 -34 -83 -23 -212 12 -130 17 -138 122 -173 74
-25 258 -61 267 -52 3 3 -32 17 -78 32 -277 92 -322 172 -142 252 l39 17 -61
6 c-34 3 -68 11 -77 19 -26 21 -21 50 11 62 51 20 545 32 827 20 366 -16 513
-38 707 -105 196 -68 250 -116 288 -257 18 -69 22 -102 18 -181 -4 -84 -9
-105 -40 -170 -43 -89 -104 -171 -198 -263 -85 -84 -94 -80 -85 40 14 208 18
552 6 602 -23 95 -80 126 -219 121 l-77 -3 75 -19 c151 -38 220 -88 220 -158
0 -45 -39 -37 -103 22 -100 91 -235 129 -356 100 -61 -14 -72 -27 -43 -51 12
-9 22 -19 22 -21 0 -2 -36 -2 -80 0 -88 4 -179 -12 -325 -59 -117 -38 -138
-52 -65 -43 153 18 -49 -49 -897 -298 l-281 -83 -6 -278 c-6 -267 -16 -371
-37 -350 -21 21 -31 143 -33 393 l-1 264 146 37 c80 20 159 44 175 52 l29 16
-30 1 c-75 0 -289 -66 -319 -99 -17 -19 -38 -119 -51 -242 l-6 -66 -267 -6
c-382 -9 -1035 -61 -1272 -102 -104 -18 -100 -18 -100 -1 0 21 61 71 143 116
39 22 83 49 97 60 l25 20 -31 0 c-47 0 -159 -61 -249 -135 -44 -36 -100 -77
-125 -89 -197 -101 -590 -144 -1225 -133 -459 8 -587 26 -754 108 -72 35 -102
59 -205 161 -84 83 -113 118 -96 113 14 -4 77 -9 140 -12 98 -4 130 -2 203 17
123 30 208 68 328 143 289 180 443 230 892 287 124 15 160 7 284 -64 115 -65
230 -120 276 -130 24 -6 27 -4 27 19 0 70 -100 188 -239 284 -123 84 -280 221
-508 443 -346 337 -497 467 -609 521 -165 81 -442 145 -733 168 -83 7 -151 16
-151 21 0 15 78 59 131 74 36 10 101 15 194 15 145 0 198 -9 335 -59 30 -11
57 -19 59 -16 20 19 -154 114 -209 114 -36 0 -60 19 -60 47 0 73 149 206 207
185 17 -6 32 -63 22 -83 -11 -22 -61 -39 -113 -39 -79 0 -69 -16 21 -35 135
-28 178 -55 360 -226 136 -128 216 -174 302 -173 31 0 70 8 86 17 50 26 112
97 163 189 l49 88 7 -93 c10 -148 36 -206 109 -248 33 -18 50 -21 103 -16 78
6 130 34 201 109 67 72 106 151 144 297 l32 121 51 0 c28 0 292 -7 586 -15
678 -19 785 -29 876 -81 61 -35 89 -74 160 -222 35 -73 78 -152 96 -175 50
-64 93 -92 118 -77 18 11 -21 116 -115 310 -114 231 -169 280 -361 317 -76 14
-185 17 -763 22 l-674 6 -53 89 c-30 49 -62 95 -71 103 -26 20 -126 11 -192
-18 -30 -12 -86 -47 -125 -76 -81 -62 -99 -64 -250 -33 -137 28 -330 41 -487
34 -197 -10 -199 -7 -154 162 29 104 25 129 -23 140 -15 3 -32 7 -39 9 -27 8
-151 -27 -237 -68 -136 -65 -235 -167 -160 -167 42 0 23 -23 -34 -42 -32 -11
-109 -21 -196 -27 -163 -10 -212 -26 -263 -84 -40 -46 -48 -86 -38 -206 9
-121 8 -150 -6 -167 -6 -8 -45 -33 -86 -55 -97 -54 -132 -85 -168 -150 -21
-40 -28 -66 -28 -108 0 -111 62 -200 208 -296 91 -59 128 -95 120 -116 -7 -17
-99 -80 -215 -145 -191 -108 -268 -170 -315 -256 -27 -47 -30 -62 -29 -138 1
-208 115 -305 429 -364 155 -29 215 -60 413 -215 235 -184 336 -243 482 -280
138 -35 258 -44 695 -50 l430 -6 -95 -74 c-418 -324 -688 -400 -1220 -342
-352 39 -638 56 -1105 67 l-290 7 -205 170 c-113 94 -443 372 -735 617 -291
245 -570 479 -620 519 -97 78 -203 147 -212 137 -26 -26 239 -272 992 -921
491 -423 614 -533 650 -585 25 -36 31 -56 36 -124 7 -89 28 -142 85 -213 26
-31 50 -48 105 -68 40 -16 98 -49 133 -76 173 -138 332 -231 415 -244 79 -13
157 -64 358 -231 288 -242 363 -284 371 -212 5 40 -16 72 -104 161 -88 89 -92
86 70 43 115 -31 148 -49 237 -132 84 -79 116 -95 208 -105 107 -12 171 -35
270 -96 134 -84 168 -98 237 -98 51 0 73 6 145 42 190 96 341 260 588 643 140
216 231 330 382 480 76 74 148 153 162 175 14 22 41 85 60 141 63 180 166 364
255 453 61 61 89 67 417 96 390 33 762 29 822 -10 29 -20 38 -72 23 -137 -10
-40 -24 -63 -63 -102 -60 -60 -99 -141 -105 -217 -4 -57 10 -94 83 -214 42
-68 47 -102 54 -377 7 -306 8 -308 77 -289 66 18 64 21 64 -89 0 -73 4 -102
13 -106 18 -7 132 36 657 246 583 233 642 250 728 215 83 -35 93 -63 67 -185
-7 -36 -12 -67 -9 -69 2 -2 41 1 86 7 103 15 163 15 189 1 11 -6 46 -64 78
-133 71 -150 110 -196 190 -225 33 -12 87 -43 121 -69 122 -93 144 -104 227
-114 143 -17 181 -28 242 -69 32 -21 70 -39 85 -39 14 0 64 11 112 25 48 14
147 31 223 38 149 15 181 27 229 81 42 48 54 92 59 221 5 113 -7 212 -58 498
-17 94 -20 130 -12 138 19 19 70 -46 128 -166 98 -198 147 -389 148 -570 1
-110 -19 -175 -107 -349 -142 -281 -367 -520 -596 -635 -168 -84 -447 -157
-694 -182 -150 -15 -476 -6 -606 15 -52 9 -177 34 -276 56 -513 113 -1127 186
-1344 162 -123 -14 -163 -27 -204 -62 -53 -47 -61 -78 -47 -173 17 -117 67
-294 104 -368 36 -72 52 -84 212 -151 127 -53 197 -97 260 -162 59 -61 116
-90 290 -147 70 -23 147 -56 172 -73 40 -27 49 -40 74 -110 57 -159 90 -194
260 -281 63 -32 125 -67 139 -77 76 -60 80 -131 14 -315 -25 -70 -46 -146 -46
-168 -1 -22 18 -98 42 -170 l42 -130 -8 -200 c-15 -352 -15 -351 54 -427 74
-82 165 -104 280 -69 164 49 338 209 614 561 328 418 649 791 835 971 130 126
214 175 402 234 583 184 745 246 942 364 200 119 400 287 602 506 330 358 528
680 665 1080 98 284 141 545 149 900 16 695 -126 1339 -432 1953 -175 352
-393 681 -728 1101 -72 90 -95 126 -85 131 7 4 45 13 85 20 129 21 191 6 677
-169 353 -128 409 -138 471 -89 74 58 72 161 -5 331 -37 81 -38 123 -5 187 43
84 37 104 -74 240 -81 100 -92 129 -102 252 -11 157 -41 215 -159 310 -100 80
-362 210 -567 282 -349 121 -704 144 -1253 81 -69 -8 -136 -17 -150 -20 -14
-3 4 10 40 28 36 19 74 45 85 57 19 21 19 22 0 36 -48 36 -134 9 -304 -95 -46
-28 -93 -51 -104 -51 -11 0 -34 11 -51 24 -55 41 -96 57 -173 66 -123 13 -136
42 -94 208 12 44 21 94 21 112 0 32 -25 90 -38 90 -14 0 -39 -24 -91 -87 -28
-35 -65 -70 -82 -78 -72 -38 -95 13 -85 191 10 187 -20 262 -64 159 -58 -136
-189 -213 -262 -155 -33 25 -45 58 -58 155 -7 56 -21 102 -46 153 -19 39 -39
72 -43 72 -5 0 -11 -22 -15 -50 -12 -91 -102 -180 -182 -180 -40 0 -45 3 -74
45 -17 24 -48 90 -70 147 -81 208 -108 217 -150 51 -17 -69 -47 -95 -113 -101
-44 -3 -66 0 -102 18 -60 29 -89 69 -136 187 -48 118 -101 180 -124 144z
m-553 -318 c38 -25 49 -28 120 -26 43 2 78 0 78 -3 0 -4 -44 -93 -98 -198
-192 -372 -225 -407 -141 -151 44 134 47 192 15 302 -14 51 -26 94 -26 97 0
11 10 6 52 -21z m-2064 -55 c19 -19 14 -55 -10 -72 -46 -32 -178 -10 -178 30
0 37 158 72 188 42z m547 -63 c171 -20 299 -42 356 -60 55 -19 131 -80 188
-155 51 -65 140 -244 175 -350 24 -73 96 -349 96 -369 0 -5 -49 -62 -109 -125
-108 -113 -138 -152 -127 -163 27 -28 296 268 310 340 4 23 0 64 -13 114 -35
140 -36 160 -9 174 13 8 73 15 143 17 191 7 377 -34 449 -98 31 -28 31 -29 31
-127 -1 -163 -43 -229 -204 -311 -147 -76 -310 -117 -530 -133 -192 -14 -275
-25 -446 -64 -246 -55 -412 -65 -748 -45 -187 12 -501 45 -578 61 -26 6 -54
18 -61 26 -10 12 -13 73 -14 252 -1 185 -5 249 -18 294 -56 199 -162 263 -413
250 -73 -4 -128 -2 -159 6 -54 14 -114 54 -114 76 0 23 67 92 136 141 179 128
539 244 755 244 118 0 96 -32 -56 -81 -130 -41 -244 -100 -310 -161 -82 -75
-81 -121 1 -58 169 131 376 219 513 220 38 0 49 -5 86 -42 88 -89 135 -312
135 -642 0 -172 17 -417 29 -429 19 -19 24 69 18 297 -8 317 -36 537 -82 661
-34 89 -33 120 5 140 47 24 89 18 313 -45 328 -94 441 -143 487 -215 43 -66
106 -213 189 -437 43 -117 88 -231 100 -253 l22 -40 -5 45 c-14 121 -195 609
-271 730 -36 58 -163 116 -390 180 -266 75 -351 114 -323 147 11 14 34 15 163
10 82 -4 209 -13 280 -22z m3725 -382 c0 -5 -10 -46 -22 -93 -22 -85 -22 -86
-2 -125 23 -48 72 -77 165 -100 128 -32 162 -76 98 -129 -45 -38 -77 -53 -166
-77 -134 -37 -236 -25 -488 57 -133 44 -171 62 -157 76 5 5 62 27 126 48 127
42 215 87 295 150 65 52 88 85 71 105 -17 20 -5 47 33 72 34 23 47 27 47 16z
m-5549 -114 c20 -38 5 -107 -32 -145 -39 -41 -52 -42 -67 -9 -23 49 -15 92 24
135 41 45 58 50 75 19z m508 -69 c66 -29 131 -101 155 -172 24 -71 32 -201 14
-252 -21 -62 -30 -63 -163 -26 -65 18 -153 35 -196 39 -43 4 -83 11 -89 17 -8
8 -5 25 10 58 25 59 25 110 0 206 -27 102 -26 138 3 150 40 18 207 5 266 -20z
m-441 -134 c3 -40 -23 -126 -38 -126 -12 0 -30 58 -30 94 0 39 26 78 48 74 12
-2 18 -16 20 -42z m6085 -18 c17 -10 141 -13 527 -13 490 0 508 -1 614 -23
373 -79 847 -289 962 -425 25 -30 26 -31 19 -157 -8 -145 -10 -141 73 -244
130 -162 154 -242 79 -261 -15 -4 -30 -11 -33 -16 -3 -5 11 -48 31 -96 64
-153 102 -257 109 -295 5 -30 2 -41 -18 -65 -23 -26 -30 -28 -93 -27 -89 1
-196 33 -474 139 -316 122 -333 126 -534 134 -147 6 -176 10 -215 29 -25 12
-117 83 -205 158 -380 323 -745 565 -1159 769 l-228 112 123 61 c68 33 168 90
222 126 87 59 165 106 175 106 2 0 13 -6 25 -12z m-6328 -44 c23 -9 45 -57 45
-99 0 -40 -22 -100 -47 -127 -24 -27 -71 -24 -78 5 -8 29 22 175 41 205 16 25
16 24 39 16z m590 -283 c164 -35 255 -82 255 -131 0 -12 -12 -32 -26 -45 -22
-21 -37 -25 -87 -25 -32 0 -86 7 -118 15 -99 26 -203 35 -494 45 -154 4 -288
12 -297 15 -28 11 -21 50 13 79 65 55 212 77 479 71 131 -3 211 -10 275 -24z
m208 -390 c-4 -29 20 -37 144 -45 120 -8 160 -20 169 -49 4 -12 54 -71 113
-131 58 -60 99 -106 91 -103 -8 3 -104 42 -212 86 -296 122 -334 127 -557 81
-100 -21 -161 -25 -161 -12 0 34 173 127 340 183 64 21 76 19 73 -10z m-1334
-134 c8 -10 7 -29 -4 -71 -34 -129 -78 -172 -166 -164 -27 3 -55 11 -64 18
-28 23 -5 33 64 27 l66 -6 -23 19 c-34 28 -116 50 -186 50 l-60 0 34 30 c49
42 113 80 163 95 57 18 161 19 176 2z m1239 -222 c43 -43 44 -47 28 -63 -14
-14 -38 -17 -161 -17 -159 0 -186 8 -149 45 29 30 153 79 198 80 33 0 46 -7
84 -45z m-50 -228 c30 -62 -43 -263 -120 -333 -45 -41 -72 -41 -100 -3 -15 20
-22 56 -32 157 -6 72 -15 134 -19 138 -34 35 -44 -140 -14 -240 24 -79 62
-116 117 -116 22 0 52 7 65 16 36 24 79 98 120 209 43 116 70 165 92 165 13 0
15 -11 11 -68 -6 -76 -60 -206 -117 -277 -42 -52 -135 -115 -170 -115 -34 0
-103 50 -131 95 -11 18 -27 55 -35 82 -16 57 -40 291 -30 301 8 9 191 9 200 1
3 -4 -5 -23 -19 -43 -40 -59 -56 -156 -35 -214 22 -64 84 -45 127 38 18 36 22
61 22 130 0 88 10 113 40 108 8 -2 21 -16 28 -31z m-1883 -317 c405 -30 631
-83 813 -189 138 -80 223 -152 543 -451 242 -227 411 -370 603 -508 82 -59
151 -113 154 -119 14 -43 -129 30 -312 160 -111 79 -211 157 -531 417 -164
132 -334 249 -440 300 -202 99 -495 160 -765 160 -225 0 -322 -45 -337 -157
-5 -36 -1 -45 31 -80 36 -40 45 -63 26 -63 -19 0 -93 41 -158 88 -109 77 -135
132 -108 226 26 90 137 194 229 216 46 11 95 11 252 0z m230 -300 c252 -25
471 -78 613 -149 102 -51 165 -96 160 -113 -2 -6 -36 -19 -74 -28 -95 -24
-302 -109 -448 -183 -127 -64 -216 -136 -216 -174 0 -32 61 -79 121 -94 116
-30 619 -12 619 21 0 5 -132 10 -292 13 -311 4 -348 9 -389 54 -36 38 -16 63
88 109 48 21 146 67 216 102 153 74 240 100 362 109 71 4 98 2 128 -11 59 -24
47 -47 -34 -62 -71 -13 -167 -48 -264 -97 -158 -79 -122 -91 46 -16 232 104
364 100 483 -14 38 -36 40 -40 23 -52 -10 -7 -57 -22 -105 -34 -130 -32 -145
-39 -137 -68 5 -21 0 -26 -39 -43 -51 -23 -245 -74 -349 -91 -123 -21 -722 35
-885 83 -80 23 -132 62 -132 98 0 33 51 74 136 108 203 83 218 121 99 251 -82
89 -109 141 -102 194 3 22 14 49 25 59 34 35 166 45 347 28z m-318 -329 c61
-44 106 -111 75 -111 -18 0 -129 78 -135 95 -20 52 2 58 60 16z m2 -106 c11
-11 0 -20 -60 -56 -41 -24 -91 -56 -111 -71 -99 -77 -104 -183 -10 -220 15 -5
72 -14 126 -19 146 -13 160 -37 65 -106 -72 -52 -109 -84 -109 -94 0 -17 24
-9 84 30 130 84 288 112 623 110 236 -1 311 7 483 51 236 60 416 81 515 60 70
-14 141 -48 129 -60 -5 -5 -90 -20 -189 -34 -334 -48 -509 -106 -782 -259
-234 -132 -508 -201 -600 -153 -16 8 -128 35 -249 61 -262 55 -308 68 -399
109 -118 55 -175 121 -175 204 0 85 158 268 261 301 20 6 83 39 140 73 155 92
218 110 258 73z m6087 -195 c8 0 14 -4 14 -10 0 -5 -18 -10 -40 -10 -22 0 -40
4 -40 9 0 12 21 21 38 15 8 -2 20 -4 28 -4z m-4527 -26 c8 -7 11 -17 7 -21 -4
-5 -69 -9 -144 -11 -75 -2 -134 -1 -131 2 8 8 135 43 174 48 40 6 77 -1 94
-18z m4729 -63 c22 -16 43 -34 46 -39 3 -5 -16 -19 -42 -30 -136 -58 -847
-305 -1405 -487 -323 -106 -328 -107 -349 -89 -28 25 -118 154 -118 169 0 6
24 19 53 27 28 8 236 70 460 137 660 196 1012 295 1167 326 107 22 142 19 188
-14z m-443 9 c-3 -5 -35 -19 -71 -30 -119 -36 -156 -18 -42 21 57 20 123 25
113 9z m1126 -140 c39 -103 52 -211 52 -425 -1 -313 -40 -556 -142 -895 -48
-159 -102 -387 -131 -554 -38 -222 -42 -230 -146 -240 -38 -3 -104 -14 -147
-23 -60 -12 -81 -13 -90 -4 -6 6 -13 43 -15 81 -3 52 -9 73 -21 79 -51 27
-304 18 -425 -14 -35 -9 -63 -12 -68 -7 -6 6 -5 42 2 90 15 99 9 112 -70 152
-95 48 -178 63 -290 54 -98 -9 -139 -9 -148 0 -3 3 -9 29 -13 57 -15 93 -71
129 -199 129 -70 0 -155 -26 -305 -94 -44 -20 -93 -36 -108 -36 l-28 0 7 75 7
75 -36 34 c-41 38 -122 63 -296 90 -138 21 -182 43 -229 114 -61 92 -50 142
64 277 l25 30 -8 -65 c-16 -131 -4 -169 67 -218 53 -36 107 -46 235 -46 194 1
438 47 819 156 385 109 596 186 826 303 383 195 630 435 704 685 9 30 19 93
22 140 3 47 8 92 11 100 7 23 49 -34 74 -100z m-9553 26 c33 -31 40 -46 22
-46 -13 0 -90 81 -90 94 0 10 21 -5 68 -48z m8985 -41 c15 -93 -9 -419 -38
-520 -22 -76 -79 -124 -255 -210 -312 -155 -1022 -381 -1397 -446 -150 -26
-311 -31 -336 -10 -22 18 -23 168 -2 366 22 208 12 191 141 240 106 40 522
183 1409 485 242 82 447 148 455 147 9 -1 18 -20 23 -52z m-8738 -174 c73 -71
94 -102 58 -82 -22 11 -162 166 -145 160 6 -2 45 -37 87 -78z m230 -192 c53
-55 94 -103 91 -107 -7 -7 -130 111 -178 171 -56 70 -11 37 87 -64z m6537 -46
c33 -36 48 -66 48 -97 0 -19 -10 -31 -45 -51 -64 -38 -78 -32 -89 37 -19 117
26 174 86 111z m-6167 -272 c392 -317 843 -693 934 -777 74 -69 62 -86 -19
-25 -181 136 -922 771 -1055 904 -38 38 11 2 140 -102z m4600 -81 c9 -15 -21
-66 -77 -127 -57 -64 -103 -156 -143 -288 -53 -173 -84 -218 -242 -346 -146
-120 -226 -218 -393 -484 -203 -323 -340 -490 -473 -576 -152 -99 -248 -92
-437 30 -68 44 -159 77 -237 85 -71 7 -123 32 -213 101 -83 63 -181 115 -220
115 -38 0 -127 45 -205 104 -100 74 -134 93 -197 110 -73 19 -128 48 -214 112
-125 94 -205 190 -231 279 -5 18 -20 36 -38 45 l-30 15 49 3 c27 2 146 -14
265 -35 210 -36 223 -37 451 -37 195 0 257 4 365 22 444 76 816 249 1073 499
l97 95 -65 -46 c-396 -280 -679 -424 -924 -471 -118 -23 -392 -28 -791 -16
-658 20 -704 30 -845 176 l-55 57 130 -5 c72 -4 448 -21 836 -39 619 -28 722
-31 835 -21 237 22 386 83 634 260 263 188 328 221 508 258 64 13 187 42 274
64 86 22 200 47 255 55 116 16 249 20 258 6z m1435 -275 c4 -66 -1 -125 -11
-125 -14 0 -39 63 -39 97 0 33 28 79 40 66 5 -4 9 -21 10 -38z m2774 -247
c149 -87 325 -231 362 -293 28 -49 30 -64 70 -513 29 -332 27 -387 -17 -436
l-28 -31 -152 3 -152 3 -40 -28 c-56 -39 -136 -38 -227 1 -97 42 -169 64 -232
71 -67 7 -130 39 -202 99 -60 51 -81 63 -146 82 -63 19 -93 56 -170 215 -41
85 -56 127 -49 134 5 5 45 10 87 10 128 0 155 -33 118 -145 -20 -61 -20 -62
-1 -76 27 -20 50 -18 160 16 171 53 187 44 183 -99 -2 -104 5 -141 28 -141 20
0 34 42 34 104 0 64 20 136 48 171 37 46 60 129 112 383 43 215 123 512 139
512 3 0 37 -19 75 -42z m-2786 -171 c19 -38 19 -446 0 -501 -26 -79 -73 -75
-83 6 -12 94 -2 480 13 506 18 31 53 25 70 -11z m-5240 -19 c77 -53 165 -87
301 -118 130 -29 194 -54 194 -75 -1 -5 -24 -19 -53 -29 -28 -10 -58 -30 -67
-43 -14 -21 -14 -25 1 -48 24 -36 87 -80 186 -128 47 -23 90 -43 95 -46 6 -2
-10 14 -35 35 -76 65 -170 157 -170 166 0 27 82 -26 255 -166 139 -113 206
-156 245 -156 89 0 200 -91 200 -163 0 -25 40 -84 128 -187 29 -34 51 -65 48
-68 -10 -9 -107 62 -256 188 -323 273 -377 310 -458 321 -84 12 -203 75 -298
161 -45 40 -115 90 -155 112 -41 21 -94 57 -117 80 -61 57 -145 226 -99 200 6
-4 31 -20 55 -36z m5543 14 c27 -24 32 -36 40 -107 10 -93 21 -105 88 -105 59
0 127 19 221 60 54 24 95 34 146 38 124 8 179 -25 179 -107 0 -45 1 -46 40
-58 22 -7 53 -15 68 -18 70 -14 25 -35 -672 -316 -189 -77 -348 -139 -353
-139 -15 0 -4 678 11 718 7 17 14 32 14 32 1 0 20 7 42 15 22 8 64 14 92 15
44 0 58 -5 84 -28z"/>
<path d="M10805 9049 c-123 -8 -270 -32 -395 -64 -103 -26 -190 -59 -190 -73
0 -11 96 1 237 28 367 71 935 26 1348 -107 147 -47 252 -97 363 -172 116 -77
138 -86 87 -32 -112 119 -314 219 -617 307 -306 88 -605 128 -833 113z"/>
<path d="M10940 8794 c-109 -10 -239 -37 -290 -61 -30 -14 -50 -27 -44 -29 6
-3 80 7 164 21 181 29 343 33 457 9 182 -37 491 -145 701 -245 148 -70 220
-112 335 -197 48 -35 90 -62 93 -59 10 10 -27 56 -79 96 -205 157 -667 362
-997 441 -84 20 -252 32 -340 24z"/>
<path d="M11205 8415 c166 -20 257 -40 377 -81 215 -75 396 -172 732 -393 281
-185 321 -189 81 -9 -212 160 -487 323 -677 403 -180 76 -236 88 -448 91
l-185 3 120 -14z"/>
<path d="M4214 8896 c-11 -28 1 -51 25 -51 32 0 49 28 32 49 -17 20 -50 21
-57 2z"/>
<path d="M4394 8896 c-19 -50 22 -100 46 -56 9 17 8 26 -5 46 -17 27 -33 31
-41 10z"/>
<path d="M3927 8864 c-12 -12 -8 -41 7 -53 22 -18 58 4 54 32 -3 22 -45 36
-61 21z"/>
<path d="M4040 8857 c0 -16 28 -57 39 -57 13 0 22 31 16 51 -7 22 -55 27 -55
6z"/>
<path d="M4541 8856 c-22 -26 10 -63 43 -50 35 13 24 64 -14 64 -10 0 -23 -6
-29 -14z"/>
<path d="M4726 8824 c-20 -19 -5 -54 23 -54 29 0 45 25 31 49 -13 25 -33 27
-54 5z"/>
<path d="M9615 6145 c-205 -327 -314 -439 -590 -604 -283 -170 -661 -336
-1018 -447 -117 -36 -219 -70 -227 -76 -25 -16 94 0 200 27 610 155 1243 500
1492 814 59 74 172 283 165 304 -2 6 -12 -2 -22 -18z"/>
<path d="M9671 6084 c-12 -15 -21 -40 -21 -55 0 -87 -145 -380 -301 -610 -123
-182 -280 -334 -534 -519 -83 -60 -160 -119 -170 -131 l-20 -22 25 8 c38 11
143 75 265 161 261 185 503 477 660 799 63 127 135 322 135 363 0 32 -16 35
-39 6z"/>
<path d="M9604 5463 c-14 -32 -43 -97 -64 -144 -60 -136 -129 -269 -173 -334
-22 -33 -106 -126 -186 -207 -80 -82 -138 -148 -130 -148 32 0 136 79 211 159
127 138 241 322 311 506 32 84 70 225 61 225 -2 0 -16 -26 -30 -57z"/>
<path d="M5333 5518 c-6 -7 -42 -76 -81 -153 -40 -77 -92 -166 -118 -197 -26
-31 -109 -111 -185 -177 -77 -68 -198 -188 -273 -274 -210 -236 -378 -373
-596 -486 -63 -33 -124 -67 -135 -75 -19 -14 -19 -15 -2 -16 35 0 171 51 241
92 39 23 105 66 146 96 77 57 746 724 845 843 78 94 122 172 151 267 25 82 27
105 7 80z"/>
<path d="M5074 5458 c-30 -28 -103 -115 -162 -192 -199 -260 -384 -420 -687
-594 -260 -149 -635 -281 -945 -333 l-75 -13 45 -8 c108 -21 346 17 535 86
153 56 390 177 530 271 202 134 319 237 523 455 210 225 331 380 296 380 -3 0
-30 -23 -60 -52z"/>
<path d="M4771 5419 c-65 -32 -106 -63 -185 -139 -315 -303 -790 -521 -1311
-601 -33 -5 -156 -14 -274 -19 -203 -9 -261 -19 -215 -37 10 -4 100 -8 199 -7
275 1 485 36 745 124 320 108 588 253 811 441 187 158 295 240 322 246 28 6
32 26 6 31 -9 1 -53 -16 -98 -39z"/>
<path d="M9721 4908 c-34 -96 -39 -532 -10 -763 11 -88 32 -155 50 -155 14 0
11 64 -12 215 -19 126 -21 170 -16 438 3 163 4 297 2 297 -2 0 -8 -15 -14 -32z"/>
<path d="M9953 4835 c-14 -52 -10 -541 6 -618 28 -138 33 -87 29 264 -2 235
-7 350 -15 364 -11 19 -12 18 -20 -10z"/>
<path d="M2750 4300 c58 -73 140 -124 140 -87 0 18 -44 58 -104 96 -66 41 -74
39 -36 -9z"/>
<path d="M8122 10038 c-10 -18 -34 -59 -52 -91 -45 -80 -125 -179 -266 -327
-124 -129 -173 -190 -155 -190 31 0 323 289 409 405 25 33 55 83 68 111 44 99
41 167 -4 92z"/>
<path d="M6720 8022 c0 -4 73 -32 162 -61 332 -110 500 -226 589 -407 28 -56
31 -71 26 -122 -3 -31 -28 -129 -57 -217 -65 -204 -107 -364 -115 -440 -4 -33
-17 -99 -30 -146 -24 -90 -21 -125 9 -100 23 19 44 100 55 206 12 115 31 187
91 350 73 196 83 244 84 375 1 87 -3 128 -17 167 -40 114 -155 228 -293 289
-64 28 -290 86 -401 103 -85 13 -103 14 -103 3z"/>
<path d="M6145 7880 c3 -5 41 -36 83 -69 189 -144 343 -351 386 -518 21 -79
20 -232 0 -331 -22 -105 -46 -175 -116 -327 -92 -198 -124 -285 -108 -285 21
0 200 333 258 480 56 142 74 273 51 382 -15 72 -86 221 -151 315 -65 94 -255
290 -322 332 -48 30 -94 42 -81 21z"/>
<path d="M8090 7481 c-36 -91 -54 -111 -98 -111 -35 0 -40 -10 -16 -34 54 -55
130 35 158 187 12 62 -10 42 -44 -42z"/>
<path d="M8277 7523 c-10 -9 -9 -41 2 -47 10 -7 61 31 61 45 0 10 -53 12 -63
2z"/>
<path d="M8600 7404 c0 -84 12 -130 31 -119 20 13 0 205 -22 205 -5 0 -9 -39
-9 -86z"/>
<path d="M8470 7465 c-17 -21 -26 -105 -11 -105 15 0 41 61 41 95 0 28 -12 32
-30 10z"/>
<path d="M8836 7359 c-30 -23 -26 -39 9 -39 30 0 51 33 31 49 -10 8 -20 6 -40
-10z"/>
<path d="M9350 7369 c-35 -14 -60 -39 -60 -61 0 -16 3 -17 23 -7 27 14 77 60
77 71 0 10 -8 9 -40 -3z"/>
<path d="M8312 7348 c3 -20 10 -23 51 -26 54 -4 61 10 17 33 -44 23 -72 20
-68 -7z"/>
<path d="M8960 7350 c0 -27 30 -100 41 -100 14 0 11 47 -5 85 -16 38 -36 47
-36 15z"/>
<path d="M8687 7233 c-16 -15 -5 -23 33 -23 22 0 40 4 40 9 0 17 -59 29 -73
14z"/>
<path d="M9169 7219 c-23 -23 -21 -42 4 -47 20 -4 71 44 62 58 -10 17 -44 11
-66 -11z"/>
<path d="M9530 7149 c-12 -22 -18 -48 -15 -57 5 -16 74 -68 79 -60 6 8 -27
158 -35 158 -5 0 -18 -18 -29 -41z"/>
<path d="M9717 7105 c22 -18 33 -37 38 -66 8 -44 28 -49 33 -8 4 38 -38 93
-73 97 l-30 3 32 -26z"/>
<path d="M9904 6918 c-46 -49 -55 -63 -41 -66 9 -2 35 10 56 27 21 17 42 31
45 31 3 0 6 -12 6 -27 0 -73 46 -154 98 -174 37 -14 39 -2 5 34 -37 39 -60 81
-67 127 -3 19 -8 52 -11 73 -3 21 -12 37 -19 37 -7 0 -40 -28 -72 -62z"/>
<path d="M10265 6820 c-45 -46 -42 -51 11 -15 42 29 55 28 69 -3 12 -28 25
-28 25 -1 0 68 -49 77 -105 19z"/>
<path d="M10378 6673 c-45 -12 0 -43 62 -43 45 0 110 23 110 39 0 11 -136 14
-172 4z"/>
<path d="M10638 6531 c-54 -59 -123 -159 -116 -166 14 -14 128 118 167 193 20
37 -5 25 -51 -27z"/>
<path d="M7875 6466 c-302 -77 -515 -142 -515 -158 0 -4 6 -8 13 -8 49 0 671
181 692 201 15 15 -12 10 -190 -35z"/>
<path d="M10775 6361 c-11 -4 -51 -22 -88 -40 -46 -22 -77 -32 -97 -29 -33 5
-36 1 -16 -24 20 -27 51 -22 126 23 47 27 78 39 97 37 30 -3 31 -8 18 -68 l-7
-35 31 29 c38 36 40 68 5 95 -28 22 -36 23 -69 12z"/>
<path d="M10929 6175 c-15 -8 -29 -21 -32 -29 -5 -12 0 -14 22 -10 23 5 29 2
34 -15 6 -25 29 -27 48 -5 15 18 5 39 -27 60 -15 10 -24 10 -45 -1z"/>
<path d="M10848 5878 c-4 -58 12 -91 38 -81 18 7 18 24 -3 68 -19 40 -32 45
-35 13z"/>
<path d="M11055 5861 l-30 -7 43 -28 c45 -28 68 -28 79 -1 11 30 -36 48 -92
36z"/>
<path d="M11024 5695 c-34 -27 -57 -58 -68 -92 -9 -30 24 -63 64 -63 36 0 39
14 6 35 -38 25 -38 40 0 95 19 27 33 50 32 50 -2 0 -17 -11 -34 -25z"/>
<path d="M11102 5584 c4 -33 32 -54 49 -37 8 8 6 18 -6 37 -23 35 -47 34 -43
0z"/>
<path d="M11011 5414 c-38 -47 -47 -82 -27 -102 19 -19 143 -31 132 -13 -4 6
-13 11 -20 11 -7 0 -25 9 -40 21 -28 22 -35 64 -16 100 16 30 4 23 -29 -17z"/>
<path d="M11216 5174 c-14 -34 -20 -224 -8 -224 37 0 58 165 28 219 -12 22
-13 22 -20 5z"/>
<path d="M11177 4794 c-13 -13 -7 -44 12 -63 11 -11 41 -21 81 -25 l62 -7 -6
-30 c-3 -16 -2 -29 3 -29 12 0 61 47 61 59 0 18 -44 41 -78 41 -39 0 -100 24
-116 46 -6 8 -15 12 -19 8z"/>
<path d="M11242 4518 c-47 -63 -76 -117 -67 -126 4 -4 16 4 26 17 29 36 92
151 86 157 -3 3 -23 -18 -45 -48z"/>
<path d="M11176 4282 c-7 -11 27 -75 42 -80 16 -5 15 11 -2 53 -15 34 -29 44
-40 27z"/>
<path d="M11123 4088 c-43 -46 -53 -70 -52 -125 l0 -48 21 60 c11 33 33 79 49
103 34 50 25 55 -18 10z"/>
<path d="M10999 3823 c-32 -82 -52 -115 -101 -169 -29 -32 -62 -70 -73 -83
l-20 -23 40 23 c90 53 170 157 190 247 5 26 3 32 -9 32 -9 0 -21 -12 -27 -27z"/>
<path d="M7240 2773 c-20 -8 -50 -34 -50 -45 0 -4 24 -5 53 -2 67 8 216 -8
477 -51 257 -43 466 -70 690 -90 96 -8 216 -19 265 -23 51 -5 -179 -7 -530 -4
-615 5 -778 0 -741 -20 52 -29 1650 -29 1678 0 22 23 -22 48 -107 61 -42 6
-196 18 -343 26 -404 23 -596 42 -842 85 -336 59 -407 70 -468 69 -37 0 -74
-3 -82 -6z"/>
<path d="M9147 2743 c-4 -3 -7 -10 -7 -15 0 -12 140 -78 165 -78 19 0 18 2 -5
21 -34 27 -123 79 -136 79 -6 0 -14 -3 -17 -7z"/>
<path d="M9394 2695 c-10 -57 3 -444 17 -495 22 -77 85 -129 261 -214 84 -40
181 -83 216 -95 144 -49 126 -7 -26 60 -160 69 -212 98 -264 147 -85 79 -110
151 -133 382 -17 160 -34 241 -52 247 -7 3 -15 -11 -19 -32z"/>
<path d="M8535 2320 c-179 -8 -385 -27 -394 -36 -13 -12 25 -16 191 -21 194
-6 519 9 636 28 77 13 105 8 96 -15 -30 -77 -596 -109 -1099 -61 -264 25 -339
16 -166 -20 188 -40 295 -49 571 -49 290 0 449 14 609 55 80 20 183 67 188 85
10 34 -280 50 -632 34z"/>
<path d="M9250 2103 c-14 -2 -83 -22 -155 -43 -206 -61 -322 -80 -635 -105
-107 -9 -204 -18 -215 -22 -18 -5 -18 -6 5 -15 80 -29 362 -14 593 33 187 38
437 123 437 148 0 6 -1 10 -2 10 -2 -1 -14 -4 -28 -6z"/>
<path d="M9395 1918 c-11 -6 -50 -33 -86 -59 -83 -61 -232 -132 -419 -199
-171 -62 -319 -129 -341 -156 -20 -23 -31 -54 -20 -54 4 0 32 13 62 29 57 31
124 58 309 123 220 78 388 167 478 253 63 61 72 94 17 63z"/>
<path d="M9383 1733 c-35 -20 -125 -90 -200 -156 -171 -149 -247 -211 -393
-320 -167 -125 -300 -266 -300 -320 0 -15 31 10 118 95 64 63 162 148 217 188
140 103 220 169 370 305 148 134 248 211 253 196 4 -12 -53 -102 -128 -201
-78 -102 -210 -304 -210 -321 0 -17 37 26 164 191 147 192 228 318 224 349 -5
40 -42 38 -115 -6z"/>
<path d="M9649 1546 c-94 -78 -448 -469 -684 -756 -120 -146 -262 -339 -296
-403 -48 -91 -17 -59 140 143 173 223 282 349 546 635 230 249 365 403 365
416 0 18 -19 8 -71 -35z"/>
</g>
</svg>
