<?xml version="1.0" standalone="no"?>
<!DOCTYPE svg PUBLIC "-//W3C//DTD SVG 20010904//EN"
 "http://www.w3.org/TR/2001/REC-SVG-20010904/DTD/svg10.dtd">
<svg version="1.0" xmlns="http://www.w3.org/2000/svg"
 width="1280.000000pt" height="1002.000000pt" viewBox="0 0 1280.000000 1002.000000"
 preserveAspectRatio="xMidYMid meet">
<metadata>
Created by potrace 1.15, written by Peter Selinger 2001-2017
</metadata>
<g transform="translate(0.000000,1002.000000) scale(0.100000,-0.100000)"
fill="#000000" stroke="none">
<path d="M885 10014 c-243 -29 -290 -48 -522 -212 -106 -75 -217 -151 -246
-167 -64 -37 -93 -89 -107 -195 -6 -48 -9 -1784 -10 -4728 l0 -4654 29 -29 29
-29 604 0 603 0 127 110 127 110 4913 0 4913 0 140 -110 140 -110 530 0 c333
0 544 4 567 10 20 6 46 22 58 37 l20 26 -2 4711 -3 4711 -25 50 c-22 44 -54
72 -272 241 -243 187 -249 191 -325 210 -76 19 -198 19 -5668 20 -3075 1
-5603 -1 -5620 -2z m11058 -798 c47 -19 84 -67 96 -126 8 -36 11 -627 11
-1980 l0 -1929 -42 -29 c-24 -15 -72 -43 -108 -61 -93 -48 -249 -153 -367
-249 -57 -46 -105 -87 -108 -93 -4 -5 -26 -9 -49 -9 -40 0 -43 2 -39 24 4 20
13 25 48 31 46 6 165 61 165 74 0 5 -21 16 -47 26 -80 30 -96 44 -89 79 4 16
40 99 81 184 41 85 73 157 71 159 -6 7 -103 -130 -149 -210 -39 -69 -44 -74
-55 -56 -7 10 -23 19 -35 19 -42 0 -150 -41 -186 -71 -20 -16 -43 -29 -52 -29
-19 0 -63 -18 -159 -64 -39 -19 -70 -31 -70 -26 0 16 30 78 72 150 24 41 50
91 58 110 18 44 18 133 1 154 -19 23 -13 25 44 16 28 -4 128 -11 223 -15 l173
-7 -53 79 c-29 44 -61 94 -70 111 -9 17 -42 50 -72 74 l-56 43 73 8 c39 5 102
18 140 31 61 20 70 21 90 8 40 -27 79 -66 90 -92 11 -24 12 -23 15 18 2 23 -5
68 -14 100 -10 31 -18 60 -19 63 0 4 26 28 58 54 32 26 55 50 53 52 -2 3 -44
0 -92 -6 l-87 -11 -38 35 c-63 57 -133 87 -202 87 -69 0 -75 -9 72 108 135
106 167 126 215 135 40 7 119 54 166 97 14 13 60 64 104 113 43 50 97 107 119
128 l40 37 -40 0 c-103 0 -283 -68 -382 -144 -33 -25 -62 -46 -64 -46 -3 0 -8
11 -11 24 -7 29 -71 115 -165 224 -40 46 -71 85 -69 87 1 2 64 32 140 68 161
77 217 123 261 216 l31 64 -22 36 c-12 20 -29 53 -39 74 -16 34 -21 38 -48 32
-58 -11 -189 -82 -215 -117 -21 -28 -25 -46 -27 -123 -3 -81 -5 -91 -30 -117
-15 -16 -43 -38 -61 -49 l-35 -20 7 28 c3 15 25 103 49 195 52 203 65 222 139
212 42 -6 57 -2 111 25 75 37 92 53 229 206 58 66 115 125 125 132 15 10 12
12 -23 12 -105 2 -294 -71 -388 -149 -50 -42 -66 -48 -66 -27 0 21 -69 117
-156 217 -99 114 -142 156 -150 147 -4 -4 -7 -53 -7 -109 0 -82 5 -120 26
-188 43 -141 96 -259 139 -303 l38 -40 -59 -166 c-33 -92 -63 -179 -67 -194
-3 -16 -13 -31 -21 -34 -8 -3 -12 -12 -8 -22 7 -18 -36 -191 -47 -191 -4 0
-22 13 -40 29 -46 40 -71 51 -113 51 -48 0 -171 -58 -224 -105 -47 -43 -141
-219 -141 -265 l0 -28 69 24 c64 22 83 24 229 22 l159 -3 -13 -50 c-7 -27 -29
-131 -48 -230 -19 -99 -35 -166 -35 -149 -3 109 -65 195 -204 280 -51 31 -113
72 -140 90 -26 19 -48 34 -50 34 -2 0 -2 -42 -2 -92 2 -158 55 -236 224 -332
54 -31 104 -63 111 -71 17 -21 7 -39 -84 -150 -41 -49 -110 -142 -153 -207
-43 -64 -82 -118 -88 -118 -5 0 -29 7 -52 16 -41 16 -43 19 -43 58 0 52 -27
96 -73 121 l-37 20 0 71 0 72 39 0 c21 0 102 22 180 47 l142 46 52 -16 c28 -9
58 -19 66 -22 8 -3 -3 20 -25 50 -21 31 -46 59 -54 63 -45 18 -274 13 -404 -9
-6 -1 -13 14 -16 33 -11 57 -35 104 -69 132 -28 24 -31 32 -31 85 0 86 -17
220 -35 274 -27 80 -87 161 -231 309 -146 150 -244 234 -358 308 -92 60 -219
112 -272 112 -42 0 -44 -2 -151 -127 -135 -158 -504 -545 -603 -633 -40 -35
-115 -111 -165 -168 l-92 -104 -6 -64 c-6 -83 -31 -121 -157 -241 -53 -51
-115 -116 -138 -145 -22 -29 -61 -70 -87 -91 l-46 -38 -67 20 c-37 11 -89 25
-117 32 -27 6 -84 25 -125 42 -58 23 -95 31 -162 35 -99 5 -90 -4 -108 112
-17 110 -14 108 -77 46 -31 -32 -87 -75 -125 -98 -74 -44 -105 -76 -114 -117
-3 -14 -12 -46 -20 -71 -7 -25 -16 -62 -19 -82 -3 -21 -9 -38 -14 -38 -4 0
-29 39 -55 86 -73 131 -161 270 -232 365 -35 48 -64 91 -64 97 0 16 52 52 150
105 132 71 214 169 225 269 16 150 16 152 -3 135 -9 -8 -75 -49 -147 -92 -71
-42 -147 -93 -168 -113 -54 -52 -89 -124 -95 -199 l-5 -62 -105 105 c-57 58
-153 141 -212 186 l-108 80 35 31 c22 20 55 72 93 151 85 175 103 232 108 356
l4 105 -73 -70 c-114 -109 -219 -226 -247 -275 -14 -25 -27 -47 -28 -49 -2 -2
-27 18 -56 44 -84 76 -215 130 -360 150 -31 4 -48 3 -48 -4 0 -6 4 -11 9 -11
5 0 54 -55 109 -123 140 -173 200 -222 292 -242 41 -9 159 -98 319 -241 2 -2
-19 -1 -46 3 -64 7 -110 -8 -195 -64 -113 -74 -181 -179 -194 -298 l-6 -60 20
31 c35 54 93 93 268 179 113 55 180 94 197 114 l26 31 100 -108 c219 -235 380
-480 450 -685 19 -53 19 -55 -5 -176 -13 -68 -30 -146 -38 -174 -8 -29 -17
-71 -21 -95 -4 -23 -11 -39 -16 -36 -6 3 -7 14 -4 24 3 10 1 21 -4 25 -7 4 -9
-1 -5 -12 3 -11 -1 -9 -13 7 -27 38 -71 79 -161 149 -45 36 -82 68 -82 72 0 9
40 59 101 124 53 58 74 110 66 169 -3 22 -33 95 -66 161 -33 66 -64 135 -68
154 l-8 35 -35 -54 c-19 -30 -52 -74 -73 -98 -58 -68 -70 -97 -65 -166 3 -48
13 -80 46 -145 24 -46 51 -106 61 -132 l19 -48 -87 44 c-48 23 -106 48 -128
54 -23 6 -56 23 -73 37 -37 32 -164 77 -190 69 -10 -3 -22 -16 -26 -28 -6 -19
-11 -14 -34 38 -31 68 -140 249 -146 242 -3 -3 14 -51 37 -108 40 -99 99 -252
99 -256 0 -13 -56 -47 -105 -63 l-62 -21 -105 78 c-109 82 -238 163 -258 163
-7 0 -35 16 -62 36 -100 74 -52 24 132 -138 162 -142 186 -167 167 -172 -44
-12 -74 -5 -107 24 -19 16 -40 29 -45 30 -6 0 -42 30 -80 68 -106 102 -246
162 -380 162 -78 0 -112 -21 -173 -107 -26 -36 -61 -82 -78 -102 -24 -27 -33
-48 -35 -83 -5 -62 13 -64 68 -7 l40 41 64 -47 c51 -38 70 -46 96 -43 26 3 32
1 28 -12 -7 -22 -35 -211 -35 -236 0 -19 4 -21 43 -17 24 2 74 -4 117 -16 41
-10 68 -20 60 -20 -9 -1 -43 6 -75 15 -33 8 -80 14 -105 12 l-45 -3 1 75 c1
41 -1 67 -3 58 -4 -17 -53 -18 -852 -18 -467 0 -863 3 -880 6 -25 5 -31 11
-31 32 0 52 -10 12 -20 -74 l-9 -89 4 110 c3 61 8 238 11 393 6 241 9 285 23
290 8 3 17 0 19 -7 8 -24 56 -73 80 -82 14 -5 34 -7 45 -3 18 6 19 11 12 63
-11 83 -10 111 9 160 19 50 13 64 -41 86 -19 8 -44 27 -57 42 -13 16 -36 35
-51 43 l-28 15 6 185 5 185 -139 133 c-155 149 -147 146 -226 83 -70 -54 -73
-55 -89 -35 -18 23 -40 62 -29 52 4 -4 78 29 165 72 291 146 589 264 1045 416
274 91 341 117 180 70 -67 -19 -90 -22 -145 -15 -36 5 -184 11 -330 15 -146 3
-291 9 -323 13 -54 7 -56 7 -41 -10 18 -20 13 -48 -16 -89 -11 -16 -16 -38
-14 -60 l3 -35 -8 33 c-7 27 -4 42 16 78 14 24 23 51 19 59 -3 8 -23 19 -45
25 -23 6 -52 22 -67 35 -46 43 -105 58 -194 52 -58 -4 -82 -2 -90 8 -6 7 -24
18 -39 25 -16 6 -51 33 -77 58 l-49 47 78 -4 c76 -3 80 -2 110 27 24 22 47 32
94 39 57 9 63 8 68 -8 10 -31 55 -59 94 -59 59 0 65 9 53 76 -8 46 -7 61 4 72
23 22 46 73 40 87 -3 8 -23 19 -45 25 -22 6 -55 24 -73 41 -61 55 -166 72
-284 44 -115 -27 -254 -76 -254 -89 0 -7 11 -25 25 -39 l26 -25 -32 -31 c-33
-33 -34 -33 -100 -7 -15 6 -15 2 0 -56 8 -35 16 -65 18 -67 1 -1 12 4 25 13
23 16 88 22 88 9 -1 -21 -20 -30 -70 -36 -50 -5 -228 -74 -254 -98 -6 -6 2
-25 20 -52 29 -41 30 -43 14 -70 -9 -15 -19 -30 -22 -33 -10 -9 -68 26 -68 41
0 37 46 129 86 175 49 53 49 58 6 36 -15 -7 -43 -17 -62 -21 -38 -7 -257 -134
-284 -164 -16 -17 -31 -19 -179 -15 -89 2 -215 6 -279 9 l-118 5 -2 -68 c-2
-90 -15 206 -18 448 -2 107 -5 175 -7 151 l-4 -43 -74 4 c-60 3 -75 0 -79 -12
-2 -8 -5 5 -6 30 -8 120 -18 -203 -21 -655 -2 -275 -4 -470 -6 -432 l-4 67
-179 0 -180 0 -2 -32 c-1 -18 -5 53 -8 157 l-6 190 -4 -300 c-2 -165 -4 -384
-4 -487 l-1 -188 -32 5 c-18 3 -49 7 -68 10 l-35 6 2 1192 c1 656 3 1170 5
1142 6 -88 9 -95 48 -95 33 0 34 -2 38 -42 2 -24 4 174 5 440 2 405 5 495 18
555 22 98 49 151 97 192 l41 35 5458 0 c4588 0 5464 -2 5491 -14z m-9928
-2319 c-22 -52 -19 -152 6 -206 11 -25 49 -84 84 -131 36 -48 65 -91 65 -95 0
-4 -33 38 -74 94 -93 127 -110 168 -104 258 5 65 23 131 33 121 3 -3 -2 -21
-10 -41z m299 -67 c-3 -25 -2 -29 4 -15 8 18 9 17 15 -7 4 -15 2 -37 -3 -50
-9 -19 -9 -18 -4 12 4 25 2 31 -5 21 -8 -12 -11 -10 -15 10 -8 30 -10 58 -7
84 l2 20 9 -20 c5 -11 7 -36 4 -55z m126 -39 c0 -14 -34 -23 -55 -15 -12 5
-16 4 -12 -3 4 -6 0 -14 -9 -17 -28 -11 -28 -7 0 19 26 24 76 35 76 16z m280
-11 c-6 -11 -13 -20 -16 -20 -3 0 -2 5 2 12 5 8 2 9 -9 5 -10 -3 -17 -2 -17 3
0 7 17 15 43 19 4 0 3 -8 -3 -19z m433 -93 l17 -32 -22 26 c-22 24 -26 25 -71
14 -30 -6 -56 -20 -68 -35 -18 -22 -19 -22 -10 -3 16 31 33 40 131 62 3 0 13
-14 23 -32z m135 -31 c-7 -6 -10 -7 -5 -2 4 6 8 21 8 36 2 25 2 25 6 1 3 -13
-1 -29 -9 -35z m-935 -11 c4 -8 2 -17 -3 -20 -6 -4 -10 3 -10 14 0 25 6 27 13
6z m524 -11 c-3 -3 -12 -4 -19 -1 -8 3 -5 6 6 6 11 1 17 -2 13 -5z m-29 -40
c-3 -14 -5 -12 -10 9 -3 19 -2 25 4 19 6 -6 8 -18 6 -28z m105 29 c-7 -2 -21
-2 -30 0 -10 3 -4 5 12 5 17 0 24 -2 18 -5z m8206 -84 c1 -17 -5 -29 -15 -33
-25 -10 -27 -2 -13 61 13 53 14 56 20 28 4 -16 7 -42 8 -56z m-8328 4 c-12
-20 -14 -14 -5 12 4 9 9 14 11 11 3 -2 0 -13 -6 -23z m-20 -60 c-4 -28 -6 -32
-9 -15 -3 22 3 52 11 52 1 0 1 -17 -2 -37z m-452 -27 c0 -14 -2 -16 -6 -6 -3
8 -10 21 -16 28 -7 9 -6 11 7 6 9 -3 16 -16 15 -28z m-59 11 c0 -2 -19 -21
-42 -42 l-43 -40 40 43 c36 39 45 47 45 39z m-130 -31 c0 -2 -12 -11 -27 -20
l-28 -17 24 20 c23 21 31 25 31 17z m458 -3 c-10 -2 -26 -2 -35 0 -10 3 -2 5
17 5 19 0 27 -2 18 -5z m189 -55 c-3 -7 -5 -2 -5 12 0 14 2 19 5 13 2 -7 2
-19 0 -25z m-370 16 c-3 -3 -12 -4 -19 -1 -8 3 -5 6 6 6 11 1 17 -2 13 -5z
m-1550 -61 c-3 -10 -5 -2 -5 17 0 19 2 27 5 18 2 -10 2 -26 0 -35z m1183 43
c0 -2 -8 -10 -17 -17 -16 -13 -17 -12 -4 4 13 16 21 21 21 13z m437 -2 c-3 -3
-12 -4 -19 -1 -8 3 -5 6 6 6 11 1 17 -2 13 -5z m-357 -7 c0 -2 -10 -12 -22
-23 l-23 -19 19 23 c18 21 26 27 26 19z m9085 -88 c23 -56 52 -106 75 -130 20
-21 34 -39 29 -39 -12 0 -190 -130 -256 -187 -33 -29 -64 -53 -68 -53 -3 0 -4
10 -1 23 3 12 -3 3 -13 -19 -27 -58 -44 -67 -36 -17 15 88 78 399 84 410 6 11
129 100 142 102 3 0 23 -40 44 -90z m-10024 34 c43 -48 53 -70 11 -25 -22 23
-42 42 -46 42 -3 0 -6 -15 -6 -33 0 -58 -65 -227 -87 -227 -2 0 4 15 15 33 27
43 62 153 62 192 0 53 15 58 51 18z m809 23 c0 -2 -8 -10 -17 -17 -16 -13 -17
-12 -4 4 13 16 21 21 21 13z m3999 -38 l25 -31 -41 24 c-27 15 -37 26 -30 31
17 11 20 10 46 -24z m-3929 19 c0 -2 -10 -12 -22 -23 l-23 -19 19 23 c18 21
26 27 26 19z m-130 -31 c0 -2 -8 -10 -17 -17 -16 -13 -17 -12 -4 4 13 16 21
21 21 13z m-100 -90 c0 -2 -8 -10 -17 -17 -16 -13 -17 -12 -4 4 13 16 21 21
21 13z m9600 -11 c0 -2 -19 -14 -42 -26 l-43 -21 24 26 c21 22 61 36 61 21z
m-10387 -140 c-3 -9 -8 -14 -10 -11 -3 3 -2 9 2 15 9 16 15 13 8 -4z m1281
-10 c-1 -5 -5 -25 -9 -43 -7 -32 -6 -33 22 -25 30 8 69 7 122 -2 28 -5 32 -10
28 -28 -20 -96 -48 -258 -58 -335 l-12 -93 -23 22 c-13 12 -26 20 -29 17 -13
-13 -15 -129 -3 -188 7 -36 12 -80 10 -98 l-3 -33 -31 43 c-43 58 -62 74 -143
114 -47 23 -84 34 -113 34 -48 0 -69 -9 -126 -54 -41 -33 -84 -38 -188 -21
-44 7 -48 6 -59 -18 -10 -22 -8 -32 14 -69 l26 -44 -57 -34 c-66 -39 -217
-182 -299 -282 l-56 -69 -49 48 -49 49 26 139 c41 222 34 207 109 229 116 33
177 116 141 190 -8 16 -15 30 -15 32 0 7 260 210 370 288 118 85 127 89 192
96 75 8 129 1 206 -28 28 -11 53 -18 56 -15 9 9 -7 78 -30 132 -13 29 -24 55
-24 58 0 2 12 3 28 1 15 -2 26 -7 26 -13z m-1297 -67 c-2 -13 -4 -5 -4 17 -1
22 1 32 4 23 2 -10 2 -28 0 -40z m10057 -116 c3 -10 28 -31 56 -47 27 -17 50
-33 50 -36 0 -3 -12 -11 -27 -18 -16 -7 -61 -36 -100 -64 -51 -37 -73 -58 -73
-73 0 -18 -7 -23 -37 -26 -21 -3 -39 -5 -40 -4 0 1 9 42 20 92 21 87 24 93 77
142 30 28 58 51 62 52 4 0 9 -8 12 -18z m-10201 -59 c-7 -2 -19 -2 -25 0 -7 3
-2 5 12 5 14 0 19 -2 13 -5z m70 -10 c-7 -2 -19 -2 -25 0 -7 3 -2 5 12 5 14 0
19 -2 13 -5z m-121 -437 c-1 -174 -6 -316 -10 -316 -4 0 -6 79 -4 175 2 117
-1 175 -8 175 -5 0 -10 -7 -10 -15 0 -11 -11 -15 -39 -15 -38 0 -39 -1 -43
-42 -3 -24 -6 -117 -7 -207 -2 -158 -1 -164 16 -150 15 11 15 10 -2 -11 -11
-14 -21 -27 -22 -29 -2 -2 -3 193 -3 433 l0 438 68 -60 67 -60 -3 -316z m205
428 c-3 -3 -12 -4 -19 -1 -8 3 -5 6 6 6 11 1 17 -2 13 -5z m132 -38 c9 -11 9
-16 -1 -22 -7 -4 -10 -4 -6 1 4 4 3 14 -3 22 -6 7 -9 13 -6 13 2 0 10 -6 16
-14z m32 -43 c13 -16 12 -17 -3 -4 -17 13 -22 21 -14 21 2 0 10 -8 17 -17z
m9634 -89 c-4 -23 -18 -46 -36 -62 -28 -23 -30 -29 -28 -82 2 -55 -1 -63 -54
-146 -32 -48 -57 -94 -57 -102 0 -11 -8 -13 -32 -8 -18 4 -48 9 -65 13 -18 3
-33 7 -33 10 0 31 285 413 308 413 2 0 1 -16 -3 -36z m-9588 -364 c-4 -16 -14
-88 -24 -160 -9 -72 -19 -129 -22 -127 -45 25 -127 59 -169 70 -29 7 -52 17
-50 22 5 17 243 225 257 225 10 0 12 -8 8 -30z m579 -90 c68 -48 144 -79 205
-86 l56 -6 -41 -69 c-22 -37 -46 -68 -53 -69 -49 -1 -121 -26 -145 -50 -45
-46 -33 -121 28 -169 15 -12 22 -21 17 -21 -6 0 -27 18 -46 39 -30 33 -43 40
-80 42 -39 3 -50 -2 -83 -31 -55 -48 -125 -90 -148 -90 -13 1 -7 6 16 14 60
22 132 83 215 184 106 128 124 158 121 206 -4 50 -17 54 -44 15 -12 -17 -48
-53 -80 -80 -65 -55 -94 -61 -160 -33 -22 10 -52 20 -67 23 l-28 6 63 66 c53
55 173 138 201 139 5 0 28 -14 53 -30z m10184 -59 c0 -61 -2 -69 -17 -65 -10
3 -53 -1 -96 -9 -42 -7 -74 -10 -70 -6 16 14 178 149 181 149 1 0 2 -31 2 -69z
m-9861 -44 c-60 -40 -58 -40 -46 -7 10 25 17 30 46 30 l34 0 -34 -23z m4187
-40 c48 -18 127 -58 169 -86 l30 -21 -35 6 c-55 9 -255 -23 -307 -49 -75 -37
-83 -41 -83 -49 0 -5 15 -8 33 -8 61 -1 113 -34 142 -89 25 -50 87 -121 135
-154 23 -16 22 -16 -8 0 -42 23 -81 64 -129 136 l-38 59 -98 1 c-58 1 -97 -2
-97 -8 0 -5 39 -50 88 -99 l87 -90 -91 84 -91 84 -22 109 c-13 60 -21 109 -19
110 1 1 31 21 65 45 95 65 136 68 269 19z m-5536 20 c0 -2 -15 -16 -32 -33
l-33 -29 29 33 c28 30 36 37 36 29z m5103 -94 l44 -5 10 -64 c5 -35 7 -64 5
-64 -2 0 -34 29 -71 64 -36 35 -82 77 -101 94 l-35 31 52 -26 c29 -14 72 -28
96 -30z m-172 30 c13 -16 12 -17 -3 -4 -10 7 -18 15 -18 17 0 8 8 3 21 -13z
m94 -156 c122 -108 160 -148 161 -167 1 -22 0 -22 -3 -3 -2 13 -29 43 -58 69
l-54 46 -172 -2 -172 -1 -34 -29 c-64 -57 -190 -106 -249 -97 -27 4 -27 4 6 6
81 3 189 52 244 110 16 17 33 28 37 25 4 -2 11 1 15 7 5 8 3 9 -6 4 -9 -6 -10
-2 -4 16 5 13 7 52 6 86 -2 69 -1 70 78 72 44 1 48 -2 205 -142z m-3516 111
c-1 -13 -4 -33 -7 -45 -7 -21 -8 -21 -57 15 l-49 37 49 6 c28 3 53 7 58 7 4 1
7 -8 6 -20z m8811 -26 c20 -9 57 -32 82 -51 52 -38 52 -33 17 -140 -17 -50
-18 -40 -4 22 6 22 4 22 -83 22 l-88 0 43 -28 c24 -16 43 -30 43 -32 0 -2 -30
12 -66 31 -36 19 -78 34 -94 34 -25 0 -31 5 -41 40 -15 49 -25 51 -33 7 -6
-31 -8 -33 -41 -29 -31 4 -35 7 -35 33 0 32 -3 31 130 80 88 33 122 35 170 11z
m-881 -18 c7 -7 -59 -214 -68 -214 -4 1 -17 10 -30 21 -24 20 -24 21 -12 82 7
34 19 77 26 94 13 30 17 32 47 26 18 -3 35 -7 37 -9z m-9509 -98 c0 -2 -8 -10
-17 -17 -16 -13 -17 -12 -4 4 13 16 21 21 21 13z m169 -80 l29 6 -14 -51 c-7
-28 -16 -89 -20 -136 -6 -81 -8 -84 -35 -94 l-28 -10 -3 149 -3 148 22 -9 c13
-5 36 -6 52 -3z m10406 -15 c-16 -16 -31 -28 -32 -27 -1 0 1 13 4 29 4 21 11
27 32 27 l26 0 -30 -29z m632 -23 c-3 -8 -6 -5 -6 6 -1 11 2 17 5 13 3 -3 4
-12 1 -19z m70 -220 c-1 -46 -3 -9 -3 82 0 91 2 128 3 83 2 -46 2 -120 0 -165z
m-10117 217 c0 -8 -4 -15 -10 -15 -5 0 -7 7 -4 15 4 8 8 15 10 15 2 0 4 -7 4
-15z m9175 -2 c-57 -17 -74 -29 -85 -58 -9 -20 -9 -20 -9 0 -1 29 74 73 124
74 11 0 -2 -7 -30 -16z m918 10 c-7 -2 -19 -2 -25 0 -7 3 -2 5 12 5 14 0 19
-2 13 -5z m-10284 -50 c2 -2 0 -3 -5 -3 -5 0 -22 12 -39 26 l-30 26 35 -23
c19 -12 37 -24 39 -26z m349 27 c40 -7 69 -17 65 -20 -10 -10 -143 11 -143 21
0 5 -7 5 -17 2 -11 -4 -14 -3 -9 6 5 7 13 10 20 8 6 -2 44 -10 84 -17z m9342
-5 c0 -8 -4 -14 -9 -12 -13 3 -129 -93 -134 -112 -4 -14 -5 -14 -6 0 -1 12
130 135 147 139 1 0 2 -7 2 -15z m-9897 -2 c-12 -2 -24 -12 -26 -21 -3 -12 -5
-10 -6 6 -1 18 4 22 27 21 22 -1 23 -2 5 -6z m366 3 c-2 -2 -38 -6 -79 -9 -44
-3 -63 -2 -45 3 30 8 132 13 124 6z m9336 -28 c-4 -14 -34 -48 -68 -77 l-62
-53 57 54 c31 30 60 66 63 81 4 16 9 26 12 24 2 -3 1 -16 -2 -29z m752 -60
c-2 -18 -4 -4 -4 32 0 36 2 50 4 33 2 -18 2 -48 0 -65z m-10313 67 c4 -11 -2
-15 -22 -14 -17 1 -20 3 -9 6 9 2 17 9 17 14 0 14 7 11 14 -6z m1533 -92 c-2
-21 -4 -6 -4 32 0 39 2 55 4 38 2 -18 2 -50 0 -70z m2633 78 c-39 -12 -85 -38
-100 -56 -8 -10 -17 -38 -21 -64 l-6 -46 -2 41 c-1 28 6 50 20 68 24 31 85 65
114 65 16 -1 15 -2 -5 -8z m86 -13 c19 -23 19 -23 -1 -7 -11 10 -29 19 -40 22
-19 4 -19 5 1 6 11 0 29 -9 40 -21z m-4313 5 c-7 -2 -21 -2 -30 0 -10 3 -4 5
12 5 17 0 24 -2 18 -5z m4424 -40 c-3 -10 -5 -2 -5 17 0 19 2 27 5 18 2 -10 2
-26 0 -35z m-4477 34 c-10 -9 -70 -16 -70 -9 0 4 17 9 37 10 21 2 35 1 33 -1z
m4563 -37 c-7 -27 -10 -25 -15 10 -3 22 -2 27 8 19 6 -5 10 -19 7 -29z m675
-17 c-1 -52 -2 -53 -5 -15 -4 39 -6 42 -21 30 -12 -9 -11 -6 3 14 11 15 21 28
23 28 1 0 1 -26 0 -57z m4629 35 c-3 -8 -6 -5 -6 6 -1 11 2 17 5 13 3 -3 4
-12 1 -19z m-7617 8 c0 -2 -9 -6 -20 -9 -11 -3 -18 -1 -14 4 5 9 34 13 34 5z
m75 -26 c10 -11 16 -20 13 -20 -3 0 -13 9 -23 20 -10 11 -16 20 -13 20 3 0 13
-9 23 -20z m7142 -47 c-2 -16 -4 -5 -4 22 0 28 2 40 4 28 2 -13 2 -35 0 -50z
m-7267 54 c0 -2 -10 -12 -22 -23 l-23 -19 19 23 c18 21 26 27 26 19z m2234
-55 c-5 -10 -33 14 -43 36 l-12 26 28 -29 c16 -17 28 -31 27 -33z m191 18 c21
-22 37 -40 34 -40 -3 0 -23 18 -44 40 -21 22 -37 40 -34 40 3 0 23 -18 44 -40z
m5259 14 c3 -8 2 -12 -4 -9 -6 3 -10 10 -10 16 0 14 7 11 14 -7z m-5119 -44
c27 -27 47 -50 44 -50 -3 0 -27 23 -54 50 -27 28 -47 50 -44 50 3 0 27 -22 54
-50z m-2922 33 c-13 -2 -35 -2 -50 0 -16 2 -5 4 22 4 28 0 40 -2 28 -4z m2647
-13 c0 -14 -6 -20 -22 -19 -17 1 -19 2 -5 6 9 2 17 11 17 19 0 8 2 14 5 14 3
0 5 -9 5 -20z m487 14 c-3 -3 -12 -4 -19 -1 -8 3 -5 6 6 6 11 1 17 -2 13 -5z
m190 0 c-3 -3 -12 -4 -19 -1 -8 3 -5 6 6 6 11 1 17 -2 13 -5z m-3419 -11 c-10
-2 -26 -2 -35 0 -10 3 -2 5 17 5 19 0 27 -2 18 -5z m155 0 c-7 -2 -19 -2 -25
0 -7 3 -2 5 12 5 14 0 19 -2 13 -5z m1780 0 c-7 -2 -19 -2 -25 0 -7 3 -2 5 12
5 14 0 19 -2 13 -5z m1340 0 c-7 -2 -19 -2 -25 0 -7 3 -2 5 12 5 14 0 19 -2
13 -5z m100 0 c-7 -2 -21 -2 -30 0 -10 3 -4 5 12 5 17 0 24 -2 18 -5z m4271
-9 c3 -8 2 -12 -3 -9 -5 3 -12 1 -15 -4 -4 -5 2 -12 11 -14 11 -3 7 -5 -10 -6
-28 -1 -28 -1 -10 24 22 29 20 29 27 9z m-7707 0 c-3 -3 -12 -4 -19 -1 -8 3
-5 6 6 6 11 1 17 -2 13 -5z m1906 -1 c-13 -2 -35 -2 -50 0 -16 2 -5 4 22 4 28
0 40 -2 28 -4z m160 0 c-7 -2 -21 -2 -30 0 -10 3 -4 5 12 5 17 0 24 -2 18 -5z
m819 -22 c2 -17 1 -28 -4 -25 -8 5 -12 54 -4 54 2 0 6 -13 8 -29z m5454 -57
l59 -25 -45 7 c-24 4 -59 17 -76 30 -17 13 -37 24 -44 24 -7 0 -10 3 -7 7 4 3
-1 15 -10 27 -10 11 0 5 23 -13 23 -18 68 -43 100 -57z m-6553 69 c-13 -2 -33
-2 -45 0 -13 2 -3 4 22 4 25 0 35 -2 23 -4z m365 0 c-10 -2 -28 -2 -40 0 -13
2 -5 4 17 4 22 1 32 -1 23 -4z m6599 -55 c-2 -13 -4 -3 -4 22 0 25 2 35 4 23
2 -13 2 -33 0 -45z m-8417 42 c8 -5 11 -10 5 -10 -5 0 -17 5 -25 10 -8 5 -10
10 -5 10 6 0 17 -5 25 -10z m1363 3 c-7 -2 -21 -2 -30 0 -10 3 -4 5 12 5 17 0
24 -2 18 -5z m520 0 c-7 -2 -21 -2 -30 0 -10 3 -4 5 12 5 17 0 24 -2 18 -5z
m5814 -15 c-3 -8 -6 -5 -6 6 -1 11 2 17 5 13 3 -3 4 -12 1 -19z m-6414 5 c-7
-2 -21 -2 -30 0 -10 3 -4 5 12 5 17 0 24 -2 18 -5z m680 0 c-7 -2 -21 -2 -30
0 -10 3 -4 5 12 5 17 0 24 -2 18 -5z m777 -80 c0 -8 -9 0 -50 45 l-45 47 48
-45 c26 -24 47 -45 47 -47z m5115 80 c-16 -3 -40 -14 -52 -25 -13 -12 -30 -18
-45 -15 -22 4 -22 4 3 6 14 0 34 10 44 21 12 13 29 19 49 19 l31 -2 -30 -4z
m-6642 -10 c-7 -2 -21 -2 -30 0 -10 3 -4 5 12 5 17 0 24 -2 18 -5z m820 0 c-7
-2 -21 -2 -30 0 -10 3 -4 5 12 5 17 0 24 -2 18 -5z m1120 0 c-7 -2 -21 -2 -30
0 -10 3 -4 5 12 5 17 0 24 -2 18 -5z m4330 0 c-7 -2 -19 -2 -25 0 -7 3 -2 5
12 5 14 0 19 -2 13 -5z m-6345 -10 c-10 -2 -26 -2 -35 0 -10 3 -2 5 17 5 19 0
27 -2 18 -5z m970 0 c-10 -2 -26 -2 -35 0 -10 3 -2 5 17 5 19 0 27 -2 18 -5z
m-1035 -10 c-7 -2 -21 -2 -30 0 -10 3 -4 5 12 5 17 0 24 -2 18 -5z m-70 -10
c-7 -2 -21 -2 -30 0 -10 3 -4 5 12 5 17 0 24 -2 18 -5z m2221 -16 c4 5 6 4 5
-2 -2 -5 2 -20 10 -33 7 -13 10 -28 7 -35 -2 -7 -5 -4 -5 5 -1 10 -16 34 -33
55 -18 21 -23 30 -12 20 11 -9 24 -14 28 -10z m-2291 6 c-7 -2 -19 -2 -25 0
-7 3 -2 5 12 5 14 0 19 -2 13 -5z m-70 -10 c-7 -2 -19 -2 -25 0 -7 3 -2 5 12
5 14 0 19 -2 13 -5z m-56 -9 c-3 -3 -12 -4 -19 -1 -8 3 -5 6 6 6 11 1 17 -2
13 -5z m1803 -14 c6 -11 8 -20 6 -20 -3 0 -10 9 -16 20 -6 11 -8 20 -6 20 3 0
10 -9 16 -20z m256 -12 l29 -33 -32 29 c-31 28 -38 36 -30 36 2 0 16 -15 33
-32z m5457 25 c-7 -2 -19 -2 -25 0 -7 3 -2 5 12 5 14 0 19 -2 13 -5z m64 1
c-3 -3 -12 -4 -19 -1 -8 3 -5 6 6 6 11 1 17 -2 13 -5z m-7650 -10 c-3 -3 -12
-4 -19 -1 -8 3 -5 6 6 6 11 1 17 -2 13 -5z m7558 -4 c16 -7 11 -9 -20 -9 -29
-1 -36 2 -25 9 17 11 19 11 45 0z m-7668 -16 c-3 -3 -12 -4 -19 -1 -8 3 -5 6
6 6 11 1 17 -2 13 -5z m2036 -1 c-7 -2 -19 -2 -25 0 -7 3 -2 5 12 5 14 0 19
-2 13 -5z m367 -13 c-6 -11 -13 -20 -16 -20 -2 0 0 9 6 20 6 11 13 20 16 20 2
0 0 -9 -6 -20z m5398 13 c-10 -2 -28 -2 -40 0 -13 2 -5 4 17 4 22 1 32 -1 23
-4z m-7855 -10 c-7 -2 -19 -2 -25 0 -7 3 -2 5 12 5 14 0 19 -2 13 -5z m2154 1
c-3 -3 -12 -4 -19 -1 -8 3 -5 6 6 6 11 1 17 -2 13 -5z m58 -4 c3 -5 1 -10 -4
-10 -6 0 -11 5 -11 10 0 6 2 10 4 10 3 0 8 -4 11 -10z m-2352 -7 c-7 -2 -19
-2 -25 0 -7 3 -2 5 12 5 14 0 19 -2 13 -5z m70 0 c-7 -2 -19 -2 -25 0 -7 3 -2
5 12 5 14 0 19 -2 13 -5z"/>
<path d="M10458 8735 c-6 -13 -20 -27 -32 -33 -11 -5 -45 -20 -74 -33 -83 -36
-112 -86 -77 -136 8 -11 17 -39 21 -62 4 -22 10 -41 15 -41 5 0 9 5 9 10 0 6
11 8 26 4 24 -6 25 -5 15 15 -7 12 -8 21 -2 21 5 0 18 -17 28 -38 14 -29 24
-39 43 -39 14 -1 37 -4 53 -8 20 -6 27 -4 27 8 0 8 -7 20 -16 27 -8 8 -14 25
-12 39 5 41 40 39 84 -4 37 -38 60 -42 77 -14 8 12 6 27 -8 54 -14 31 -15 44
-7 73 6 20 9 39 6 44 -9 15 -44 8 -75 -14 l-29 -22 -26 26 -26 25 24 6 c27 7
61 77 47 98 -4 8 -25 14 -44 15 -29 1 -39 -4 -47 -21z"/>
<path d="M4011 8649 c-13 -5 -31 -7 -40 -5 -10 3 -23 -7 -36 -27 -15 -23 -50
-47 -129 -87 -149 -75 -180 -122 -104 -155 18 -7 46 -30 62 -51 23 -29 30 -34
37 -21 5 8 26 18 46 22 l38 7 -25 14 c-25 15 -24 15 10 9 19 -4 48 -16 63 -27
24 -16 33 -18 55 -9 15 6 48 11 73 10 25 -1 51 1 58 5 15 10 4 26 -18 26 -10
0 -26 9 -37 21 -18 20 -18 21 1 36 20 14 43 14 181 -3 89 -10 127 31 59 63
-38 18 -50 41 -41 79 6 22 3 24 -29 24 -24 0 -52 -11 -86 -35 -57 -39 -59 -39
-109 -20 l-35 13 31 12 c36 13 70 80 51 99 -13 13 -43 13 -76 0z"/>
<path d="M2041 8619 c-14 -5 -30 -8 -37 -5 -7 3 -22 -10 -34 -29 -12 -19 -39
-42 -63 -53 -135 -62 -171 -83 -208 -118 -16 -15 -29 -36 -29 -45 0 -20 36
-49 60 -49 8 0 30 -21 49 -46 32 -42 35 -44 43 -25 5 16 16 21 43 21 37 0 47
13 19 24 -9 4 -14 9 -11 13 9 8 68 -16 93 -39 19 -17 24 -17 55 -4 21 9 52 12
84 9 38 -4 54 -2 63 10 11 13 8 16 -18 22 -16 4 -37 16 -45 28 -13 18 -13 23
-1 36 23 22 111 27 140 7 44 -28 146 -17 159 18 4 10 -7 22 -36 38 -39 22 -42
26 -43 68 0 42 -2 45 -30 48 -21 2 -45 -7 -80 -31 -66 -46 -84 -50 -129 -31
l-39 16 31 13 c33 14 69 76 59 102 -6 15 -60 16 -95 2z"/>
<path d="M11075 8438 c-11 -18 -31 -35 -45 -38 -57 -16 -120 -52 -141 -81
l-22 -32 21 -41 c11 -23 24 -58 28 -79 5 -28 10 -35 17 -28 6 6 22 11 35 11
21 0 23 2 12 15 -7 9 -10 18 -8 21 8 7 48 -46 48 -64 0 -10 7 -13 22 -9 11 3
34 -1 49 -8 34 -18 47 -4 25 27 -51 72 23 103 81 34 25 -29 54 -34 72 -12 10
11 9 22 -5 47 -12 24 -15 46 -11 81 7 60 -7 70 -56 39 -44 -27 -58 -26 -80 4
-17 24 -17 25 2 25 14 0 27 13 41 39 23 46 18 71 -15 71 -13 0 -29 2 -37 5 -7
2 -22 -10 -33 -27z"/>
<path d="M4570 8339 c-14 -6 -37 -8 -51 -5 -21 4 -28 -1 -44 -30 -19 -35 -60
-66 -105 -79 -40 -12 -113 -46 -142 -66 -14 -11 -32 -19 -40 -19 -19 0 -88
-72 -88 -92 0 -19 43 -56 74 -64 12 -3 37 -28 56 -55 39 -54 45 -58 53 -29 4
16 14 20 51 20 53 0 57 8 19 32 -35 22 -12 23 47 2 24 -8 50 -24 58 -36 12
-16 21 -18 46 -13 17 4 66 8 108 9 59 1 82 5 95 19 16 16 16 17 -1 17 -27 0
-84 29 -90 47 -4 9 1 24 10 34 23 26 148 27 183 3 50 -36 181 -13 181 31 0 8
-18 24 -40 35 -49 25 -62 49 -58 103 l3 42 -39 -2 c-25 -2 -64 -17 -106 -43
-75 -46 -91 -48 -151 -21 -36 17 -40 21 -24 26 54 17 65 27 85 72 20 45 20 48
4 60 -21 15 -59 16 -94 2z"/>
<path d="M2944 8114 c-24 -44 -43 -57 -143 -93 -142 -52 -251 -122 -251 -162
0 -20 42 -57 74 -65 12 -3 39 -31 61 -62 29 -42 41 -52 43 -39 4 21 40 37 85
37 l32 1 -27 17 c-24 14 -37 32 -24 32 19 0 114 -53 123 -69 11 -18 16 -19 40
-9 16 7 69 12 118 12 71 1 90 4 90 15 0 8 -14 18 -31 23 -37 9 -69 42 -60 63
14 38 119 47 181 15 57 -29 113 -35 158 -17 48 21 48 46 1 72 -52 28 -67 56
-59 105 5 31 3 41 -8 46 -21 8 -95 -14 -126 -36 -14 -11 -42 -26 -61 -34 -32
-13 -39 -12 -90 9 -33 14 -49 25 -40 28 8 3 28 9 44 14 22 7 35 22 52 60 l22
51 -29 12 c-22 9 -40 9 -79 0 -37 -9 -54 -9 -64 -1 -10 8 -17 3 -32 -25z"/>
<path d="M2320 6943 c0 -11 37 -43 51 -43 4 0 9 8 11 18 4 15 1 18 -19 14 -15
-3 -29 1 -34 9 -6 9 -9 10 -9 2z"/>
<path d="M4305 6940 c-13 -6 -15 -9 -5 -9 8 0 22 4 30 9 18 12 2 12 -25 0z"/>
<path d="M6771 5919 c-73 -5 -76 -7 -114 -50 -65 -73 -66 -80 -7 -58 28 10 62
19 75 19 14 0 87 -21 162 -46 177 -60 204 -57 365 48 60 39 62 42 38 49 -14 4
-45 7 -70 8 -25 1 -97 7 -160 15 -158 20 -203 22 -289 15z"/>
<path d="M11622 4960 c0 -19 2 -27 5 -17 2 9 2 25 0 35 -3 9 -5 1 -5 -18z"/>
<path d="M11350 4765 c0 -11 10 -15 33 -14 l32 2 -30 5 c-26 4 -28 5 -10 12
19 8 19 9 -2 9 -14 1 -23 -5 -23 -14z"/>
<path d="M2398 6783 c7 -3 16 -2 19 1 4 3 -2 6 -13 5 -11 0 -14 -3 -6 -6z"/>
<path d="M840 5400 c0 -5 5 -10 10 -10 6 0 10 5 10 10 0 6 -4 10 -10 10 -5 0
-10 -4 -10 -10z"/>
<path d="M1841 4794 c0 -11 3 -14 6 -6 3 7 2 16 -1 19 -3 4 -6 -2 -5 -13z"/>
<path d="M10181 4764 c0 -11 3 -14 6 -6 3 7 2 16 -1 19 -3 4 -6 -2 -5 -13z"/>
<path d="M10231 4764 c0 -11 3 -14 6 -6 3 7 2 16 -1 19 -3 4 -6 -2 -5 -13z"/>
<path d="M10170 4722 c0 -11 8 -27 19 -36 18 -16 19 -16 30 15 6 18 11 34 11
35 0 2 -13 4 -30 4 -22 0 -30 -5 -30 -18z"/>
</g>
</svg>
