<svg version="1.0" xmlns="http://www.w3.org/2000/svg" width="1706.667" height="1386.667" viewBox="0 0 1280 1040"><path d="M811.5.9c-.3.5-.4 4.1-.3 7.9.4 8.3-.8 10.2-6.2 10.2-4.5 0-9.5-2-16.6-6.5-7.5-4.8-13.5-7.7-14.2-7-1.6 1.6 17.1 15.2 26 18.9 4.8 2.1 8.7-.1 14.6-8.1l4.7-6.5.5 7.6c.7 9.6 4 14.7 11.9 18.8 4.9 2.6 6.2 2.8 16.2 2.8 10.4 0 10.9.1 10.9 2.1 0 3.2-6.6 12.4-13.3 18.5-6.4 5.7-8 7-27.7 21.6-12.1 9-21.3 17.9-19.2 18.6.7.2 4.7-2.3 9-5.6 4.2-3.2 11.9-8.7 17.1-12.1 12.9-8.5 21.4-15.5 27.2-22.6 6.4-7.9 8.6-12.7 10.1-22.6l1.3-8.2 5.3 9.6C876 51.3 877 52 888.4 52c5 0 9.7.4 10.5.9 3.8 2.4-5.7 13.5-19.3 22.5-4.5 2.9-12.6 8.3-18.1 11.9-5.5 3.6-11.3 7.9-12.9 9.6-9.7 10.2 20.3-7.4 38.2-22.4 12.9-10.7 18.8-18.5 17.9-23.2-.2-1.4.3-3.3 1.3-4.5 1.7-2.1 1.7-2.1 2.7-.2.6 1 1.4 4.8 1.7 8.3.8 7.3 2.2 10.5 6.1 14.1 2.5 2.3 3.3 2.5 12.1 2.3 6.5-.2 9.4.1 9.4.9 0 4.1-11.3 13.3-27.1 21.9-13.3 7.3-21.9 12.9-21.9 14.4 0 2 4.7.4 15.8-5.6C927.8 90.6 943 76.8 943 68c0-2.5 2.7-8 3.9-8 1.6 0 2.1 3 2.1 11.4 0 11.8 1 13.9 8.2 17.8 8.3 4.4 8.9 6 4.1 10.4-4.4 4-14.6 9.4-17.8 9.4-2.9 0-7 1.4-19 6.6-13.8 5.9-18.5 6.9-24.4 4.9-6.9-2.2-31.4-6.2-50.1-8-9.1-.8-31.1-2-49-2.5-42-1.1-49-2.2-49-7.7 0-2.9 3.8-12 13-30.8 12.2-25 13.4-28.7 13.5-39.2 0-7.9-.1-8.4-5.9-19.7-5.6-11.2-6.6-12.3-10-11-2.7 1-1.8 3.7 3.5 10.7 4.2 5.4 5.3 7.6 5.7 11.6.3 4 .1 5.2-1.7 7-3.7 3.7-10.6 2.2-15.3-3.2-2.5-3-2.8-3.1-4.3-1.5-1.9 1.7-1.9 2.4-1.5 22.3.2 11.1-.1 13.1-3.5 26-3 11.6-3.6 15.1-3.1 20.2.6 7.1.6 7.1-7.3 5.2-2.4-.5-13.5-1.3-24.6-1.7-23.9-.9-24.2-1-28.7-11-8.9-19.6-24.3-35.7-38.5-40.2C627 41.9 568.7 35 542 35c-5.1 0-11.9.8-16.9 2-4.6 1.1-16.7 3.6-27 5.6-10.2 1.9-21.2 4.2-24.4 5-17.3 4.5-31.7 11.6-44.8 22.2-10.9 8.8-16 11.6-20.1 10.6l-3.1-.6 2.4 3.3c6.5 9.1-1.3 18.9-15 18.9-7.9 0-15.4 1.7-18.6 4.1-4 3.2-3.2 4.6 3.3 5.9 14.8 2.8 15.8 3.7 14.7 15-.9 9.5-3.2 16.6-7.6 23.9-2.3 3.8-3.9 7.7-3.9 9.6 0 1.7-.7 4-1.5 5.1-1.4 1.9-1.5 1.9-5.7-.5-12.6-6.9-11.8-6.6-22.3-6.6-12 0-16.5 1.7-16.5 6.4 0 3.6-2.3 5.6-9.5 8.1-11.1 3.8-31.5 16.2-31.5 19.2 0 1.4 8.4.6 23.4-2.3 12.3-2.4 22-2.7 37.6-1.2 10.5.9 14.3 2.2 20.5 6.8 4.2 3.2 7.2 3.9 10.4 2.5 5.3-2.1 6.6-10 3.1-17.8-1.8-4.1-3.8-5.8-5.9-5-.5.1.4 3 2 6.4 2.4 5 2.8 6.6 2 8.7-1.5 3.9-6.4 3.6-14.5-.8-3.5-2-9.7-4.3-13.7-5.1-10.8-2.3-28.5-2.1-38.9.5-4.5 1.2-8.7 2.1-9.3 2.1-2.1 0 2.8-4.1 8-6.7 4.9-2.3 6.7-2.6 16.6-2.7l11.2-.1-.3-6.1c-.2-5 .1-6.4 1.8-7.9 3.1-2.8 9.5-1.5 18.8 3.9 9 5.3 11.1 5.5 22 2.6 15.3-4.1 34.2-3.6 64.4 1.5 7.9 1.3 19.4 2.7 25.6 3.1 6.2.4 11.5 1.1 11.8 1.5.9 1.5-4.4 4.1-16.3 8-6.4 2.1-15.4 5.7-20 8-8.5 4.2-17.3 11-17.3 13.4 0 3.3 3.8 3.7 27.1 3 26.7-.9 26.1-1 51.4 8.5 19.4 7.3 30.2 10.6 31.2 9.7 1-1.1-3.8-7.6-13.1-17.7-4.8-5.2-9.4-11.2-10.4-13.2-2.1-4.5-3.9-5.2-18.7-7.3-12.4-1.7-14.2-2.7-10.5-5.7 2.3-1.9 3.4-2 17-1.5 8 .3 29.6 2.4 48 4.7 43.6 5.3 51.7 5.3 71.6.6 17.8-4.2 27.3-5.8 49.9-8.6 21.4-2.7 38.2-6.3 46-10 16.7-8 38.5-30.9 38.5-40.6 0-5.9 2.4-6.9 18.3-7.3 40.1-.9 96.1 7.4 147 21.9 68.4 19.5 113.8 42.6 166.4 84.7 42.8 34.1 76 72.6 107.9 124.8 35.6 58.5 55.4 114.9 62 176.7 1.2 11.9 1.5 21.2 1.1 41.8-.8 38.7-4.8 63-15.8 96-12.4 37.4-24.8 60.5-48.2 89.5-39.8 49.6-76.1 71.6-157.7 95.6-25.7 7.5-30.2 10.1-49.1 27.6-39.6 36.4-75.9 76.5-107.2 118.4-14.1 19-24.3 30-30 32.8-5.8 2.8-12.8 2.7-19.3-.3-9-4.2-12.4-13.2-9.9-26.6.8-4.1 2.1-11.3 3-16 2.2-12 1.5-16.3-6.9-39.3-4.8-13-4.7-16.4.8-31.3 2.5-6.6 5-14.1 5.7-16.7 1.1-4.5 1-5-1.2-7.4-3.4-3.6-11.7-9.1-24.2-15.8-17.2-9.4-19.9-12.3-24.7-27-3.8-11.6-6.1-13.2-34.2-23.9-12.7-4.9-20.4-10-25.9-17.2-5.6-7.3-9.8-9.7-22.9-12.8-11.5-2.7-14.5-4.5-17.7-10.2-3.7-6.7-9.5-27.2-9.7-34.2-.1-5.8.2-6.6 2.7-8.7 4.3-3.8 9-4.7 27.2-5.2 32-1 86.6 6.2 130.5 17.2 23.6 5.9 33.4 7 62.5 7 20.1-.1 28.7-.5 38-1.9 27.3-4.2 51.5-12.2 64.3-21.3 18.9-13.4 42.1-41.2 53.7-64.2 13.5-27 16.2-57.3 7.3-83.6-3.3-9.7-11.3-24.3-18.5-34-11.9-15.9-36.8-38.8-52.1-48-3.9-2.3-6.7-4.7-7.4-6.4-.7-1.9-.5-6.6.7-17.1 4.2-35.7 2.6-69.5-4.2-88-9.1-25.1-46.6-52.9-79.8-59.1-8.7-1.6-102.6-2.4-121.6-1-8.3.6-15.9 1.6-16.9 2.1-2.7 1.4-3.4 8.3-2.3 21.2 1.2 13 1.7 13.8 12.2 17.3 7.4 2.5 25.8 6.1 26.7 5.2.3-.3-3.2-1.7-7.8-3.2-27.7-9.2-32.2-17.2-14.2-25.2l3.9-1.7-6.1-.6c-3.4-.3-6.8-1.1-7.7-1.9-2.6-2.1-2.1-5 1.1-6.2 5.1-2 54.5-3.2 82.7-2 36.6 1.6 51.3 3.8 70.7 10.5 19.6 6.8 25 11.6 28.8 25.7 1.8 6.9 2.2 10.2 1.8 18.1-.4 8.4-.9 10.5-4 17-4.3 8.9-10.4 17.1-19.8 26.3-8.5 8.4-9.4 8-8.5-4 1.4-20.8 1.8-55.2.6-60.2-2.3-9.5-8-12.6-21.9-12.1l-7.7.3 7.5 1.9c15.1 3.8 22 8.8 22 15.8 0 4.5-3.9 3.7-10.3-2.2-10-9.1-23.5-12.9-35.6-10-6.1 1.4-7.2 2.7-4.3 5.1 1.2.9 2.2 1.9 2.2 2.1 0 .2-3.6.2-8 0-8.8-.4-17.9 1.2-32.5 5.9-11.7 3.8-13.8 5.2-6.5 4.3 15.3-1.8-4.9 4.9-89.7 29.8l-28.1 8.3-.6 27.8c-.6 26.7-1.6 37.1-3.7 35-2.1-2.1-3.1-14.3-3.3-39.3l-.1-26.4 14.6-3.7c8-2 15.9-4.4 17.5-5.2l2.9-1.6-3-.1c-7.5 0-28.9 6.6-31.9 9.9-1.7 1.9-3.8 11.9-5.1 24.2l-.6 6.6-26.7.6c-38.2.9-103.5 6.1-127.2 10.2-10.4 1.8-10 1.8-10 .1 0-2.1 6.1-7.1 14.3-11.6 3.9-2.2 8.3-4.9 9.7-6l2.5-2h-3.1c-4.7 0-15.9 6.1-24.9 13.5-4.4 3.6-10 7.7-12.5 8.9-19.7 10.1-59 14.4-122.5 13.3-45.9-.8-58.7-2.6-75.4-10.8-7.2-3.5-10.2-5.9-20.5-16.1-8.4-8.3-11.3-11.8-9.6-11.3 1.4.4 7.7.9 14 1.2 9.8.4 13 .2 20.3-1.7 12.3-3 20.8-6.8 32.8-14.3 28.9-18 44.3-23 89.2-28.7 12.4-1.5 16-.7 28.4 6.4 11.5 6.5 23 12 27.6 13 2.4.6 2.7.4 2.7-1.9 0-7-10-18.8-23.9-28.4-12.3-8.4-28-22.1-50.8-44.3-34.6-33.7-49.7-46.7-60.9-52.1-16.5-8.1-44.2-14.5-73.3-16.8-8.3-.7-15.1-1.6-15.1-2.1 0-1.5 7.8-5.9 13.1-7.4 3.6-1 10.1-1.5 19.4-1.5 14.5 0 19.8.9 33.5 5.9 3 1.1 5.7 1.9 5.9 1.6 2-1.9-15.4-11.4-20.9-11.4-3.6 0-6-1.9-6-4.7 0-7.3 14.9-20.6 20.7-18.5 1.7.6 3.2 6.3 2.2 8.3-1.1 2.2-6.1 3.9-11.3 3.9-7.9 0-6.9 1.6 2.1 3.5 13.5 2.8 17.8 5.5 36 22.6 13.6 12.8 21.6 17.4 30.2 17.3 3.1 0 7-.8 8.6-1.7 5-2.6 11.2-9.7 16.3-18.9l4.9-8.8.7 9.3c1 14.8 3.6 20.6 10.9 24.8 3.3 1.8 5 2.1 10.3 1.6 7.8-.6 13-3.4 20.1-10.9 6.7-7.2 10.6-15.1 14.4-29.7l3.2-12.1h5.1c2.8 0 29.2.7 58.6 1.5 67.8 1.9 78.5 2.9 87.6 8.1 6.1 3.5 8.9 7.4 16 22.2 3.5 7.3 7.8 15.2 9.6 17.5 5 6.4 9.3 9.2 11.8 7.7 1.8-1.1-2.1-11.6-11.5-31-11.4-23.1-16.9-28-36.1-31.7-7.6-1.4-18.5-1.7-76.3-2.2l-67.4-.6-5.3-8.9c-3-4.9-6.2-9.5-7.1-10.3-2.6-2-12.6-1.1-19.2 1.8-3 1.2-8.6 4.7-12.5 7.6-8.1 6.2-9.9 6.4-25 3.3-13.7-2.8-33-4.1-48.7-3.4-19.7 1-19.9.7-15.4-16.2 2.9-10.4 2.5-12.9-2.3-14-1.5-.3-3.2-.7-3.9-.9-2.7-.8-15.1 2.7-23.7 6.8-13.6 6.5-23.5 16.7-16 16.7 4.2 0 2.3 2.3-3.4 4.2-3.2 1.1-10.9 2.1-19.6 2.7-16.3 1-21.2 2.6-26.3 8.4-4 4.6-4.8 8.6-3.8 20.6.9 12.1.8 15-.6 16.7-.6.8-4.5 3.3-8.6 5.5-9.7 5.4-13.2 8.5-16.8 15-2.1 4-2.8 6.6-2.8 10.8 0 11.1 6.2 20 20.8 29.6 9.1 5.9 12.8 9.5 12 11.6-.7 1.7-9.9 8-21.5 14.5-19.1 10.8-26.8 17-31.5 25.6-2.7 4.7-3 6.2-2.9 13.8.1 20.8 11.5 30.5 42.9 36.4 15.5 2.9 21.5 6 41.3 21.5 23.5 18.4 33.6 24.3 48.2 28 13.8 3.5 25.8 4.4 69.5 5l43 .6-9.5 7.4c-41.8 32.4-68.8 40-122 34.2-35.2-3.9-63.8-5.6-110.5-6.7l-29-.7-20.5-17c-11.3-9.4-44.3-37.2-73.5-61.7-29.1-24.5-57-47.9-62-51.9-9.7-7.8-20.3-14.7-21.2-13.7-2.6 2.6 23.9 27.2 99.2 92.1 49.1 42.3 61.4 53.3 65 58.5 2.5 3.6 3.1 5.6 3.6 12.4.7 8.9 2.8 14.2 8.5 21.3 2.6 3.1 5 4.8 10.5 6.8 4 1.6 9.8 4.9 13.3 7.6 17.3 13.8 33.2 23.1 41.5 24.4 7.9 1.3 15.7 6.4 35.8 23.1 28.8 24.2 36.3 28.4 37.1 21.2.5-4-1.6-7.2-10.4-16.1-8.8-8.9-9.2-8.6 7-4.3 11.5 3.1 14.8 4.9 23.7 13.2 8.4 7.9 11.6 9.5 20.8 10.5 10.7 1.2 17.1 3.5 27 9.6 13.4 8.4 16.8 9.8 23.7 9.8 5.1 0 7.3-.6 14.5-4.2 19-9.6 34.1-26 58.8-64.3 14-21.6 23.1-33 38.2-48 7.6-7.4 14.8-15.3 16.2-17.5 1.4-2.2 4.1-8.5 6-14.1 6.3-18 16.6-36.4 25.5-45.3 6.1-6.1 8.9-6.7 41.7-9.6 39-3.3 76.2-2.9 82.2 1 2.9 2 3.8 7.2 2.3 13.7-1 4-2.4 6.3-6.3 10.2-6 6-9.9 14.1-10.5 21.7-.4 5.7 1 9.4 8.3 21.4 4.2 6.8 4.7 10.2 5.4 37.7.7 30.6.8 30.8 7.7 28.9 6.6-1.8 6.4-2.1 6.4 8.9 0 7.3.4 10.2 1.3 10.6 1.8.7 13.2-3.6 65.7-24.6 58.3-23.3 64.2-25 72.8-21.5 8.3 3.5 9.3 6.3 6.7 18.5-.7 3.6-1.2 6.7-.9 6.9.2.2 4.1-.1 8.6-.7 10.3-1.5 16.3-1.5 18.9-.1 1.1.6 4.6 6.4 7.8 13.3 7.1 15 11 19.6 19 22.5 3.3 1.2 8.7 4.3 12.1 6.9 12.2 9.3 14.4 10.4 22.7 11.4 14.3 1.7 18.1 2.8 24.2 6.9 3.2 2.1 7 3.9 8.5 3.9 1.4 0 6.4-1.1 11.2-2.5 4.8-1.4 14.7-3.1 22.3-3.8 14.9-1.5 18.1-2.7 22.9-8.1 4.2-4.8 5.4-9.2 5.9-22.1.5-11.3-.7-21.2-5.8-49.8-1.7-9.4-2-13-1.2-13.8 1.9-1.9 7 4.6 12.8 16.6 9.8 19.8 14.7 38.9 14.8 57 .1 11-1.9 17.5-10.7 34.9-14.2 28.1-36.7 52-59.6 63.5-16.8 8.4-44.7 15.7-69.4 18.2-15 1.5-47.6.6-60.6-1.5-5.2-.9-17.7-3.4-27.6-5.6-51.3-11.3-112.7-18.6-134.4-16.2-12.3 1.4-16.3 2.7-20.4 6.2-5.3 4.7-6.1 7.8-4.7 17.3 1.7 11.7 6.7 29.4 10.4 36.8 3.6 7.2 5.2 8.4 21.2 15.1 12.7 5.3 19.7 9.7 26 16.2 5.9 6.1 11.6 9 29 14.7 7 2.3 14.7 5.6 17.2 7.3 4 2.7 4.9 4 7.4 11 5.7 15.9 9 19.4 26 28.1 6.3 3.2 12.5 6.7 13.9 7.7 7.6 6 8 13.1 1.4 31.5-2.5 7-4.6 14.6-4.6 16.8-.1 2.2 1.8 9.8 4.2 17l4.2 13-.8 20c-1.5 35.2-1.5 35.1 5.4 42.7 7.4 8.2 16.5 10.4 28 6.9 16.4-4.9 33.8-20.9 61.4-56.1 32.8-41.8 64.9-79.1 83.5-97.1 13-12.6 21.4-17.5 40.2-23.4 58.3-18.4 74.5-24.6 94.2-36.4 20-11.9 40-28.7 60.2-50.6 33-35.8 52.8-68 66.5-108 9.8-28.4 14.1-54.5 14.9-90 1.6-69.5-12.6-133.9-43.2-195.3-17.5-35.2-39.3-68.1-72.8-110.1-7.2-9-9.5-12.6-8.5-13.1.7-.4 4.5-1.3 8.5-2 12.9-2.1 19.1-.6 67.7 16.9 35.3 12.8 40.9 13.8 47.1 8.9 7.4-5.8 7.2-16.1-.5-33.1-3.7-8.1-3.8-12.3-.5-18.7 4.3-8.4 3.7-10.4-7.4-24-8.1-10-9.2-12.9-10.2-25.2-1.1-15.7-4.1-21.5-15.9-31-10-8-36.2-21-56.7-28.2-34.9-12.1-70.4-14.4-125.3-8.1-6.9.8-13.6 1.7-15 2-1.4.3.4-1 4-2.8 3.6-1.9 7.4-4.5 8.5-5.7 1.9-2.1 1.9-2.2 0-3.6-4.8-3.6-13.4-.9-30.4 9.5-4.6 2.8-9.3 5.1-10.4 5.1-1.1 0-3.4-1.1-5.1-2.4-5.5-4.1-9.6-5.7-17.3-6.6-12.3-1.3-13.6-4.2-9.4-20.8 1.2-4.4 2.1-9.4 2.1-11.2 0-3.2-2.5-9-3.8-9-1.4 0-3.9 2.4-9.1 8.7-2.8 3.5-6.5 7-8.2 7.8-7.2 3.8-9.5-1.3-8.5-19.1 1-18.7-2-26.2-6.4-15.9-5.8 13.6-18.9 21.3-26.2 15.5-3.3-2.5-4.5-5.8-5.8-15.5-.7-5.6-2.1-10.2-4.6-15.3-1.9-3.9-3.9-7.2-4.3-7.2-.5 0-1.1 2.2-1.5 5-1.2 9.1-10.2 18-18.2 18-4 0-4.5-.3-7.4-4.5-1.7-2.4-4.8-9-7-14.7-8.1-20.8-10.8-21.7-15-5.1-1.7 6.9-4.7 9.5-11.3 10.1-4.4.3-6.6 0-10.2-1.8-6-2.9-8.9-6.9-13.6-18.7-4.8-11.8-10.1-18-12.4-14.4zm-55.3 31.8c3.8 2.5 4.9 2.8 12 2.6 4.3-.2 7.8 0 7.8.3 0 .4-4.4 9.3-9.8 19.8-19.2 37.2-22.5 40.7-14.1 15.1 4.4-13.4 4.7-19.2 1.5-30.2-1.4-5.1-2.6-9.4-2.6-9.7 0-1.1 1-.6 5.2 2.1zm-206.4 5.5c1.9 1.9 1.4 5.5-1 7.2-4.6 3.2-17.8 1-17.8-3 0-3.7 15.8-7.2 18.8-4.2zm54.7 6.3c17.1 2 29.9 4.2 35.6 6 5.5 1.9 13.1 8 18.8 15.5 5.1 6.5 14 24.4 17.5 35 2.4 7.3 9.6 34.9 9.6 36.9 0 .5-4.9 6.2-10.9 12.5-10.8 11.3-13.8 15.2-12.7 16.3 2.7 2.8 29.6-26.8 31-34 .4-2.3 0-6.4-1.3-11.4-3.5-14-3.6-16-.9-17.4 1.3-.8 7.3-1.5 14.3-1.7 19.1-.7 37.7 3.4 44.9 9.8 3.1 2.8 3.1 2.9 3.1 12.7-.1 16.3-4.3 22.9-20.4 31.1-14.7 7.6-31 11.7-53 13.3-19.2 1.4-27.5 2.5-44.6 6.4-24.6 5.5-41.2 6.5-74.8 4.5-18.7-1.2-50.1-4.5-57.8-6.1-2.6-.6-5.4-1.8-6.1-2.6-1-1.2-1.3-7.3-1.4-25.2-.1-18.5-.5-24.9-1.8-29.4-5.6-19.9-16.2-26.3-41.3-25-7.3.4-12.8.2-15.9-.6-5.4-1.4-11.4-5.4-11.4-7.6 0-2.3 6.7-9.2 13.6-14.1C456.5 56.6 492.5 45 514.1 45c11.8 0 9.6 3.2-5.6 8.1-13 4.1-24.4 10-31 16.1-8.2 7.5-8.1 12.1.1 5.8 16.9-13.1 37.6-21.9 51.3-22 3.8 0 4.9.5 8.6 4.2 8.8 8.9 13.5 31.2 13.5 64.2 0 17.2 1.7 41.7 2.9 42.9 1.9 1.9 2.4-6.9 1.8-29.7-.8-31.7-3.6-53.7-8.2-66.1-3.4-8.9-3.3-12 .5-14 4.7-2.4 8.9-1.8 31.3 4.5 32.8 9.4 44.1 14.3 48.7 21.5 4.3 6.6 10.6 21.3 18.9 43.7 4.3 11.7 8.8 23.1 10 25.3l2.2 4-.5-4.5c-1.4-12.1-19.5-60.9-27.1-73-3.6-5.8-16.3-11.6-39-18-26.6-7.5-35.1-11.4-32.3-14.7 1.1-1.4 3.4-1.5 16.3-1 8.2.4 20.9 1.3 28 2.2zM977 82.7c0 .5-1 4.6-2.2 9.3-2.2 8.5-2.2 8.6-.2 12.5 2.3 4.8 7.2 7.7 16.5 10 12.8 3.2 16.2 7.6 9.8 12.9-4.5 3.8-7.7 5.3-16.6 7.7-13.4 3.7-23.6 2.5-48.8-5.7-13.3-4.4-17.1-6.2-15.7-7.6.5-.5 6.2-2.7 12.6-4.8 12.7-4.2 21.5-8.7 29.5-15 6.5-5.2 8.8-8.5 7.1-10.5-1.7-2-.5-4.7 3.3-7.2 3.4-2.3 4.7-2.7 4.7-1.6zM422.1 94.1c2 3.8.5 10.7-3.2 14.5-3.9 4.1-5.2 4.2-6.7.9-2.3-4.9-1.5-9.2 2.4-13.5 4.1-4.5 5.8-5 7.5-1.9zm50.8 6.9c6.6 2.9 13.1 10.1 15.5 17.2 2.4 7.1 3.2 20.1 1.4 25.2-2.1 6.2-3 6.3-16.3 2.6-6.5-1.8-15.3-3.5-19.6-3.9-4.3-.4-8.3-1.1-8.9-1.7-.8-.8-.5-2.5 1-5.8 2.5-5.9 2.5-11 0-20.6-2.7-10.2-2.6-13.8.3-15 4-1.8 20.7-.5 26.6 2zm-44.1 13.4c.3 4-2.3 12.6-3.8 12.6-1.2 0-3-5.8-3-9.4 0-3.9 2.6-7.8 4.8-7.4 1.2.2 1.8 1.6 2 4.2zm608.5 1.8c1.7 1 14.1 1.3 52.7 1.3 49 0 50.8.1 61.4 2.3 37.3 7.9 84.7 28.9 96.2 42.5 2.5 3 2.6 3.1 1.9 15.7-.8 14.5-1 14.1 7.3 24.4 13 16.2 15.4 24.2 7.9 26.1-1.5.4-3 1.1-3.3 1.6-.3.5 1.1 4.8 3.1 9.6 6.4 15.3 10.2 25.7 10.9 29.5.5 3 .2 4.1-1.8 6.5-2.3 2.6-3 2.8-9.3 2.7-8.9-.1-19.6-3.3-47.4-13.9-31.6-12.2-33.3-12.6-53.4-13.4-14.7-.6-17.6-1-21.5-2.9-2.5-1.2-11.7-8.3-20.5-15.8-38-32.3-74.5-56.5-115.9-76.9l-22.8-11.2 12.3-6.1c6.8-3.3 16.8-9 22.2-12.6 8.7-5.9 16.5-10.6 17.5-10.6.2 0 1.3.6 2.5 1.2zm-632.8 4.4c2.3.9 4.5 5.7 4.5 9.9 0 4-2.2 10-4.7 12.7-2.4 2.7-7.1 2.4-7.8-.5-.8-2.9 2.2-17.5 4.1-20.5 1.6-2.5 1.6-2.4 3.9-1.6zm59 28.3c16.4 3.5 25.5 8.2 25.5 13.1 0 1.2-1.2 3.2-2.6 4.5-2.2 2.1-3.7 2.5-8.7 2.5-3.2 0-8.6-.7-11.8-1.5-9.9-2.6-20.3-3.5-49.4-4.5-15.4-.4-28.8-1.2-29.7-1.5-2.8-1.1-2.1-5 1.3-7.9 6.5-5.5 21.2-7.7 47.9-7.1 13.1.3 21.1 1 27.5 2.4zm20.8 39c-.4 2.9 2 3.7 14.4 4.5 12 .8 16 2 16.9 4.9.4 1.2 5.4 7.1 11.3 13.1 5.8 6 9.9 10.6 9.1 10.3-.8-.3-10.4-4.2-21.2-8.6-29.6-12.2-33.4-12.7-55.7-8.1-10 2.1-16.1 2.5-16.1 1.2 0-3.4 17.3-12.7 34-18.3 6.4-2.1 7.6-1.9 7.3 1zm-133.4 13.4c.8 1 .7 2.9-.4 7.1-3.4 12.9-7.8 17.2-16.6 16.4-2.7-.3-5.5-1.1-6.4-1.8-2.8-2.3-.5-3.3 6.4-2.7l6.6.6-2.3-1.9c-3.4-2.8-11.6-5-18.6-5h-6l3.4-3c4.9-4.2 11.3-8 16.3-9.5 5.7-1.8 16.1-1.9 17.6-.2zm123.9 22.2c4.3 4.3 4.4 4.7 2.8 6.3-1.4 1.4-3.8 1.7-16.1 1.7-15.9 0-18.6-.8-14.9-4.5 2.9-3 15.3-7.9 19.8-8 3.3 0 4.6.7 8.4 4.5zm-5 22.8c3 6.2-4.3 26.3-12 33.3-4.5 4.1-7.2 4.1-10 .3-1.5-2-2.2-5.6-3.2-15.7-.6-7.2-1.5-13.4-1.9-13.8-3.4-3.5-4.4 14-1.4 24 2.4 7.9 6.2 11.6 11.7 11.6 2.2 0 5.2-.7 6.5-1.6 3.6-2.4 7.9-9.8 12-20.9 4.3-11.6 7-16.5 9.2-16.5 1.3 0 1.5 1.1 1.1 6.8-.6 7.6-6 20.6-11.7 27.7-4.2 5.2-13.5 11.5-17 11.5-3.4 0-10.3-5-13.1-9.5-1.1-1.8-2.7-5.5-3.5-8.2-1.6-5.7-4-29.1-3-30.1.8-.9 19.1-.9 20-.1.3.4-.5 2.3-1.9 4.3-4 5.9-5.6 15.6-3.5 21.4 2.2 6.4 8.4 4.5 12.7-3.8 1.8-3.6 2.2-6.1 2.2-13 0-8.8 1-11.3 4-10.8.8.2 2.1 1.6 2.8 3.1zM281.5 278c40.5 3 63.1 8.3 81.3 18.9 13.8 8 22.3 15.2 54.3 45.1 24.2 22.7 41.1 37 60.3 50.8 8.2 5.9 15.1 11.3 15.4 11.9 1.4 4.3-12.9-3-31.2-16-11.1-7.9-21.1-15.7-53.1-41.7-16.4-13.2-33.4-24.9-44-30-20.2-9.9-49.5-16-76.5-16-22.5 0-32.2 4.5-33.7 15.7-.5 3.6-.1 4.5 3.1 8 3.6 4 4.5 6.3 2.6 6.3s-9.3-4.1-15.8-8.8c-10.9-7.7-13.5-13.2-10.8-22.6 2.6-9 13.7-19.4 22.9-21.6 4.6-1.1 9.5-1.1 25.2 0zm23 30c25.2 2.5 47.1 7.8 61.3 14.9 10.2 5.1 16.5 9.6 16 11.3-.2.6-3.6 1.9-7.4 2.8-9.5 2.4-30.2 10.9-44.8 18.3-12.7 6.4-21.6 13.6-21.6 17.4 0 3.2 6.1 7.9 12.1 9.4 11.6 3 61.9 1.2 61.9-2.1 0-.5-13.2-1-29.2-1.3-31.1-.4-34.8-.9-38.9-5.4-3.6-3.8-1.6-6.3 8.8-10.9 4.8-2.1 14.6-6.7 21.6-10.2 15.3-7.4 24-10 36.2-10.9 7.1-.4 9.8-.2 12.8 1.1 5.9 2.4 4.7 4.7-3.4 6.2-7.1 1.3-16.7 4.8-26.4 9.7-15.8 7.9-12.2 9.1 4.6 1.6 23.2-10.4 36.4-10 48.3 1.4 3.8 3.6 4 4 2.3 5.2-1 .7-5.7 2.2-10.5 3.4-13 3.2-14.5 3.9-13.7 6.8.5 2.1 0 2.6-3.9 4.3-5.1 2.3-24.5 7.4-34.9 9.1-12.3 2.1-72.2-3.5-88.5-8.3-8-2.3-13.2-6.2-13.2-9.8 0-3.3 5.1-7.4 13.6-10.8 20.3-8.3 21.8-12.1 9.9-25.1-8.2-8.9-10.9-14.1-10.2-19.4.3-2.2 1.4-4.9 2.5-5.9 3.4-3.5 16.6-4.5 34.7-2.8zm-31.8 32.9c6.1 4.4 10.6 11.1 7.5 11.1-1.8 0-12.9-7.8-13.5-9.5-2-5.2.2-5.8 6-1.6zm.2 10.6c1.1 1.1 0 2-6 5.6-4.1 2.4-9.1 5.6-11.1 7.1-9.9 7.7-10.4 18.3-1 22 1.5.5 7.2 1.4 12.6 1.9 14.6 1.3 16 3.7 6.5 10.6-7.2 5.2-10.9 8.4-10.9 9.4 0 1.7 2.4.9 8.4-3 13-8.4 28.8-11.2 62.3-11 23.6.1 31.1-.7 48.3-5.1 23.6-6 41.6-8.1 51.5-6 7 1.4 14.1 4.8 12.9 6-.5.5-9 2-18.9 3.4-33.4 4.8-50.9 10.6-78.2 25.9-23.4 13.2-50.8 20.1-60 15.3-1.6-.8-12.8-3.5-24.9-6.1-26.2-5.5-30.8-6.8-39.9-10.9-11.8-5.5-17.5-12.1-17.5-20.4 0-8.5 15.8-26.8 26.1-30.1 2-.6 8.3-3.9 14-7.3 15.5-9.2 21.8-11 25.8-7.3zM881.6 371c.8 0 1.4.4 1.4 1 0 .5-1.8 1-4 1s-4-.4-4-.9c0-1.2 2.1-2.1 3.8-1.5.8.2 2 .4 2.8.4zm-452.7 2.6c.8.7 1.1 1.7.7 2.1-.4.5-6.9.9-14.4 1.1-7.5.2-13.4.1-13.1-.2.8-.8 13.5-4.3 17.4-4.8 4-.6 7.7.1 9.4 1.8zm472.9 6.3c2.2 1.6 4.3 3.4 4.6 3.9.3.5-1.6 1.9-4.2 3-13.6 5.8-84.7 30.5-140.5 48.7-32.3 10.6-32.8 10.7-34.9 8.9-2.8-2.5-11.8-15.4-11.8-16.9 0-.6 2.4-1.9 5.3-2.7 2.8-.8 23.6-7 46-13.7 66-19.6 101.2-29.5 116.7-32.6 10.7-2.2 14.2-1.9 18.8 1.4zm-44.3-.9c-.3.5-3.5 1.9-7.1 3-11.9 3.6-15.6 1.8-4.2-2.1 5.7-2 12.3-2.5 11.3-.9zm112.6 14c3.9 10.3 5.2 21.1 5.2 42.5-.1 31.3-4 55.6-14.2 89.5-4.8 15.9-10.2 38.7-13.1 55.4-3.8 22.2-4.2 23-14.6 24-3.8.3-10.4 1.4-14.7 2.3-6 1.2-8.1 1.3-9 .4-.6-.6-1.3-4.3-1.5-8.1-.3-5.2-.9-7.3-2.1-7.9-5.1-2.7-30.4-1.8-42.5 1.4-3.5.9-6.3 1.2-6.8.7-.6-.6-.5-4.2.2-9 1.5-9.9.9-11.2-7-15.2-9.5-4.8-17.8-6.3-29-5.4-9.8.9-13.9.9-14.8 0-.3-.3-.9-2.9-1.3-5.7-1.5-9.3-7.1-12.9-19.9-12.9-7 0-15.5 2.6-30.5 9.4-4.4 2-9.3 3.6-10.8 3.6h-2.8l.7-7.5.7-7.5-3.6-3.4c-4.1-3.8-12.2-6.3-29.6-9-13.8-2.1-18.2-4.3-22.9-11.4-6.1-9.2-5-14.2 6.4-27.7l2.5-3-.8 6.5c-1.6 13.1-.4 16.9 6.7 21.8 5.3 3.6 10.7 4.6 23.5 4.6 19.4-.1 43.8-4.7 81.9-15.6 38.5-10.9 59.6-18.6 82.6-30.3 38.3-19.5 63-43.5 70.4-68.5.9-3 1.9-9.3 2.2-14 .3-4.7.8-9.2 1.1-10 .7-2.3 4.9 3.4 7.4 10zm-955.3-2.6c3.3 3.1 4 4.6 2.2 4.6-1.3 0-9-8.1-9-9.4 0-1 2.1.5 6.8 4.8zm898.5 4.1c1.5 9.3-.9 41.9-3.8 52-2.2 7.6-7.9 12.4-25.5 21-31.2 15.5-102.2 38.1-139.7 44.6-15 2.6-31.1 3.1-33.6 1-2.2-1.8-2.3-16.8-.2-36.6 2.2-20.8 1.2-19.1 14.1-24 10.6-4 52.2-18.3 140.9-48.5 24.2-8.2 44.7-14.8 45.5-14.7.9.1 1.8 2 2.3 5.2zM39.5 411.9c7.3 7.1 9.4 10.2 5.8 8.2-2.2-1.1-16.2-16.6-14.5-16 .6.2 4.5 3.7 8.7 7.8zm23 19.2c5.3 5.5 9.4 10.3 9.1 10.7-.7.7-13-11.1-17.8-17.1-5.6-7-1.1-3.7 8.7 6.4zm653.7 4.6c3.3 3.6 4.8 6.6 4.8 9.7 0 1.9-1 3.1-4.5 5.1-6.4 3.8-7.8 3.2-8.9-3.7-1.9-11.7 2.6-17.4 8.6-11.1zM99.5 462.9c39.2 31.7 84.3 69.3 93.4 77.7 7.4 6.9 6.2 8.6-1.9 2.5-18.1-13.6-92.2-77.1-105.5-90.4-3.8-3.8 1.1-.2 14 10.2zm460 8.1c.9 1.5-2.1 6.6-7.7 12.7-5.7 6.4-10.3 15.6-14.3 28.8-5.3 17.3-8.4 21.8-24.2 34.6-14.6 12-22.6 21.8-39.3 48.4-20.3 32.3-34 49-47.3 57.6-15.2 9.9-24.8 9.2-43.7-3-6.8-4.4-15.9-7.7-23.7-8.5-7.1-.7-12.3-3.2-21.3-10.1-8.3-6.3-18.1-11.5-22-11.5-3.8 0-12.7-4.5-20.5-10.4-10-7.4-13.4-9.3-19.7-11-7.3-1.9-12.8-4.8-21.4-11.2-12.5-9.4-20.5-19-23.1-27.9-.5-1.8-2-3.6-3.8-4.5l-3-1.5 4.9-.3c2.7-.2 14.6 1.4 26.5 3.5 21 3.6 22.3 3.7 45.1 3.7 19.5 0 25.7-.4 36.5-2.2 44.4-7.6 81.6-24.9 107.3-49.9l9.7-9.5-6.5 4.6c-39.6 28-67.9 42.4-92.4 47.1-11.8 2.3-39.2 2.8-79.1 1.6-65.8-2-70.4-3-84.5-17.6l-5.5-5.7 13 .5c7.2.4 44.8 2.1 83.6 3.9 61.9 2.8 72.2 3.1 83.5 2.1 23.7-2.2 38.6-8.3 63.4-26 26.3-18.8 32.8-22.1 50.8-25.8 6.4-1.3 18.7-4.2 27.4-6.4 8.6-2.2 20-4.7 25.5-5.5 11.6-1.6 24.9-2 25.8-.6zM703 498.5c.4 6.6-.1 12.5-1.1 12.5-1.4 0-3.9-6.3-3.9-9.7 0-3.3 2.8-7.9 4-6.6.5.4.9 2.1 1 3.8zm277.4 24.7c14.9 8.7 32.5 23.1 36.2 29.3 2.8 4.9 3 6.4 7 51.3 2.9 33.2 2.7 38.7-1.7 43.6l-2.8 3.1-15.2-.3-15.2-.3-4 2.8c-5.6 3.9-13.6 3.8-22.7-.1-9.7-4.2-16.9-6.4-23.2-7.1-6.7-.7-13-3.9-20.2-9.9-6-5.1-8.1-6.3-14.6-8.2-6.3-1.9-9.3-5.6-17-21.5-4.1-8.5-5.6-12.7-4.9-13.4.5-.5 4.5-1 8.7-1 12.8 0 15.5 3.3 11.8 14.5-2 6.1-2 6.2-.1 7.6 2.7 2 5 1.8 16-1.6 17.1-5.3 18.7-4.4 18.3 9.9-.2 10.4.5 14.1 2.8 14.1 2 0 3.4-4.2 3.4-10.4 0-6.4 2-13.6 4.8-17.1 3.7-4.6 6-12.9 11.2-38.3 4.3-21.5 12.3-51.2 13.9-51.2.3 0 3.7 1.9 7.5 4.2zm-278.6 17.1c1.9 3.8 1.9 44.6 0 50.1-2.6 7.9-7.3 7.5-8.3-.6-1.2-9.4-.2-48 1.3-50.6 1.8-3.1 5.3-2.5 7 1.1zm-524 1.9c7.7 5.3 16.5 8.7 30.1 11.8 13 2.9 19.4 5.4 19.4 7.5-.1.5-2.4 1.9-5.3 2.9-2.8 1-5.8 3-6.7 4.3-1.4 2.1-1.4 2.5.1 4.8 2.4 3.6 8.7 8 18.6 12.8 4.7 2.3 9 4.3 9.5 4.6.6.2-1-1.4-3.5-3.5-7.6-6.5-17-15.7-17-16.6 0-2.7 8.2 2.6 25.5 16.6 13.9 11.3 20.6 15.6 24.5 15.6 8.9 0 20 9.1 20 16.3 0 2.5 4 8.4 12.8 18.7 2.9 3.4 5.1 6.5 4.8 6.8-1 .9-10.7-6.2-25.6-18.8-32.3-27.3-37.7-31-45.8-32.1-8.4-1.2-20.3-7.5-29.8-16.1-4.5-4-11.5-9-15.5-11.2-4.1-2.1-9.4-5.7-11.7-8-6.1-5.7-14.5-22.6-9.9-20 .6.4 3.1 2 5.5 3.6zm554.3-1.4c2.7 2.4 3.2 3.6 4 10.7 1 9.3 2.1 10.5 8.8 10.5 5.9 0 12.7-1.9 22.1-6 5.4-2.4 9.5-3.4 14.6-3.8 12.4-.8 17.9 2.5 17.9 10.7 0 4.5.1 4.6 4 5.8 2.2.7 5.3 1.5 6.8 1.8 7 1.4 2.5 3.5-67.2 31.6-18.9 7.7-34.8 13.9-35.3 13.9-1.5 0-.4-67.8 1.1-71.8.7-1.7 1.4-3.2 1.4-3.2.1 0 2-.7 4.2-1.5s6.4-1.4 9.2-1.5c4.4 0 5.8.5 8.4 2.8z"/><path d="M1080.5 135.1c-12.3.8-27 3.2-39.5 6.4-10.3 2.6-19 5.9-19 7.3 0 1.1 9.6-.1 23.7-2.8 36.7-7.1 93.5-2.6 134.8 10.7 14.7 4.7 25.2 9.7 36.3 17.2 11.6 7.7 13.8 8.6 8.7 3.2-11.2-11.9-31.4-21.9-61.7-30.7-30.6-8.8-60.5-12.8-83.3-11.3z"/><path d="M1094 160.6c-10.9 1-23.9 3.7-29 6.1-3 1.4-5 2.7-4.4 2.9.6.3 8-.7 16.4-2.1 18.1-2.9 34.3-3.3 45.7-.9 18.2 3.7 49.1 14.5 70.1 24.5 14.8 7 22 11.2 33.5 19.7 4.8 3.5 9 6.2 9.3 5.9 1-1-2.7-5.6-7.9-9.6-20.5-15.7-66.7-36.2-99.7-44.1-8.4-2-25.2-3.2-34-2.4zm26.5 37.9c16.6 2 25.7 4 37.7 8.1 21.5 7.5 39.6 17.2 73.2 39.3 28.1 18.5 32.1 18.9 8.1.9-21.2-16-48.7-32.3-67.7-40.3-18-7.6-23.6-8.8-44.8-9.1l-18.5-.3 12 1.4zm-699.1-48.1c-1.1 2.8.1 5.1 2.5 5.1 3.2 0 4.9-2.8 3.2-4.9-1.7-2-5-2.1-5.7-.2zm18 0c-1.9 5 2.2 10 4.6 5.6.9-1.7.8-2.6-.5-4.6-1.7-2.7-3.3-3.1-4.1-1zm-46.7 3.2c-1.2 1.2-.8 4.1.7 5.3 2.2 1.8 5.8-.4 5.4-3.2-.3-2.2-4.5-3.6-6.1-2.1zm11.3.7c0 1.6 2.8 5.7 3.9 5.7 1.3 0 2.2-3.1 1.6-5.1-.7-2.2-5.5-2.7-5.5-.6zm50.1.1c-2.2 2.6 1 6.3 4.3 5 3.5-1.3 2.4-6.4-1.4-6.4-1 0-2.3.6-2.9 1.4zm18.5 3.2c-2 1.9-.5 5.4 2.3 5.4 2.9 0 4.5-2.5 3.1-4.9-1.3-2.5-3.3-2.7-5.4-.5zm488.9 267.9c-20.5 32.7-31.4 43.9-59 60.4-28.3 17-66.1 33.6-101.8 44.7-11.7 3.6-21.9 7-22.7 7.6-2.5 1.6 9.4 0 20-2.7 61-15.5 124.3-50 149.2-81.4 5.9-7.4 17.2-28.3 16.5-30.4-.2-.6-1.2.2-2.2 1.8zm5.6 6.1c-1.2 1.5-2.1 4-2.1 5.5 0 8.7-14.5 38-30.1 61-12.3 18.2-28 33.4-53.4 51.9-8.3 6-16 11.9-17 13.1l-2 2.2 2.5-.8c3.8-1.1 14.3-7.5 26.5-16.1 26.1-18.5 50.3-47.7 66-79.9 6.3-12.7 13.5-32.2 13.5-36.3 0-3.2-1.6-3.5-3.9-.6zm-6.7 62.1c-1.4 3.2-4.3 9.7-6.4 14.4-6 13.6-12.9 26.9-17.3 33.4-2.2 3.3-10.6 12.6-18.6 20.7-8 8.2-13.8 14.8-13 14.8 3.2 0 13.6-7.9 21.1-15.9 12.7-13.8 24.1-32.2 31.1-50.6 3.2-8.4 7-22.5 6.1-22.5-.2 0-1.6 2.6-3 5.7zm-427.1-5.5c-.6.7-4.2 7.6-8.1 15.3-4 7.7-9.2 16.6-11.8 19.7-2.6 3.1-10.9 11.1-18.5 17.7-7.7 6.8-19.8 18.8-27.3 27.4-21 23.6-37.8 37.3-59.6 48.6-6.3 3.3-12.4 6.7-13.5 7.5-1.9 1.4-1.9 1.5-.2 1.6 3.5 0 17.1-5.1 24.1-9.2 3.9-2.3 10.5-6.6 14.6-9.6 7.7-5.7 74.6-72.4 84.5-84.3 7.8-9.4 12.2-17.2 15.1-26.7 2.5-8.2 2.7-10.5.7-8zm-25.9 6c-3 2.8-10.3 11.5-16.2 19.2-19.9 26-38.4 42-68.7 59.4-26 14.9-63.5 28.1-94.5 33.3l-7.5 1.3 4.5.8c10.8 2.1 34.6-1.7 53.5-8.6 15.3-5.6 39-17.7 53-27.1 20.2-13.4 31.9-23.7 52.3-45.5 21-22.5 33.1-38 29.6-38-.3 0-3 2.3-6 5.2z"/><path d="M477.1 498.1c-6.5 3.2-10.6 6.3-18.5 13.9-31.5 30.3-79 52.1-131.1 60.1-3.3.5-15.6 1.4-27.4 1.9-20.3.9-26.1 1.9-21.5 3.7 1 .4 10 .8 19.9.7 27.5-.1 48.5-3.6 74.5-12.4 32-10.8 58.8-25.3 81.1-44.1 18.7-15.8 29.5-24 32.2-24.6 2.8-.6 3.2-2.6.6-3.1-.9-.1-5.3 1.6-9.8 3.9zm495 51.1c-3.4 9.6-3.9 53.2-1 76.3 1.1 8.8 3.2 15.5 5 15.5 1.4 0 1.1-6.4-1.2-21.5-1.9-12.6-2.1-17-1.6-43.8.3-16.3.4-29.7.2-29.7s-.8 1.5-1.4 3.2zm23.2 7.3c-1.4 5.2-1 54.1.6 61.8 2.8 13.8 3.3 8.7 2.9-26.4-.2-23.5-.7-35-1.5-36.4-1.1-1.9-1.2-1.8-2 1zM275 610c5.8 7.3 14 12.4 14 8.7 0-1.8-4.4-5.8-10.4-9.6-6.6-4.1-7.4-3.9-3.6.9zM812.2 36.2c-1 1.8-3.4 5.9-5.2 9.1-4.5 8-12.5 17.9-26.6 32.7-12.4 12.9-17.3 19-15.5 19 3.1 0 32.3-28.9 40.9-40.5 2.5-3.3 5.5-8.3 6.8-11.1 4.4-9.9 4.1-16.7-.4-9.2zM672 237.8c0 .4 7.3 3.2 16.2 6.1 33.2 11 50 22.6 58.9 40.7 2.8 5.6 3.1 7.1 2.6 12.2-.3 3.1-2.8 12.9-5.7 21.7-6.5 20.4-10.7 36.4-11.5 44-.4 3.3-1.7 9.9-3 14.6-2.4 9-2.1 12.5.9 10 2.3-1.9 4.4-10 5.5-20.6 1.2-11.5 3.1-18.7 9.1-35 7.3-19.6 8.3-24.4 8.4-37.5.1-8.7-.3-12.8-1.7-16.7-4-11.4-15.5-22.8-29.3-28.9-6.4-2.8-29-8.6-40.1-10.3-8.5-1.3-10.3-1.4-10.3-.3zM614.5 252c.3.5 4.1 3.6 8.3 6.9 18.9 14.4 34.3 35.1 38.6 51.8 2.1 7.9 2 23.2 0 33.1-2.2 10.5-4.6 17.5-11.6 32.7-9.2 19.8-12.4 28.5-10.8 28.5 2.1 0 20-33.3 25.8-48 5.6-14.2 7.4-27.3 5.1-38.2-1.5-7.2-8.6-22.1-15.1-31.5-6.5-9.4-25.5-29-32.2-33.2-4.8-3-9.4-4.2-8.1-2.1zM809 291.9c-3.6 9.1-5.4 11.1-9.8 11.1-3.5 0-4 1-1.6 3.4 5.4 5.5 13-3.5 15.8-18.7 1.2-6.2-1-4.2-4.4 4.2zm18.7-4.2c-1 .9-.9 4.1.2 4.7 1 .7 6.1-3.1 6.1-4.5 0-1-5.3-1.2-6.3-.2zm32.3 11.9c0 8.4 1.2 13 3.1 11.9 2-1.3 0-20.5-2.2-20.5-.5 0-.9 3.9-.9 8.6zm-13-6.1c-1.7 2.1-2.6 10.5-1.1 10.5s4.1-6.1 4.1-9.5c0-2.8-1.2-3.2-3-1zm36.6 10.6c-3 2.3-2.6 3.9.9 3.9 3 0 5.1-3.3 3.1-4.9-1-.8-2-.6-4 1zm51.4-1c-3.5 1.4-6 3.9-6 6.1 0 1.6.3 1.7 2.3.7 2.7-1.4 7.7-6 7.7-7.1 0-1-.8-.9-4 .3zm-103.8 2.1c.3 2 1 2.3 5.1 2.6 5.4.4 6.1-1 1.7-3.3-4.4-2.3-7.2-2-6.8.7zm64.8-.2c0 2.7 3 10 4.1 10 1.4 0 1.1-4.7-.5-8.5s-3.6-4.7-3.6-1.5zm-27.3 11.7c-1.6 1.5-.5 2.3 3.3 2.3 2.2 0 4-.4 4-.9 0-1.7-5.9-2.9-7.3-1.4zm48.2 1.4c-2.3 2.3-2.1 4.2.4 4.7 2 .4 7.1-4.4 6.2-5.8-1-1.7-4.4-1.1-6.6 1.1zm36.1 7c-1.2 2.2-1.8 4.8-1.5 5.7.5 1.6 7.4 6.8 7.9 6 .6-.8-2.7-15.8-3.5-15.8-.5 0-1.8 1.8-2.9 4.1zm18.7 4.4c2.2 1.8 3.3 3.7 3.8 6.6.8 4.4 2.8 4.9 3.3.8.4-3.8-3.8-9.3-7.3-9.7l-3-.3 3.2 2.6zm18.7 18.7c-4.6 4.9-5.5 6.3-4.1 6.6.9.2 3.5-1 5.6-2.7 2.1-1.7 4.2-3.1 4.5-3.1.3 0 .6 1.2.6 2.7 0 7.3 4.6 15.4 9.8 17.4 3.7 1.4 3.9.2.5-3.4-3.7-3.9-6-8.1-6.7-12.7-.3-1.9-.8-5.2-1.1-7.3-.3-2.1-1.2-3.7-1.9-3.7s-4 2.8-7.2 6.2zm36.1 9.8c-4.5 4.6-4.2 5.1 1.1 1.5 4.2-2.9 5.5-2.8 6.9.3 1.2 2.8 2.5 2.8 2.5.1 0-6.8-4.9-7.7-10.5-1.9zm11.3 14.7c-4.5 1.2 0 4.3 6.2 4.3 4.5 0 11-2.3 11-3.9 0-1.1-13.6-1.4-17.2-.4zm26 14.2c-5.4 5.9-12.3 15.9-11.6 16.6 1.4 1.4 12.8-11.8 16.7-19.3 2-3.7-.5-2.5-5.1 2.7zm-276.3 6.5c-30.2 7.7-51.5 14.2-51.5 15.8 0 .4.6.8 1.3.8 4.9 0 67.1-18.1 69.2-20.1 1.5-1.5-1.2-1-19 3.5zm290 10.5c-1.1.4-5.1 2.2-8.8 4-4.6 2.2-7.7 3.2-9.7 2.9-3.3-.5-3.6-.1-1.6 2.4 2 2.7 5.1 2.2 12.6-2.3 4.7-2.7 7.8-3.9 9.7-3.7 3 .3 3.1.8 1.8 6.8l-.7 3.5 3.1-2.9c3.8-3.6 4-6.8.5-9.5-2.8-2.2-3.6-2.3-6.9-1.2zm15.4 18.6c-1.5.8-2.9 2.1-3.2 2.9-.5 1.2 0 1.4 2.2 1 2.3-.5 2.9-.2 3.4 1.5.6 2.5 2.9 2.7 4.8.5 1.5-1.8.5-3.9-2.7-6-1.5-1-2.4-1-4.5.1zm-8.1 29.7c-.4 5.8 1.2 9.1 3.8 8.1 1.8-.7 1.8-2.4-.3-6.8-1.9-4-3.2-4.5-3.5-1.3zm20.7 1.7l-3 .7 4.3 2.8c4.5 2.8 6.8 2.8 7.9.1 1.1-3-3.6-4.8-9.2-3.6zm-3.1 16.6c-3.4 2.7-5.7 5.8-6.8 9.2-.9 3 2.4 6.3 6.4 6.3 3.6 0 3.9-1.4.6-3.5-3.8-2.5-3.8-4 0-9.5 1.9-2.7 3.3-5 3.2-5-.2 0-1.7 1.1-3.4 2.5zm7.8 11.1c.4 3.3 3.2 5.4 4.9 3.7.8-.8.6-1.8-.6-3.7-2.3-3.5-4.7-3.4-4.3 0zm-9.1 17c-3.8 4.7-4.7 8.2-2.7 10.2 1.9 1.9 14.3 3.1 13.2 1.3-.4-.6-1.3-1.1-2-1.1s-2.5-.9-4-2.1c-2.8-2.2-3.5-6.4-1.6-10 1.6-3 .4-2.3-2.9 1.7zm20.5 24c-1.4 3.4-2 22.4-.8 22.4 3.7 0 5.8-16.5 2.8-21.9-1.2-2.2-1.3-2.2-2-.5zm-3.9 38c-1.3 1.3-.7 4.4 1.2 6.3 1.1 1.1 4.1 2.1 8.1 2.5l6.2.7-.6 3c-.3 1.6-.2 2.9.3 2.9 1.2 0 6.1-4.7 6.1-5.9 0-1.8-4.4-4.1-7.8-4.1-3.9 0-10-2.4-11.6-4.6-.6-.8-1.5-1.2-1.9-.8zm6.5 27.6c-4.7 6.3-7.6 11.7-6.7 12.6.4.4 1.6-.4 2.6-1.7 2.9-3.6 9.2-15.1 8.6-15.7-.3-.3-2.3 1.8-4.5 4.8zm-6.6 23.6c-.7 1.1 2.7 7.5 4.2 8 1.6.5 1.5-1.1-.2-5.3-1.5-3.4-2.9-4.4-4-2.7zm-5.3 19.4c-4.3 4.6-5.3 7-5.2 12.5v4.8l2.1-6c1.1-3.3 3.3-7.9 4.9-10.3 3.4-5 2.5-5.5-1.8-1zm-12.4 26.5c-3.2 8.2-5.2 11.5-10.1 16.9-2.9 3.2-6.2 7-7.3 8.3l-2 2.3 4-2.3c9-5.3 17-15.7 19-24.7.5-2.6.3-3.2-.9-3.2-.9 0-2.1 1.2-2.7 2.7zM724 762.7c-2 .8-5 3.4-5 4.5 0 .4 2.4.5 5.3.2 6.7-.8 21.6.8 47.7 5.1 25.7 4.3 46.6 7 69 9 9.6.8 21.6 1.9 26.5 2.3 5.1.5-17.9.7-53 .4-61.5-.5-77.8 0-74.1 2 5.2 2.9 165 2.9 167.8 0 2.2-2.3-2.2-4.8-10.7-6.1-4.2-.6-19.6-1.8-34.3-2.6-40.4-2.3-59.6-4.2-84.2-8.5-33.6-5.9-40.7-7-46.8-6.9-3.7 0-7.4.3-8.2.6zm190.7 3c-.4.3-.7 1-.7 1.5 0 1.2 14 7.8 16.5 7.8 1.9 0 1.8-.2-.5-2.1-3.4-2.7-12.3-7.9-13.6-7.9-.6 0-1.4.3-1.7.7zm24.7 4.8c-1 5.7.3 44.4 1.7 49.5 2.2 7.7 8.5 12.9 26.1 21.4 8.4 4 18.1 8.3 21.6 9.5 14.4 4.9 12.6.7-2.6-6-16-6.9-21.2-9.8-26.4-14.7-8.5-7.9-11-15.1-13.3-38.2-1.7-16-3.4-24.1-5.2-24.7-.7-.3-1.5 1.1-1.9 3.2zM853.5 808c-17.9.8-38.5 2.7-39.4 3.6-1.3 1.2 2.5 1.6 19.1 2.1 19.4.6 51.9-.9 63.6-2.8 7.7-1.3 10.5-.8 9.6 1.5-3 7.7-59.6 10.9-109.9 6.1-26.4-2.5-33.9-1.6-16.6 2 18.8 4 29.5 4.9 57.1 4.9 29 0 44.9-1.4 60.9-5.5 8-2 18.3-6.7 18.8-8.5 1-3.4-28-5-63.2-3.4zm71.5 21.7c-1.4.2-8.3 2.2-15.5 4.3-20.6 6.1-32.2 8-63.5 10.5-10.7.9-20.4 1.8-21.5 2.2-1.8.5-1.8.6.5 1.5 8 2.9 36.2 1.4 59.3-3.3 18.7-3.8 43.7-12.3 43.7-14.8 0-.6-.1-1-.2-1-.2.1-1.4.4-2.8.6zm14.5 18.5c-1.1.6-5 3.3-8.6 5.9-8.3 6.1-23.2 13.2-41.9 19.9-17.1 6.2-31.9 12.9-34.1 15.6-2 2.3-3.1 5.4-2 5.4.4 0 3.2-1.3 6.2-2.9 5.7-3.1 12.4-5.8 30.9-12.3 22-7.8 38.8-16.7 47.8-25.3 6.3-6.1 7.2-9.4 1.7-6.3zm-1.2 18.5c-3.5 2-12.5 9-20 15.6-17.1 14.9-24.7 21.1-39.3 32-16.7 12.5-30 26.6-30 32 0 1.5 3.1-1 11.8-9.5 6.4-6.3 16.2-14.8 21.7-18.8 14-10.3 22-16.9 37-30.5 14.8-13.4 24.8-21.1 25.3-19.6.4 1.2-5.3 10.2-12.8 20.1-7.8 10.2-21 30.4-21 32.1 0 1.7 3.7-2.6 16.4-19.1 14.7-19.2 22.8-31.8 22.4-34.9-.5-4-4.2-3.8-11.5.6zm26.6 18.7c-9.4 7.8-44.8 46.9-68.4 75.6-12 14.6-26.2 33.9-29.6 40.3-4.8 9.1-1.7 5.9 14-14.3 17.3-22.3 28.2-34.9 54.6-63.5 23-24.9 36.5-40.3 36.5-41.6 0-1.8-1.9-.8-7.1 3.5z"/></svg>