<svg version="1.0" xmlns="http://www.w3.org/2000/svg" width="1706.667" height="1336" viewBox="0 0 1280 1002"><path d="M88.5.6c-24.3 2.9-29 4.8-52.2 21.2-10.6 7.5-21.7 15.1-24.6 16.7C5.3 42.2 2.4 47.4 1 58 .4 62.8.1 236.4 0 530.8v465.4l2.9 2.9 2.9 2.9h120.7l12.7-11 12.7-11h982.6l14 11 14 11h53c33.3 0 54.4-.4 56.7-1 2-.6 4.6-2.2 5.8-3.7l2-2.6-.2-471.1-.3-471.1-2.5-5c-2.2-4.4-5.4-7.2-27.2-24.1-24.3-18.7-24.9-19.1-32.5-21-7.6-1.9-19.8-1.9-566.8-2C343 .3 90.2.5 88.5.6zm1105.8 79.8c4.7 1.9 8.4 6.7 9.6 12.6.8 3.6 1.1 62.7 1.1 198v192.9l-4.2 2.9c-2.4 1.5-7.2 4.3-10.8 6.1-9.3 4.8-24.9 15.3-36.7 24.9-5.7 4.6-10.5 8.7-10.8 9.3-.4.5-2.6.9-4.9.9-4 0-4.3-.2-3.9-2.4.4-2 1.3-2.5 4.8-3.1 4.6-.6 16.5-6.1 16.5-7.4 0-.5-2.1-1.6-4.7-2.6-8-3-9.6-4.4-8.9-7.9.4-1.6 4-9.9 8.1-18.4 4.1-8.5 7.3-15.7 7.1-15.9-.6-.7-10.3 13-14.9 21-3.9 6.9-4.4 7.4-5.5 5.6-.7-1-2.3-1.9-3.5-1.9-4.2 0-15 4.1-18.6 7.1-2 1.6-4.3 2.9-5.2 2.9-1.9 0-6.3 1.8-15.9 6.4-3.9 1.9-7 3.1-7 2.6 0-1.6 3-7.8 7.2-15 2.4-4.1 5-9.1 5.8-11 1.8-4.4 1.8-13.3.1-15.4-1.9-2.3-1.3-2.5 4.4-1.6 2.8.4 12.8 1.1 22.3 1.5l17.3.7-5.3-7.9c-2.9-4.4-6.1-9.4-7-11.1-.9-1.7-4.2-5-7.2-7.4l-5.6-4.3 7.3-.8c3.9-.5 10.2-1.8 14-3.1 6.1-2 7-2.1 9-.8 4 2.7 7.9 6.6 9 9.2 1.1 2.4 1.2 2.3 1.5-1.8.2-2.3-.5-6.8-1.4-10-1-3.1-1.8-6-1.9-6.3 0-.4 2.6-2.8 5.8-5.4 3.2-2.6 5.5-5 5.3-5.2-.2-.3-4.4 0-9.2.6l-8.7 1.1-3.8-3.5c-6.3-5.7-13.3-8.7-20.2-8.7-6.9 0-7.5.9 7.2-10.8 13.5-10.6 16.7-12.6 21.5-13.5 4-.7 11.9-5.4 16.6-9.7 1.4-1.3 6-6.4 10.4-11.3 4.3-5 9.7-10.7 11.9-12.8l4-3.7h-4c-10.3 0-28.3 6.8-38.2 14.4-3.3 2.5-6.2 4.6-6.4 4.6-.3 0-.8-1.1-1.1-2.4-.7-2.9-7.1-11.5-16.5-22.4-4-4.6-7.1-8.5-6.9-8.7.1-.2 6.4-3.2 14-6.8 16.1-7.7 21.7-12.3 26.1-21.6l3.1-6.4-2.2-3.6c-1.2-2-2.9-5.3-3.9-7.4-1.6-3.4-2.1-3.8-4.8-3.2-5.8 1.1-18.9 8.2-21.5 11.7-2.1 2.8-2.5 4.6-2.7 12.3-.3 8.1-.5 9.1-3 11.7-1.5 1.6-4.3 3.8-6.1 4.9l-3.5 2 .7-2.8c.3-1.5 2.5-10.3 4.9-19.5 5.2-20.3 6.5-22.2 13.9-21.2 4.2.6 5.7.2 11.1-2.5 7.5-3.7 9.2-5.3 22.9-20.6 5.8-6.6 11.5-12.5 12.5-13.2 1.5-1 1.2-1.2-2.3-1.2-10.5-.2-29.4 7.1-38.8 14.9-5 4.2-6.6 4.8-6.6 2.7 0-2.1-6.9-11.7-15.6-21.7-9.9-11.4-14.2-15.6-15-14.7-.4.4-.7 5.3-.7 10.9 0 8.2.5 12 2.6 18.8 4.3 14.1 9.6 25.9 13.9 30.3l3.8 4-5.9 16.6c-3.3 9.2-6.3 17.9-6.7 19.4-.3 1.6-1.3 3.1-2.1 3.4-.8.3-1.2 1.2-.8 2.2.7 1.8-3.6 19.1-4.7 19.1-.4 0-2.2-1.3-4-2.9-4.6-4-7.1-5.1-11.3-5.1-4.8 0-17.1 5.8-22.4 10.5-4.7 4.3-14.1 21.9-14.1 26.5v2.8l6.9-2.4c6.4-2.2 8.3-2.4 22.9-2.2l15.9.3-1.3 5c-.7 2.7-2.9 13.1-4.8 23s-3.5 16.6-3.5 14.9c-.3-10.9-6.5-19.5-20.4-28-5.1-3.1-11.3-7.2-14-9-2.6-1.9-4.8-3.4-5-3.4-.2 0-.2 4.2-.2 9.2.2 15.8 5.5 23.6 22.4 33.2 5.4 3.1 10.4 6.3 11.1 7.1 1.7 2.1.7 3.9-8.4 15-4.1 4.9-11 14.2-15.3 20.7-4.3 6.4-8.2 11.8-8.8 11.8-.5 0-2.9-.7-5.2-1.6-4.1-1.6-4.3-1.9-4.3-5.8 0-5.2-2.7-9.6-7.3-12.1l-3.7-2v-14.3h3.9c2.1 0 10.2-2.2 18-4.7l14.2-4.6 5.2 1.6c2.8.9 5.8 1.9 6.6 2.2.8.3-.3-2-2.5-5-2.1-3.1-4.6-5.9-5.4-6.3-4.5-1.8-27.4-1.3-40.4.9-.6.1-1.3-1.4-1.6-3.3-1.1-5.7-3.5-10.4-6.9-13.2-2.8-2.4-3.1-3.2-3.1-8.5 0-8.6-1.7-22-3.5-27.4-2.7-8-8.7-16.1-23.1-30.9-14.6-15-24.4-23.4-35.8-30.8-9.2-6-21.9-11.2-27.2-11.2-4.2 0-4.4.2-15.1 12.7-13.5 15.8-50.4 54.5-60.3 63.3-4 3.5-11.5 11.1-16.5 16.8l-9.2 10.4-.6 6.4c-.6 8.3-3.1 12.1-15.7 24.1-5.3 5.1-11.5 11.6-13.8 14.5-2.2 2.9-6.1 7-8.7 9.1l-4.6 3.8-6.7-2c-3.7-1.1-8.9-2.5-11.7-3.2-2.7-.6-8.4-2.5-12.5-4.2-5.8-2.3-9.5-3.1-16.2-3.5-9.9-.5-9 .4-10.8-11.2-1.7-11-1.4-10.8-7.7-4.6-3.1 3.2-8.7 7.5-12.5 9.8-7.4 4.4-10.5 7.6-11.4 11.7-.3 1.4-1.2 4.6-2 7.1-.7 2.5-1.6 6.2-1.9 8.2-.3 2.1-.9 3.8-1.4 3.8-.4 0-2.9-3.9-5.5-8.6-7.3-13.1-16.1-27-23.2-36.5-3.5-4.8-6.4-9.1-6.4-9.7 0-1.6 5.2-5.2 15-10.5 13.2-7.1 21.4-16.9 22.5-26.9 1.6-15 1.6-15.2-.3-13.5-.9.8-7.5 4.9-14.7 9.2-7.1 4.2-14.7 9.3-16.8 11.3-5.4 5.2-8.9 12.4-9.5 19.9l-.5 6.2-10.5-10.5c-5.7-5.8-15.3-14.1-21.2-18.6l-10.8-8 3.5-3.1c2.2-2 5.5-7.2 9.3-15.1 8.5-17.5 10.3-23.2 10.8-35.6l.4-10.5-7.3 7c-11.4 10.9-21.9 22.6-24.7 27.5-1.4 2.5-2.7 4.7-2.8 4.9-.2.2-2.7-1.8-5.6-4.4-8.4-7.6-21.5-13-36-15-3.1-.4-4.8-.3-4.8.4 0 .6.4 1.1.9 1.1s5.4 5.5 10.9 12.3c14 17.3 20 22.2 29.2 24.2 4.1.9 15.9 9.8 31.9 24.1.2.2-1.9.1-4.6-.3-6.4-.7-11 .8-19.5 6.4-11.3 7.4-18.1 17.9-19.4 29.8l-.6 6 2-3.1c3.5-5.4 9.3-9.3 26.8-17.9 11.3-5.5 18-9.4 19.7-11.4l2.6-3.1 10 10.8c21.9 23.5 38 48 45 68.5 1.9 5.3 1.9 5.5-.5 17.6-1.3 6.8-3 14.6-3.8 17.4-.8 2.9-1.7 7.1-2.1 9.5-.4 2.3-1.1 3.9-1.6 3.6-.6-.3-.7-1.4-.4-2.4.3-1 .1-2.1-.4-2.5-.7-.4-.9.1-.5 1.2.3 1.1-.1.9-1.3-.7-2.7-3.8-7.1-7.9-16.1-14.9-4.5-3.6-8.2-6.8-8.2-7.2 0-.9 4-5.9 10.1-12.4 5.3-5.8 7.4-11 6.6-16.9-.3-2.2-3.3-9.5-6.6-16.1-3.3-6.6-6.4-13.5-6.8-15.4l-.8-3.5-3.5 5.4c-1.9 3-5.2 7.4-7.3 9.8-5.8 6.8-7 9.7-6.5 16.6.3 4.8 1.3 8 4.6 14.5 2.4 4.6 5.1 10.6 6.1 13.2l1.9 4.8-8.7-4.4c-4.8-2.3-10.6-4.8-12.8-5.4-2.3-.6-5.6-2.3-7.3-3.7-3.7-3.2-16.4-7.7-19-6.9-1 .3-2.2 1.6-2.6 2.8-.6 1.9-1.1 1.4-3.4-3.8-3.1-6.8-14-24.9-14.6-24.2-.3.3 1.4 5.1 3.7 10.8 4 9.9 9.9 25.2 9.9 25.6 0 1.3-5.6 4.7-10.5 6.3l-6.2 2.1-10.5-7.8C555.9 485.1 543 477 541 477c-.7 0-3.5-1.6-6.2-3.6-10-7.4-5.2-2.4 13.2 13.8 16.2 14.2 18.6 16.7 16.7 17.2-4.4 1.2-7.4.5-10.7-2.4-1.9-1.6-4-2.9-4.5-3-.6 0-4.2-3-8-6.8-10.6-10.2-24.6-16.2-38-16.2-7.8 0-11.2 2.1-17.3 10.7-2.6 3.6-6.1 8.2-7.8 10.2-2.4 2.7-3.3 4.8-3.5 8.3-.5 6.2 1.3 6.4 6.8.7l4-4.1 6.4 4.7c5.1 3.8 7 4.6 9.6 4.3 2.6-.3 3.2-.1 2.8 1.2-.7 2.2-3.5 21.1-3.5 23.6 0 1.9.4 2.1 4.3 1.7 2.4-.2 7.4.4 11.7 1.6 4.1 1 6.8 2 6 2-.9.1-4.3-.6-7.5-1.5-3.3-.8-8-1.4-10.5-1.2l-4.5.3.1-7.5c.1-4.1-.1-6.7-.3-5.8-.4 1.7-5.3 1.8-85.2 1.8-46.7 0-86.3-.3-88-.6-2.5-.5-3.1-1.1-3.1-3.2 0-5.2-1-1.2-2 7.4l-.9 8.9.4-11c.3-6.1.8-23.8 1.1-39.3.6-24.1.9-28.5 2.3-29 .8-.3 1.7 0 1.9.7.8 2.4 5.6 7.3 8 8.2 1.4.5 3.4.7 4.5.3 1.8-.6 1.9-1.1 1.2-6.3-1.1-8.3-1-11.1.9-16 1.9-5 1.3-6.4-4.1-8.6-1.9-.8-4.4-2.7-5.7-4.2-1.3-1.6-3.6-3.5-5.1-4.3l-2.8-1.5.6-18.5.5-18.5-13.9-13.3c-15.5-14.9-14.7-14.6-22.6-8.3-7 5.4-7.3 5.5-8.9 3.5-1.8-2.3-4-6.2-2.9-5.2.4.4 7.8-2.9 16.5-7.2 29.1-14.6 58.9-26.4 104.5-41.6 27.4-9.1 34.1-11.7 18-7-6.7 1.9-9 2.2-14.5 1.5-3.6-.5-18.4-1.1-33-1.5-14.6-.3-29.1-.9-32.3-1.3-5.4-.7-5.6-.7-4.1 1 1.8 2 1.3 4.8-1.6 8.9-1.1 1.6-1.6 3.8-1.4 6l.3 3.5-.8-3.3c-.7-2.7-.4-4.2 1.6-7.8 1.4-2.4 2.3-5.1 1.9-5.9-.3-.8-2.3-1.9-4.5-2.5-2.3-.6-5.2-2.2-6.7-3.5-4.6-4.3-10.5-5.8-19.4-5.2-5.8.4-8.2.2-9-.8-.6-.7-2.4-1.8-3.9-2.5-1.6-.6-5.1-3.3-7.7-5.8l-4.9-4.7 7.8.4c7.6.3 8 .2 11-2.7 2.4-2.2 4.7-3.2 9.4-3.9 5.7-.9 6.3-.8 6.8.8 1 3.1 5.5 5.9 9.4 5.9 5.9 0 6.5-.9 5.3-7.6-.8-4.6-.7-6.1.4-7.2 2.3-2.2 4.6-7.3 4-8.7-.3-.8-2.3-1.9-4.5-2.5-2.2-.6-5.5-2.4-7.3-4.1-6.1-5.5-16.6-7.2-28.4-4.4-11.5 2.7-25.4 7.6-25.4 8.9 0 .7 1.1 2.5 2.5 3.9l2.6 2.5-3.2 3.1c-3.3 3.3-3.4 3.3-10 .7-1.5-.6-1.5-.2 0 5.6.8 3.5 1.6 6.5 1.8 6.7.1.1 1.2-.4 2.5-1.3 2.3-1.6 8.8-2.2 8.8-.9-.1 2.1-2 3-7 3.6-5 .5-22.8 7.4-25.4 9.8-.6.6.2 2.5 2 5.2 2.9 4.1 3 4.3 1.4 7-.9 1.5-1.9 3-2.2 3.3-1 .9-6.8-2.6-6.8-4.1 0-3.7 4.6-12.9 8.6-17.5 4.9-5.3 4.9-5.8.6-3.6-1.5.7-4.3 1.7-6.2 2.1-3.8.7-25.7 13.4-28.4 16.4-1.6 1.7-3.1 1.9-17.9 1.5-8.9-.2-21.5-.6-27.9-.9L148 306l-.2 6.8c-.2 9-1.5-20.6-1.8-44.8-.2-10.7-.5-17.5-.7-15.1l-.4 4.3-7.4-.4c-6-.3-7.5 0-7.9 1.2-.2.8-.5-.5-.6-3-.8-12-1.8 20.3-2.1 65.5-.2 27.5-.4 47-.6 43.2l-.4-6.7H90l-.2 3.2c-.1 1.8-.5-5.3-.8-15.7l-.6-19-.4 30c-.2 16.5-.4 38.4-.4 48.7l-.1 18.8-3.2-.5c-1.8-.3-4.9-.7-6.8-1l-3.5-.6.2-119.2c.1-65.6.3-117 .5-114.2.6 8.8.9 9.5 4.8 9.5 3.3 0 3.4.2 3.8 4.2.2 2.4.4-17.4.5-44 .2-40.5.5-49.5 1.8-55.5 2.2-9.8 4.9-15.1 9.7-19.2l4.1-3.5h545.8c458.8 0 546.4.2 549.1 1.4zM201.5 312.3c-2.2 5.2-1.9 15.2.6 20.6 1.1 2.5 4.9 8.4 8.4 13.1 3.6 4.8 6.5 9.1 6.5 9.5 0 .4-3.3-3.8-7.4-9.4-9.3-12.7-11-16.8-10.4-25.8.5-6.5 2.3-13.1 3.3-12.1.3.3-.2 2.1-1 4.1zm29.9 6.7c-.3 2.5-.2 2.9.4 1.5.8-1.8.9-1.7 1.5.7.4 1.5.2 3.7-.3 5-.9 1.9-.9 1.8-.4-1.2.4-2.5.2-3.1-.5-2.1-.8 1.2-1.1 1-1.5-1-.8-3-1-5.8-.7-8.4l.2-2 .9 2c.5 1.1.7 3.6.4 5.5zm12.6 3.9c0 1.4-3.4 2.3-5.5 1.5-1.2-.5-1.6-.4-1.2.3.4.6 0 1.4-.9 1.7-2.8 1.1-2.8.7 0-1.9 2.6-2.4 7.6-3.5 7.6-1.6zm28 1.1c-.6 1.1-1.3 2-1.6 2-.3 0-.2-.5.2-1.2.5-.8.2-.9-.9-.5-1 .3-1.7.2-1.7-.3 0-.7 1.7-1.5 4.3-1.9.4 0 .3.8-.3 1.9zm43.3 9.3l1.7 3.2-2.2-2.6c-2.2-2.4-2.6-2.5-7.1-1.4-3 .6-5.6 2-6.8 3.5-1.8 2.2-1.9 2.2-1 .3 1.6-3.1 3.3-4 13.1-6.2.3 0 1.3 1.4 2.3 3.2zm13.5 3.1c-.7.6-1 .7-.5.2.4-.6.8-2.1.8-3.6.2-2.5.2-2.5.6-.1.3 1.3-.1 2.9-.9 3.5zm-93.5 1.1c.4.8.2 1.7-.3 2-.6.4-1-.3-1-1.4 0-2.5.6-2.7 1.3-.6zm52.4 1.1c-.3.3-1.2.4-1.9.1-.8-.3-.5-.6.6-.6 1.1-.1 1.7.2 1.3.5zm-2.9 4c-.3 1.4-.5 1.2-1-.9-.3-1.9-.2-2.5.4-1.9.6.6.8 1.8.6 2.8zm10.5-2.9c-.7.2-2.1.2-3 0-1-.3-.4-.5 1.2-.5 1.7 0 2.4.2 1.8.5zm820.6 8.4c.1 1.7-.5 2.9-1.5 3.3-2.5 1-2.7.2-1.3-6.1 1.3-5.3 1.4-5.6 2-2.8.4 1.6.7 4.2.8 5.6zm-832.8-.4c-1.2 2-1.4 1.4-.5-1.2.4-.9.9-1.4 1.1-1.1.3.2 0 1.3-.6 2.3zm-2 6c-.4 2.8-.6 3.2-.9 1.5-.3-2.2.3-5.2 1.1-5.2.1 0 .1 1.7-.2 3.7zm-45.2 2.7c0 1.4-.2 1.6-.6.6-.3-.8-1-2.1-1.6-2.8-.7-.9-.6-1.1.7-.6.9.3 1.6 1.6 1.5 2.8zm-5.9-1.1c0 .2-1.9 2.1-4.2 4.2l-4.3 4 4-4.3c3.6-3.9 4.5-4.7 4.5-3.9zm-13 3.1c0 .2-1.2 1.1-2.7 2l-2.8 1.7 2.4-2c2.3-2.1 3.1-2.5 3.1-1.7zm45.8.3c-1 .2-2.6.2-3.5 0-1-.3-.2-.5 1.7-.5s2.7.2 1.8.5zm18.9 5.5c-.3.7-.5.2-.5-1.2s.2-1.9.5-1.3c.2.7.2 1.9 0 2.5zm-37-1.6c-.3.3-1.2.4-1.9.1-.8-.3-.5-.6.6-.6 1.1-.1 1.7.2 1.3.5zm-155 6.1c-.3 1-.5.2-.5-1.7s.2-2.7.5-1.8c.2 1 .2 2.6 0 3.5zm118.3-4.3c0 .2-.8 1-1.7 1.7-1.6 1.3-1.7 1.2-.4-.4 1.3-1.6 2.1-2.1 2.1-1.3zm43.7.2c-.3.3-1.2.4-1.9.1-.8-.3-.5-.6.6-.6 1.1-.1 1.7.2 1.3.5zm-35.7.7c0 .2-1 1.2-2.2 2.3l-2.3 1.9 1.9-2.3c1.8-2.1 2.6-2.7 2.6-1.9zm908.5 8.8c2.3 5.6 5.2 10.6 7.5 13 2 2.1 3.4 3.9 2.9 3.9-1.2 0-19 13-25.6 18.7-3.3 2.9-6.4 5.3-6.8 5.3-.3 0-.4-1-.1-2.3.3-1.2-.3-.3-1.3 1.9-2.7 5.8-4.4 6.7-3.6 1.7 1.5-8.8 7.8-39.9 8.4-41 .6-1.1 12.9-10 14.2-10.2.3 0 2.3 4 4.4 9zm-1002.4-3.4c4.3 4.8 5.3 7 1.1 2.5-2.2-2.3-4.2-4.2-4.6-4.2-.3 0-.6 1.5-.6 3.3 0 5.8-6.5 22.7-8.7 22.7-.2 0 .4-1.5 1.5-3.3 2.7-4.3 6.2-15.3 6.2-19.2 0-5.3 1.5-5.8 5.1-1.8zm80.9-2.3c0 .2-.8 1-1.7 1.7-1.6 1.3-1.7 1.2-.4-.4 1.3-1.6 2.1-2.1 2.1-1.3zm399.9 3.8l2.5 3.1-4.1-2.4c-2.7-1.5-3.7-2.6-3-3.1 1.7-1.1 2-1 4.6 2.4zM210 370.3c0 .2-1 1.2-2.2 2.3l-2.3 1.9 1.9-2.3c1.8-2.1 2.6-2.7 2.6-1.9zm-13 3.1c0 .2-.8 1-1.7 1.7-1.6 1.3-1.7 1.2-.4-.4 1.3-1.6 2.1-2.1 2.1-1.3zm-10 9c0 .2-.8 1-1.7 1.7-1.6 1.3-1.7 1.2-.4-.4 1.3-1.6 2.1-2.1 2.1-1.3zm960 1.1c0 .2-1.9 1.4-4.2 2.6l-4.3 2.1 2.4-2.6c2.1-2.2 6.1-3.6 6.1-2.1zm-1038.7 14c-.3.9-.8 1.4-1 1.1-.3-.3-.2-.9.2-1.5.9-1.6 1.5-1.3.8.4zm128.1 1c-.1.5-.5 2.5-.9 4.3-.7 3.2-.6 3.3 2.2 2.5 3-.8 6.9-.7 12.2.2 2.8.5 3.2 1 2.8 2.8-2 9.6-4.8 25.8-5.8 33.5l-1.2 9.3-2.3-2.2c-1.3-1.2-2.6-2-2.9-1.7-1.3 1.3-1.5 12.9-.3 18.8.7 3.6 1.2 8 1 9.8l-.3 3.3-3.1-4.3c-4.3-5.8-6.2-7.4-14.3-11.4-4.7-2.3-8.4-3.4-11.3-3.4-4.8 0-6.9.9-12.6 5.4-4.1 3.3-8.4 3.8-18.8 2.1-4.4-.7-4.8-.6-5.9 1.8-1 2.2-.8 3.2 1.4 6.9l2.6 4.4-5.7 3.4c-6.6 3.9-21.7 18.2-29.9 28.2l-5.6 6.9-4.9-4.8-4.9-4.9 2.6-13.9c4.1-22.2 3.4-20.7 10.9-22.9 11.6-3.3 17.7-11.6 14.1-19-.8-1.6-1.5-3-1.5-3.2 0-.7 26-21 37-28.8 11.8-8.5 12.7-8.9 19.2-9.6 7.5-.8 12.9-.1 20.6 2.8 2.8 1.1 5.3 1.8 5.6 1.5.9-.9-.7-7.8-3-13.2-1.3-2.9-2.4-5.5-2.4-5.8 0-.2 1.2-.3 2.8-.1 1.5.2 2.6.7 2.6 1.3zm-129.7 6.7c-.2 1.3-.4.5-.4-1.7-.1-2.2.1-3.2.4-2.3.2 1 .2 2.8 0 4zm1005.7 11.6c.3 1 2.8 3.1 5.6 4.7 2.7 1.7 5 3.3 5 3.6 0 .3-1.2 1.1-2.7 1.8-1.6.7-6.1 3.6-10 6.4-5.1 3.7-7.3 5.8-7.3 7.3 0 1.8-.7 2.3-3.7 2.6-2.1.3-3.9.5-4 .4 0-.1.9-4.2 2-9.2 2.1-8.7 2.4-9.3 7.7-14.2 3-2.8 5.8-5.1 6.2-5.2.4 0 .9.8 1.2 1.8zM92.3 422.7c-.7.2-1.9.2-2.5 0-.7-.3-.2-.5 1.2-.5s1.9.2 1.3.5zm7 1c-.7.2-1.9.2-2.5 0-.7-.3-.2-.5 1.2-.5s1.9.2 1.3.5zm-12.1 43.7c-.1 17.4-.6 31.6-1 31.6s-.6-7.9-.4-17.5c.2-11.7-.1-17.5-.8-17.5-.5 0-1 .7-1 1.5 0 1.1-1.1 1.5-3.9 1.5-3.8 0-3.9.1-4.3 4.2-.3 2.4-.6 11.7-.7 20.7-.2 15.8-.1 16.4 1.6 15 1.5-1.1 1.5-1-.2 1.1-1.1 1.4-2.1 2.7-2.2 2.9-.2.2-.3-19.3-.3-43.3v-43.8l6.8 6 6.7 6-.3 31.6zm20.5-42.8c-.3.3-1.2.4-1.9.1-.8-.3-.5-.6.6-.6 1.1-.1 1.7.2 1.3.5zm13.2 3.8c.9 1.1.9 1.6-.1 2.2-.7.4-1 .4-.6-.1.4-.4.3-1.4-.3-2.2-.6-.7-.9-1.3-.6-1.3.2 0 1 .6 1.6 1.4zm3.2 4.3c1.3 1.6 1.2 1.7-.3.4-1.7-1.3-2.2-2.1-1.4-2.1.2 0 1 .8 1.7 1.7zm963.4 8.9c-.4 2.3-1.8 4.6-3.6 6.2-2.8 2.3-3 2.9-2.8 8.2.2 5.5-.1 6.3-5.4 14.6-3.2 4.8-5.7 9.4-5.7 10.2 0 1.1-.8 1.3-3.2.8-1.8-.4-4.8-.9-6.5-1.3-1.8-.3-3.3-.7-3.3-1 0-3.1 28.5-41.3 30.8-41.3.2 0 .1 1.6-.3 3.6zM128.7 478c-.4 1.6-1.4 8.8-2.4 16-.9 7.2-1.9 12.9-2.2 12.7-4.5-2.5-12.7-5.9-16.9-7-2.9-.7-5.2-1.7-5-2.2.5-1.7 24.3-22.5 25.7-22.5 1 0 1.2.8.8 3zm57.9 9c6.8 4.8 14.4 7.9 20.5 8.6l5.6.6-4.1 6.9c-2.2 3.7-4.6 6.8-5.3 6.9-4.9.1-12.1 2.6-14.5 5-4.5 4.6-3.3 12.1 2.8 16.9 1.5 1.2 2.2 2.1 1.7 2.1-.6 0-2.7-1.8-4.6-3.9-3-3.3-4.3-4-8-4.2-3.9-.3-5 .2-8.3 3.1-5.5 4.8-12.5 9-14.8 9-1.3-.1-.7-.6 1.6-1.4 6-2.2 13.2-8.3 21.5-18.4 10.6-12.8 12.4-15.8 12.1-20.6-.4-5-1.7-5.4-4.4-1.5-1.2 1.7-4.8 5.3-8 8-6.5 5.5-9.4 6.1-16 3.3-2.2-1-5.2-2-6.7-2.3l-2.8-.6 6.3-6.6c5.3-5.5 17.3-13.8 20.1-13.9.5 0 2.8 1.4 5.3 3zm1018.4 5.9c0 6.1-.2 6.9-1.7 6.5-1-.3-5.3.1-9.6.9-4.2.7-7.4 1-7 .6 1.6-1.4 17.8-14.9 18.1-14.9.1 0 .2 3.1.2 6.9zm-986.1 4.4c-6 4-5.8 4-4.6.7 1-2.5 1.7-3 4.6-3h3.4l-3.4 2.3zm418.7 4c4.8 1.8 12.7 5.8 16.9 8.6l3 2.1-3.5-.6c-5.5-.9-25.5 2.3-30.7 4.9-7.5 3.7-8.3 4.1-8.3 4.9 0 .5 1.5.8 3.3.8 6.1.1 11.3 3.4 14.2 8.9 2.5 5 8.7 12.1 13.5 15.4 2.3 1.6 2.2 1.6-.8 0-4.2-2.3-8.1-6.4-12.9-13.6l-3.8-5.9-9.8-.1c-5.8-.1-9.7.2-9.7.8 0 .5 3.9 5 8.8 9.9l8.7 9-9.1-8.4-9.1-8.4-2.2-10.9c-1.3-6-2.1-10.9-1.9-11 .1-.1 3.1-2.1 6.5-4.5 9.5-6.5 13.6-6.8 26.9-1.9zm-553.6-2c0 .2-1.5 1.6-3.2 3.3l-3.3 2.9 2.9-3.3c2.8-3 3.6-3.7 3.6-2.9zm510.3 9.4l4.4.5 1 6.4c.5 3.5.7 6.4.5 6.4-.2 0-3.4-2.9-7.1-6.4-3.6-3.5-8.2-7.7-10.1-9.4l-3.5-3.1 5.2 2.6c2.9 1.4 7.2 2.8 9.6 3zm-17.2-3c1.3 1.6 1.2 1.7-.3.4-1-.7-1.8-1.5-1.8-1.7 0-.8.8-.3 2.1 1.3zm9.4 15.6c12.2 10.8 16 14.8 16.1 16.7.1 2.2 0 2.2-.3.3-.2-1.3-2.9-4.3-5.8-6.9l-5.4-4.6-17.2.2-17.2.1-3.4 2.9c-6.4 5.7-19 10.6-24.9 9.7-2.7-.4-2.7-.4.6-.6 8.1-.3 18.9-5.2 24.4-11 1.6-1.7 3.3-2.8 3.7-2.5.4.2 1.1-.1 1.5-.7.5-.8.3-.9-.6-.4-.9.6-1 .2-.4-1.6.5-1.3.7-5.2.6-8.6-.2-6.9-.1-7 7.8-7.2 4.4-.1 4.8.2 20.5 14.2zm-351.6-11.1c-.1 1.3-.4 3.3-.7 4.5-.7 2.1-.8 2.1-5.7-1.5l-4.9-3.7 4.9-.6c2.8-.3 5.3-.7 5.8-.7.4-.1.7.8.6 2zm881.1 2.6c2 .9 5.7 3.2 8.2 5.1 5.2 3.8 5.2 3.3 1.7 14-1.7 5-1.8 4-.4-2.2.6-2.2.4-2.2-8.3-2.2h-8.8l4.3 2.8c2.4 1.6 4.3 3 4.3 3.2 0 .2-3-1.2-6.6-3.1-3.6-1.9-7.8-3.4-9.4-3.4-2.5 0-3.1-.5-4.1-4-1.5-4.9-2.5-5.1-3.3-.7-.6 3.1-.8 3.3-4.1 2.9-3.1-.4-3.5-.7-3.5-3.3 0-3.2-.3-3.1 13-8 8.8-3.3 12.2-3.5 17-1.1zm-88.1 1.8c.7.7-5.9 21.4-6.8 21.4-.4-.1-1.7-1-3-2.1-2.4-2-2.4-2.1-1.2-8.2.7-3.4 1.9-7.7 2.6-9.4 1.3-3 1.7-3.2 4.7-2.6 1.8.3 3.5.7 3.7.9zM77 524.4c0 .2-.8 1-1.7 1.7-1.6 1.3-1.7 1.2-.4-.4 1.3-1.6 2.1-2.1 2.1-1.3zm16.9 8l2.9-.6-1.4 5.1c-.7 2.8-1.6 8.9-2 13.6-.6 8.1-.8 8.4-3.5 9.4l-2.8 1-.3-14.9-.3-14.8 2.2.9c1.3.5 3.6.6 5.2.3zm1040.6 1.5c-1.6 1.6-3.1 2.8-3.2 2.7-.1 0 .1-1.3.4-2.9.4-2.1 1.1-2.7 3.2-2.7h2.6l-3 2.9zm63.2 2.3c-.3.8-.6.5-.6-.6-.1-1.1.2-1.7.5-1.3.3.3.4 1.2.1 1.9zm7 22c-.1 4.6-.3.9-.3-8.2s.2-12.8.3-8.3c.2 4.6.2 12 0 16.5zM193 536.5c0 .8-.4 1.5-1 1.5-.5 0-.7-.7-.4-1.5.4-.8.8-1.5 1-1.5.2 0 .4.7.4 1.5zm917.5.2c-5.7 1.7-7.4 2.9-8.5 5.8-.9 2-.9 2-.9 0-.1-2.9 7.4-7.3 12.4-7.4 1.1 0-.2.7-3 1.6zm91.8-1c-.7.2-1.9.2-2.5 0-.7-.3-.2-.5 1.2-.5s1.9.2 1.3.5zm-1028.4 5c.2.2 0 .3-.5.3s-2.2-1.2-3.9-2.6l-3-2.6 3.5 2.3c1.9 1.2 3.7 2.4 3.9 2.6zm34.9-2.7c4 .7 6.9 1.7 6.5 2-1 1-14.3-1.1-14.3-2.1 0-.5-.7-.5-1.7-.2-1.1.4-1.4.3-.9-.6.5-.7 1.3-1 2-.8.6.2 4.4 1 8.4 1.7zm934.2.5c0 .8-.4 1.4-.9 1.2-1.3-.3-12.9 9.3-13.4 11.2-.4 1.4-.5 1.4-.6 0-.1-1.2 13-13.5 14.7-13.9.1 0 .2.7.2 1.5zm-989.7.2c-1.2.2-2.4 1.2-2.6 2.1-.3 1.2-.5 1-.6-.6-.1-1.8.4-2.2 2.7-2.1 2.2.1 2.3.2.5.6zm36.6-.3c-.2.2-3.8.6-7.9.9-4.4.3-6.3.2-4.5-.3 3-.8 13.2-1.3 12.4-.6zm933.6 2.8c-.4 1.4-3.4 4.8-6.8 7.7l-6.2 5.3 5.7-5.4c3.1-3 6-6.6 6.3-8.1.4-1.6.9-2.6 1.2-2.4.2.3.1 1.6-.2 2.9zm75.2 6c-.2 1.8-.4.4-.4-3.2s.2-5 .4-3.3c.2 1.8.2 4.8 0 6.5zm-1031.3-6.7c.4 1.1-.2 1.5-2.2 1.4-1.7-.1-2-.3-.9-.6.9-.2 1.7-.9 1.7-1.4 0-1.4.7-1.1 1.4.6zm153.3 9.2c-.2 2.1-.4.6-.4-3.2 0-3.9.2-5.5.4-3.8.2 1.8.2 5 0 7zm263.3-7.8c-3.9 1.2-8.5 3.8-10 5.6-.8 1-1.7 3.8-2.1 6.4l-.6 4.6-.2-4.1c-.1-2.8.6-5 2-6.8 2.4-3.1 8.5-6.5 11.4-6.5 1.6.1 1.5.2-.5.8zm8.6 1.3c1.9 2.3 1.9 2.3-.1.7-1.1-1-2.9-1.9-4-2.2-1.9-.4-1.9-.5.1-.6 1.1 0 2.9.9 4 2.1zm-431.3-.5c-.7.2-2.1.2-3 0-1-.3-.4-.5 1.2-.5 1.7 0 2.4.2 1.8.5zm442.4 4c-.3 1-.5.2-.5-1.7s.2-2.7.5-1.8c.2 1 .2 2.6 0 3.5zM156 543.3c-1 .9-7 1.6-7 .9 0-.4 1.7-.9 3.7-1 2.1-.2 3.5-.1 3.3.1zm456.3 3.7c-.7 2.7-1 2.5-1.5-1-.3-2.2-.2-2.7.8-1.9.6.5 1 1.9.7 2.9zm67.5 1.7c-.1 5.2-.2 5.3-.5 1.5-.4-3.9-.6-4.2-2.1-3-1.2.9-1.1.6.3-1.4 1.1-1.5 2.1-2.8 2.3-2.8.1 0 .1 2.6 0 5.7zm462.9-3.5c-.3.8-.6.5-.6-.6-.1-1.1.2-1.7.5-1.3.3.3.4 1.2.1 1.9zm-761.7-.8c0 .2-.9.6-2 .9-1.1.3-1.8.1-1.4-.4.5-.9 3.4-1.3 3.4-.5zm7.5 2.6c1 1.1 1.6 2 1.3 2-.3 0-1.3-.9-2.3-2-1-1.1-1.6-2-1.3-2 .3 0 1.3.9 2.3 2zm714.2 4.7c-.2 1.6-.4.5-.4-2.2 0-2.8.2-4 .4-2.8.2 1.3.2 3.5 0 5zM376 546.3c0 .2-1 1.2-2.2 2.3l-2.3 1.9 1.9-2.3c1.8-2.1 2.6-2.7 2.6-1.9zm223.4 5.5c-.5 1-3.3-1.4-4.3-3.6l-1.2-2.6 2.8 2.9c1.6 1.7 2.8 3.1 2.7 3.3zm19.1-1.8c2.1 2.2 3.7 4 3.4 4-.3 0-2.3-1.8-4.4-4-2.1-2.2-3.7-4-3.4-4 .3 0 2.3 1.8 4.4 4zm525.9-1.4c.3.8.2 1.2-.4.9-.6-.3-1-1-1-1.6 0-1.4.7-1.1 1.4.7zM632.5 553c2.7 2.7 4.7 5 4.4 5-.3 0-2.7-2.3-5.4-5-2.7-2.8-4.7-5-4.4-5 .3 0 2.7 2.2 5.4 5zm-292.2-3.3c-1.3.2-3.5.2-5 0-1.6-.2-.5-.4 2.2-.4 2.8 0 4 .2 2.8.4zM605 551c0 1.4-.6 2-2.2 1.9-1.7-.1-1.9-.2-.5-.6.9-.2 1.7-1.1 1.7-1.9 0-.8.2-1.4.5-1.4s.5.9.5 2zm48.7-1.4c-.3.3-1.2.4-1.9.1-.8-.3-.5-.6.6-.6 1.1-.1 1.7.2 1.3.5zm19 0c-.3.3-1.2.4-1.9.1-.8-.3-.5-.6.6-.6 1.1-.1 1.7.2 1.3.5zm-341.9 1.1c-1 .2-2.6.2-3.5 0-1-.3-.2-.5 1.7-.5s2.7.2 1.8.5zm15.5 0c-.7.2-1.9.2-2.5 0-.7-.3-.2-.5 1.2-.5s1.9.2 1.3.5zm178 0c-.7.2-1.9.2-2.5 0-.7-.3-.2-.5 1.2-.5s1.9.2 1.3.5zm134 0c-.7.2-1.9.2-2.5 0-.7-.3-.2-.5 1.2-.5s1.9.2 1.3.5zm10 0c-.7.2-2.1.2-3 0-1-.3-.4-.5 1.2-.5 1.7 0 2.4.2 1.8.5zm427.1.9c.3.8.2 1.2-.3.9-.5-.3-1.2-.1-1.5.4-.4.5.2 1.2 1.1 1.4 1.1.3.7.5-1 .6-2.8.1-2.8.1-1-2.4 2.2-2.9 2-2.9 2.7-.9zm-770.7 0c-.3.3-1.2.4-1.9.1-.8-.3-.5-.6.6-.6 1.1-.1 1.7.2 1.3.5zm190.6.1c-1.3.2-3.5.2-5 0-1.6-.2-.5-.4 2.2-.4 2.8 0 4 .2 2.8.4zm16 0c-.7.2-2.1.2-3 0-1-.3-.4-.5 1.2-.5 1.7 0 2.4.2 1.8.5zm81.9 2.2c.2 1.7.1 2.8-.4 2.5-.8-.5-1.2-5.4-.4-5.4.2 0 .6 1.3.8 2.9zm545.4 5.7l5.9 2.5-4.5-.7c-2.4-.4-5.9-1.7-7.6-3-1.7-1.3-3.7-2.4-4.4-2.4-.7 0-1-.3-.7-.7.4-.3-.1-1.5-1-2.7-1-1.1 0-.5 2.3 1.3s6.8 4.3 10 5.7zm-655.3-6.9c-1.3.2-3.3.2-4.5 0-1.3-.2-.3-.4 2.2-.4s3.5.2 2.3.4zm36.5 0c-1 .2-2.8.2-4 0-1.3-.2-.5-.4 1.7-.4 2.2-.1 3.2.1 2.3.4zm659.9 5.5c-.2 1.3-.4.3-.4-2.2s.2-3.5.4-2.3c.2 1.3.2 3.3 0 4.5zM358 554c.8.5 1.1 1 .5 1-.5 0-1.7-.5-2.5-1s-1-1-.5-1c.6 0 1.7.5 2.5 1zm136.3-.3c-.7.2-2.1.2-3 0-1-.3-.4-.5 1.2-.5 1.7 0 2.4.2 1.8.5zm52 0c-.7.2-2.1.2-3 0-1-.3-.4-.5 1.2-.5 1.7 0 2.4.2 1.8.5zm581.4 1.5c-.3.8-.6.5-.6-.6-.1-1.1.2-1.7.5-1.3.3.3.4 1.2.1 1.9zm-641.4-.5c-.7.2-2.1.2-3 0-1-.3-.4-.5 1.2-.5 1.7 0 2.4.2 1.8.5zm68 0c-.7.2-2.1.2-3 0-1-.3-.4-.5 1.2-.5 1.7 0 2.4.2 1.8.5zm77.7 8c0 .8-.9 0-5-4.5l-4.5-4.7 4.8 4.5c2.6 2.4 4.7 4.5 4.7 4.7zm511.5-8c-1.6.3-4 1.4-5.2 2.5-1.3 1.2-3 1.8-4.5 1.5-2.2-.4-2.2-.4.3-.6 1.4 0 3.4-1 4.4-2.1 1.2-1.3 2.9-1.9 4.9-1.9l3.1.2-3 .4zm-664.2 1c-.7.2-2.1.2-3 0-1-.3-.4-.5 1.2-.5 1.7 0 2.4.2 1.8.5zm82 0c-.7.2-2.1.2-3 0-1-.3-.4-.5 1.2-.5 1.7 0 2.4.2 1.8.5zm112 0c-.7.2-2.1.2-3 0-1-.3-.4-.5 1.2-.5 1.7 0 2.4.2 1.8.5zm433 0c-.7.2-1.9.2-2.5 0-.7-.3-.2-.5 1.2-.5s1.9.2 1.3.5zm-634.5 1c-1 .2-2.6.2-3.5 0-1-.3-.2-.5 1.7-.5s2.7.2 1.8.5zm97 0c-1 .2-2.6.2-3.5 0-1-.3-.2-.5 1.7-.5s2.7.2 1.8.5zm-103.5 1c-.7.2-2.1.2-3 0-1-.3-.4-.5 1.2-.5 1.7 0 2.4.2 1.8.5zm-7 1c-.7.2-2.1.2-3 0-1-.3-.4-.5 1.2-.5 1.7 0 2.4.2 1.8.5zm222.1 1.6c.4-.5.6-.4.5.2-.2.5.2 2 1 3.3.7 1.3 1 2.8.7 3.5-.2.7-.5.4-.5-.5-.1-1-1.6-3.4-3.3-5.5-1.8-2.1-2.3-3-1.2-2 1.1.9 2.4 1.4 2.8 1zm-229.1-.6c-.7.2-1.9.2-2.5 0-.7-.3-.2-.5 1.2-.5s1.9.2 1.3.5zm-7 1c-.7.2-1.9.2-2.5 0-.7-.3-.2-.5 1.2-.5s1.9.2 1.3.5zm-5.6.9c-.3.3-1.2.4-1.9.1-.8-.3-.5-.6.6-.6 1.1-.1 1.7.2 1.3.5zM619 563c.6 1.1.8 2 .6 2-.3 0-1-.9-1.6-2-.6-1.1-.8-2-.6-2 .3 0 1 .9 1.6 2zm25.6 1.2l2.9 3.3-3.2-2.9c-3.1-2.8-3.8-3.6-3-3.6.2 0 1.6 1.5 3.3 3.2zm545.7-2.5c-.7.2-1.9.2-2.5 0-.7-.3-.2-.5 1.2-.5s1.9.2 1.3.5zm6.4-.1c-.3.3-1.2.4-1.9.1-.8-.3-.5-.6.6-.6 1.1-.1 1.7.2 1.3.5zm-765 1c-.3.3-1.2.4-1.9.1-.8-.3-.5-.6.6-.6 1.1-.1 1.7.2 1.3.5zm755.8.4c1.6.7 1.1.9-2 .9-2.9.1-3.6-.2-2.5-.9 1.7-1.1 1.9-1.1 4.5 0zm-766.8 1.6c-.3.3-1.2.4-1.9.1-.8-.3-.5-.6.6-.6 1.1-.1 1.7.2 1.3.5zm203.6.1c-.7.2-1.9.2-2.5 0-.7-.3-.2-.5 1.2-.5s1.9.2 1.3.5zM661 566c-.6 1.1-1.3 2-1.6 2-.2 0 0-.9.6-2s1.3-2 1.6-2c.2 0 0 .9-.6 2zm539.8-1.3c-1 .2-2.8.2-4 0-1.3-.2-.5-.4 1.7-.4 2.2-.1 3.2.1 2.3.4zm-785.5 1c-.7.2-1.9.2-2.5 0-.7-.3-.2-.5 1.2-.5s1.9.2 1.3.5zm215.4-.1c-.3.3-1.2.4-1.9.1-.8-.3-.5-.6.6-.6 1.1-.1 1.7.2 1.3.5zm5.8.4c.3.5.1 1-.4 1-.6 0-1.1-.5-1.1-1 0-.6.2-1 .4-1 .3 0 .8.4 1.1 1zm-235.2.7c-.7.2-1.9.2-2.5 0-.7-.3-.2-.5 1.2-.5s1.9.2 1.3.5zm7 0c-.7.2-1.9.2-2.5 0-.7-.3-.2-.5 1.2-.5s1.9.2 1.3.5z"/><path d="M1045.8 128.5c-.6 1.3-2 2.7-3.2 3.3-1.1.5-4.5 2-7.4 3.3-8.3 3.6-11.2 8.6-7.7 13.6.8 1.1 1.7 3.9 2.1 6.2.4 2.2 1 4.1 1.5 4.1s.9-.5.9-1c0-.6 1.1-.8 2.6-.4 2.4.6 2.5.5 1.5-1.5-.7-1.2-.8-2.1-.2-2.1.5 0 1.8 1.7 2.8 3.8 1.4 2.9 2.4 3.9 4.3 3.9 1.4.1 3.7.4 5.3.8 2 .6 2.7.4 2.7-.8 0-.8-.7-2-1.6-2.7-.8-.8-1.4-2.5-1.2-3.9.5-4.1 4-3.9 8.4.4 3.7 3.8 6 4.2 7.7 1.4.8-1.2.6-2.7-.8-5.4-1.4-3.1-1.5-4.4-.7-7.3.6-2 .9-3.9.6-4.4-.9-1.5-4.4-.8-7.5 1.4l-2.9 2.2-2.6-2.6-2.6-2.5 2.4-.6c2.7-.7 6.1-7.7 4.7-9.8-.4-.8-2.5-1.4-4.4-1.5-2.9-.1-3.9.4-4.7 2.1zm-644.7 8.6c-1.3.5-3.1.7-4 .5-1-.3-2.3.7-3.6 2.7-1.5 2.3-5 4.7-12.9 8.7-14.9 7.5-18 12.2-10.4 15.5 1.8.7 4.6 3 6.2 5.1 2.3 2.9 3 3.4 3.7 2.1.5-.8 2.6-1.8 4.6-2.2l3.8-.7-2.5-1.4c-2.5-1.5-2.4-1.5 1-.9 1.9.4 4.8 1.6 6.3 2.7 2.4 1.6 3.3 1.8 5.5.9 1.5-.6 4.8-1.1 7.3-1 2.5.1 5.1-.1 5.8-.5 1.5-1 .4-2.6-1.8-2.6-1 0-2.6-.9-3.7-2.1-1.8-2-1.8-2.1.1-3.6 2-1.4 4.3-1.4 18.1.3 8.9 1 12.7-3.1 5.9-6.3-3.8-1.8-5-4.1-4.1-7.9.6-2.2.3-2.4-2.9-2.4-2.4 0-5.2 1.1-8.6 3.5-5.7 3.9-5.9 3.9-10.9 2l-3.5-1.3 3.1-1.2c3.6-1.3 7-8 5.1-9.9-1.3-1.3-4.3-1.3-7.6 0zm-197 3c-1.4.5-3 .8-3.7.5-.7-.3-2.2 1-3.4 2.9-1.2 1.9-3.9 4.2-6.3 5.3-13.5 6.2-17.1 8.3-20.8 11.8-1.6 1.5-2.9 3.6-2.9 4.5 0 2 3.6 4.9 6 4.9.8 0 3 2.1 4.9 4.6 3.2 4.2 3.5 4.4 4.3 2.5.5-1.6 1.6-2.1 4.3-2.1 3.7 0 4.7-1.3 1.9-2.4-.9-.4-1.4-.9-1.1-1.3.9-.8 6.8 1.6 9.3 3.9 1.9 1.7 2.4 1.7 5.5.4 2.1-.9 5.2-1.2 8.4-.9 3.8.4 5.4.2 6.3-1 1.1-1.3.8-1.6-1.8-2.2-1.6-.4-3.7-1.6-4.5-2.8-1.3-1.8-1.3-2.3-.1-3.6 2.3-2.2 11.1-2.7 14-.7 4.4 2.8 14.6 1.7 15.9-1.8.4-1-.7-2.2-3.6-3.8-3.9-2.2-4.2-2.6-4.3-6.8 0-4.2-.2-4.5-3-4.8-2.1-.2-4.5.7-8 3.1-6.6 4.6-8.4 5-12.9 3.1l-3.9-1.6 3.1-1.3c3.3-1.4 6.9-7.6 5.9-10.2-.6-1.5-6-1.6-9.5-.2zm903.4 18.1c-1.1 1.8-3.1 3.5-4.5 3.8-5.7 1.6-12 5.2-14.1 8.1l-2.2 3.2 2.1 4.1c1.1 2.3 2.4 5.8 2.8 7.9.5 2.8 1 3.5 1.7 2.8.6-.6 2.2-1.1 3.5-1.1 2.1 0 2.3-.2 1.2-1.5-.7-.9-1-1.8-.8-2.1.8-.7 4.8 4.6 4.8 6.4 0 1 .7 1.3 2.2.9 1.1-.3 3.4.1 4.9.8 3.4 1.8 4.7.4 2.5-2.7-5.1-7.2 2.3-10.3 8.1-3.4 2.5 2.9 5.4 3.4 7.2 1.2 1-1.1.9-2.2-.5-4.7-1.2-2.4-1.5-4.6-1.1-8.1.7-6-.7-7-5.6-3.9-4.4 2.7-5.8 2.6-8-.4-1.7-2.4-1.7-2.5.2-2.5 1.4 0 2.7-1.3 4.1-3.9 2.3-4.6 1.8-7.1-1.5-7.1-1.3 0-2.9-.2-3.7-.5-.7-.2-2.2 1-3.3 2.7zM457 168.1c-1.4.6-3.7.8-5.1.5-2.1-.4-2.8.1-4.4 3-1.9 3.5-6 6.6-10.5 7.9-4 1.2-11.3 4.6-14.2 6.6-1.4 1.1-3.2 1.9-4 1.9-1.9 0-8.8 7.2-8.8 9.2 0 1.9 4.3 5.6 7.4 6.4 1.2.3 3.7 2.8 5.6 5.5 3.9 5.4 4.5 5.8 5.3 2.9.4-1.6 1.4-2 5.1-2 5.3 0 5.7-.8 1.9-3.2-3.5-2.2-1.2-2.3 4.7-.2 2.4.8 5 2.4 5.8 3.6 1.2 1.6 2.1 1.8 4.6 1.3 1.7-.4 6.6-.8 10.8-.9 5.9-.1 8.2-.5 9.5-1.9 1.6-1.6 1.6-1.7-.1-1.7-2.7 0-8.4-2.9-9-4.7-.4-.9.1-2.4 1-3.4 2.3-2.6 14.8-2.7 18.3-.3 5 3.6 18.1 1.3 18.1-3.1 0-.8-1.8-2.4-4-3.5-4.9-2.5-6.2-4.9-5.8-10.3l.3-4.2-3.9.2c-2.5.2-6.4 1.7-10.6 4.3-7.5 4.6-9.1 4.8-15.1 2.1-3.6-1.7-4-2.1-2.4-2.6 5.4-1.7 6.5-2.7 8.5-7.2s2-4.8.4-6c-2.1-1.5-5.9-1.6-9.4-.2zm-162.6 22.5c-2.4 4.4-4.3 5.7-14.3 9.3-14.2 5.2-25.1 12.2-25.1 16.2 0 2 4.2 5.7 7.4 6.5 1.2.3 3.9 3.1 6.1 6.2 2.9 4.2 4.1 5.2 4.3 3.9.4-2.1 4-3.7 8.5-3.7l3.2-.1-2.7-1.7c-2.4-1.4-3.7-3.2-2.4-3.2 1.9 0 11.4 5.3 12.3 6.9 1.1 1.8 1.6 1.9 4 .9 1.6-.7 6.9-1.2 11.8-1.2 7.1-.1 9-.4 9-1.5 0-.8-1.4-1.8-3.1-2.3-3.7-.9-6.9-4.2-6-6.3 1.4-3.8 11.9-4.7 18.1-1.5 5.7 2.9 11.3 3.5 15.8 1.7 4.8-2.1 4.8-4.6.1-7.2-5.2-2.8-6.7-5.6-5.9-10.5.5-3.1.3-4.1-.8-4.6-2.1-.8-9.5 1.4-12.6 3.6-1.4 1.1-4.2 2.6-6.1 3.4-3.2 1.3-3.9 1.2-9-.9-3.3-1.4-4.9-2.5-4-2.8.8-.3 2.8-.9 4.4-1.4 2.2-.7 3.5-2.2 5.2-6l2.2-5.1-2.9-1.2c-2.2-.9-4-.9-7.9 0-3.7.9-5.4.9-6.4.1s-1.7-.3-3.2 2.5zM232 307.7c0 1.1 3.7 4.3 5.1 4.3.4 0 .9-.8 1.1-1.8.4-1.5.1-1.8-1.9-1.4-1.5.3-2.9-.1-3.4-.9-.6-.9-.9-1-.9-.2zm198.5.3c-1.3.6-1.5.9-.5.9.8 0 2.2-.4 3-.9 1.8-1.2.2-1.2-2.5 0zm246.6 102.1c-7.3.5-7.6.7-11.4 5-6.5 7.3-6.6 8-.7 5.8 2.8-1 6.2-1.9 7.5-1.9 1.4 0 8.7 2.1 16.2 4.6 17.7 6 20.4 5.7 36.5-4.8 6-3.9 6.2-4.2 3.8-4.9-1.4-.4-4.5-.7-7-.8-2.5-.1-9.7-.7-16-1.5-15.8-2-20.3-2.2-28.9-1.5zm485.1 95.9c0 1.9.2 2.7.5 1.7.2-.9.2-2.5 0-3.5-.3-.9-.5-.1-.5 1.8zm-27.2 19.5c0 1.1 1 1.5 3.3 1.4l3.2-.2-3-.5c-2.6-.4-2.8-.5-1-1.2 1.9-.8 1.9-.9-.2-.9-1.4-.1-2.3.5-2.3 1.4zM239.8 323.7c.7.3 1.6.2 1.9-.1.4-.3-.2-.6-1.3-.5-1.1 0-1.4.3-.6.6zM84 462c0 .5.5 1 1 1 .6 0 1-.5 1-1 0-.6-.4-1-1-1-.5 0-1 .4-1 1zm100.1 60.6c0 1.1.3 1.4.6.6.3-.7.2-1.6-.1-1.9-.3-.4-.6.2-.5 1.3zm834 3c0 1.1.3 1.4.6.6.3-.7.2-1.6-.1-1.9-.3-.4-.6.2-.5 1.3zm5 0c0 1.1.3 1.4.6.6.3-.7.2-1.6-.1-1.9-.3-.4-.6.2-.5 1.3zm-6.1 4.2c0 1.1.8 2.7 1.9 3.6 1.8 1.6 1.9 1.6 3-1.5.6-1.8 1.1-3.4 1.1-3.5 0-.2-1.3-.4-3-.4-2.2 0-3 .5-3 1.8z"/></svg>