<svg xmlns="http://www.w3.org/2000/svg" xmlns:xlink="http://www.w3.org/1999/xlink" width="128" height="512" viewBox="0 0 128 512"><svg width="128" height="128" viewBox="0 0 128 128" id="opti1-01" y="0"><path d="M11.6 119H116c7.3 0 12-7.7 8.7-14.2L72.5 12.3c-3.6-7.2-13.9-7.2-17.5 0L2.8 104.8c-3.2 6.5 1.5 14.2 8.8 14.2zM72 97.5c0 4.8-3.5 8.5-8.5 8.5s-8.5-3.7-8.5-8.5v-.2c0-4.8 3.5-8.5 8.5-8.5s8.5 3.7 8.5 8.5v.2zM58.9 35h9.8c2.7 0 4.3 2.3 4 5.2l-4.3 37.6c-.3 2.7-2.1 4.4-4.6 4.4s-4.3-1.7-4.6-4.4l-4.3-37.6c-.3-2.9 1.3-5.2 4-5.2z"></path></svg><svg width="128" height="128" viewBox="0 0 128 128" id="opti1-02" y="128"><circle cx="24.6" cy="23.6" r="22.5"></circle><path d="M113 46H57.6c-6.5 0-11.4 4.9-11.4 11.4v55.3c0 6.5 5 11.7 11.4 11.7 6.3 0 11.3-5.7 11.3-11.8v-27s37.1 37.2 37.2 37.2c2.3 2.3 5.4 3.5 8.6 3.4 7.7-.2 13.6-8.2 11.5-15.6-.5-1.9-1.6-3.6-2.9-5L86 68.6h27c6.1 0 11.8-5 11.8-11.3-.1-6.4-5.3-11.3-11.8-11.3z"></path></svg><svg width="128" height="128" viewBox="0 0 128 128" id="opti1-03" y="256"><circle cx="102.6" cy="101.6" r="22.5"></circle><path d="M83.5 16.5v55.4c0 6.5-4.9 11.4-11.4 11.4H16.8c-6.5 0-11.7-5-11.7-11.4 0-6.3 5.7-11.3 11.8-11.3h27S6.7 23.5 6.7 23.4c-2.3-2.3-3.5-5.4-3.4-8.6.2-7.6 8.1-13.6 15.5-11.4 1.9.5 3.6 1.6 5 2.9L61 43.5v-27c0-6.1 5-11.8 11.3-11.8 6.3 0 11.2 5.3 11.2 11.8z"></path></svg><svg width="128" height="128" viewBox="0 0 128 128" id="opti1-04" y="384"><path d="M60.2 80.7l-7.6 7.6c-3.2 3.2-3.2 8.3 0 11.4l1.9 1.9c3.2 3.2 8.3 3.2 11.4 0l7.6-7.6 28.6 28.6c3.2 3.2 8.3 3.2 11.4 0l9.5-9.5c3.2-3.2 3.2-8.3 0-11.4L94.5 73l7.6-7.6c3.2-3.2 3.2-8.3 0-11.4l-1.9-1.9c-3.2-3.2-8.3-3.2-11.4 0l-7.6 7.6-21 21zM32.5 53l-7.6 7.6c-3.2 3.2-3.2 8.3 0 11.4l1.9 1.9c3.2 3.2 8.3 3.2 11.4 0l7.6-7.6 21-21 7.6-7.6c3.2-3.2 3.2-8.3 0-11.4l-1.9-1.9c-3.2-3.2-8.3-3.2-11.4 0L53.5 32 24.9 3.4C21.7.2 16.6.2 13.5 3.4L4 12.9C.8 16.1.8 21.2 4 24.3L32.5 53z"></path></svg></svg>